%TF.GenerationSoftware,KiCad,Pcbnew,(5.1.6)-1*%
%TF.CreationDate,2021-01-25T18:01:45+00:00*%
%TF.ProjectId,Illum,496c6c75-6d2e-46b6-9963-61645f706362,rev?*%
%TF.SameCoordinates,Original*%
%TF.FileFunction,Profile,NP*%
%FSLAX46Y46*%
G04 Gerber Fmt 4.6, Leading zero omitted, Abs format (unit mm)*
G04 Created by KiCad (PCBNEW (5.1.6)-1) date 2021-01-25 18:01:45*
%MOMM*%
%LPD*%
G01*
G04 APERTURE LIST*
%TA.AperFunction,Profile*%
%ADD10C,0.050000*%
%TD*%
%TA.AperFunction,Profile*%
%ADD11C,0.100000*%
%TD*%
G04 APERTURE END LIST*
D10*
X126499999Y-106499999D02*
X121750000Y-111250000D01*
X116500001Y-113500001D02*
X114000000Y-116000000D01*
X116500001Y-113500001D02*
G75*
G02*
X117999999Y-114999999I749999J-749999D01*
G01*
X121749999Y-111249999D02*
G75*
G02*
X120250001Y-109750001I-749999J749999D01*
G01*
D11*
X124000000Y-106000000D02*
X120250001Y-109750001D01*
D10*
X111499999Y-98499999D02*
X114000000Y-96000000D01*
X110000001Y-97000001D02*
X113500001Y-93500001D01*
X111499999Y-98499999D02*
G75*
G02*
X110000001Y-97000001I-749999J749999D01*
G01*
X106250001Y-100750001D02*
G75*
G02*
X107749999Y-102249999I749999J-749999D01*
G01*
D11*
X114000000Y-96000000D02*
X124000000Y-106000000D01*
X104000000Y-106000000D02*
X107749999Y-102249999D01*
X114000000Y-116000000D02*
X104000000Y-106000000D01*
D10*
X114499999Y-118499999D02*
G75*
G02*
X113500001Y-118499999I-499999J499999D01*
G01*
X101500001Y-106499999D02*
G75*
G02*
X101500001Y-105500001I499999J499999D01*
G01*
X113500001Y-93500001D02*
G75*
G02*
X114499999Y-93500001I499999J-499999D01*
G01*
X126499999Y-105500001D02*
G75*
G02*
X126499999Y-106499999I-499999J-499999D01*
G01*
D11*
X114500000Y-93500000D02*
X126499999Y-105500001D01*
X101500001Y-105500001D02*
X106250001Y-100750001D01*
X113500001Y-118499999D02*
X101500001Y-106499999D01*
X118000000Y-115000000D02*
X114500000Y-118500000D01*
D10*
X102000000Y-120000000D02*
G75*
G02*
X100000000Y-118000000I0J2000000D01*
G01*
X128000000Y-118000000D02*
G75*
G02*
X126000000Y-120000000I-2000000J0D01*
G01*
X126000000Y-92000000D02*
G75*
G02*
X128000000Y-94000000I0J-2000000D01*
G01*
X100000000Y-94000000D02*
G75*
G02*
X102000000Y-92000000I2000000J0D01*
G01*
D11*
X128000000Y-94000000D02*
X128000000Y-118000000D01*
X102000000Y-92000000D02*
X126000000Y-92000000D01*
X100000000Y-118000000D02*
X100000000Y-94000000D01*
X126000000Y-120000000D02*
X102000000Y-120000000D01*
M02*
