M48
; DRILL file {KiCad (5.1.6)-1} date 01/25/21 18:01:43
; FORMAT={-:-/ absolute / inch / decimal}
; #@! TF.CreationDate,2021-01-25T18:01:43+00:00
; #@! TF.GenerationSoftware,Kicad,Pcbnew,(5.1.6)-1
; #@! TF.FileFunction,Plated,1,2,PTH
FMAT,2
INCH
T1C0.0157
T2C0.0197
T3C0.0256
T4C0.0394
T5C0.0866
%
G90
G05
T1
X4.8957Y-4.6457
X4.9147Y-4.5997
X4.9147Y-4.6916
X4.9606Y-4.5807
X4.9606Y-4.7106
X5.0066Y-4.5997
X5.0066Y-4.6916
X5.0256Y-4.6457
X3.9508Y-3.7008
X3.9698Y-3.6549
X3.9698Y-3.7467
X4.0157Y-3.6358
X4.0157Y-3.7657
X4.0617Y-3.6549
X4.0617Y-3.7467
X4.0807Y-3.7008
X4.8957Y-3.7008
X4.9147Y-3.6549
X4.9147Y-3.7467
X4.9606Y-3.6358
X4.9606Y-3.7657
X5.0066Y-3.6549
X5.0066Y-3.7467
X5.0256Y-3.7008
X3.9508Y-4.6457
X3.9698Y-4.5997
X3.9698Y-4.6916
X4.0157Y-4.5807
X4.0157Y-4.7106
X4.0617Y-4.5997
X4.0617Y-4.6916
X4.0807Y-4.6457
T2
X4.124Y-4.3996
X4.1339Y-3.9272
X4.2421Y-3.8189
X4.2618Y-4.5374
X4.7146Y-3.8091
X4.7441Y-4.5177
X4.8327Y-4.4291
X4.8425Y-3.9469
X4.3996Y-3.9469
X4.3996Y-4.0256
X4.5571Y-4.0256
X4.4783Y-3.9469
X4.4783Y-4.0256
T3
X4.0Y-4.4409
X4.0Y-4.4909
T4
X4.3486Y-4.303
X4.4193Y-4.2323
X4.4193Y-4.3737
X4.49Y-4.303
X4.49Y-4.4444
X4.5607Y-4.3737
T5
X4.0157Y-4.6457
X4.9606Y-4.6457
X4.0157Y-3.7008
X4.9606Y-3.7008
T0
M30
