%TF.GenerationSoftware,KiCad,Pcbnew,(5.1.6)-1*%
%TF.CreationDate,2021-01-25T18:01:45+00:00*%
%TF.ProjectId,Illum,496c6c75-6d2e-46b6-9963-61645f706362,rev?*%
%TF.SameCoordinates,Original*%
%TF.FileFunction,Copper,L2,Bot*%
%TF.FilePolarity,Positive*%
%FSLAX46Y46*%
G04 Gerber Fmt 4.6, Leading zero omitted, Abs format (unit mm)*
G04 Created by KiCad (PCBNEW (5.1.6)-1) date 2021-01-25 18:01:45*
%MOMM*%
%LPD*%
G01*
G04 APERTURE LIST*
%TA.AperFunction,ComponentPad*%
%ADD10R,0.850000X0.850000*%
%TD*%
%TA.AperFunction,ComponentPad*%
%ADD11O,1.000000X1.000000*%
%TD*%
%TA.AperFunction,ComponentPad*%
%ADD12R,1.000000X1.000000*%
%TD*%
%TA.AperFunction,ComponentPad*%
%ADD13C,0.100000*%
%TD*%
%TA.AperFunction,ComponentPad*%
%ADD14C,0.700000*%
%TD*%
%TA.AperFunction,ComponentPad*%
%ADD15C,4.400000*%
%TD*%
%TA.AperFunction,WasherPad*%
%ADD16C,2.500000*%
%TD*%
%TA.AperFunction,ViaPad*%
%ADD17C,1.000000*%
%TD*%
%TA.AperFunction,Conductor*%
%ADD18C,0.254000*%
%TD*%
G04 APERTURE END LIST*
D10*
%TO.P,TP5,1*%
%TO.N,/VCC*%
X115750000Y-102250000D03*
%TD*%
%TO.P,TP4,1*%
%TO.N,/RST*%
X113750000Y-102250000D03*
%TD*%
%TO.P,TP3,1*%
%TO.N,/SCLK*%
X111750000Y-102250000D03*
%TD*%
%TO.P,TP2,1*%
%TO.N,GND*%
X113750000Y-100250000D03*
%TD*%
%TO.P,TP1,1*%
%TO.N,/MISO*%
X111750000Y-100250000D03*
%TD*%
D11*
%TO.P,J1,2*%
%TO.N,/V_In*%
X101600000Y-114070000D03*
D12*
%TO.P,J1,1*%
%TO.N,GND*%
X101600000Y-112800000D03*
%TD*%
%TO.P,J2,6*%
%TO.N,/VCC*%
%TA.AperFunction,ComponentPad*%
G36*
G01*
X114647092Y-112287113D02*
X114647092Y-112287113D01*
G75*
G02*
X114647092Y-113489195I-601041J-601041D01*
G01*
X114647092Y-113489195D01*
G75*
G02*
X113445010Y-113489195I-601041J601041D01*
G01*
X113445010Y-113489195D01*
G75*
G02*
X113445010Y-112287113I601041J601041D01*
G01*
X113445010Y-112287113D01*
G75*
G02*
X114647092Y-112287113I601041J-601041D01*
G01*
G37*
%TD.AperFunction*%
%TO.P,J2,5*%
%TO.N,/RST*%
%TA.AperFunction,ComponentPad*%
G36*
G01*
X116443143Y-110491061D02*
X116443143Y-110491061D01*
G75*
G02*
X116443143Y-111693143I-601041J-601041D01*
G01*
X116443143Y-111693143D01*
G75*
G02*
X115241061Y-111693143I-601041J601041D01*
G01*
X115241061Y-111693143D01*
G75*
G02*
X115241061Y-110491061I601041J601041D01*
G01*
X115241061Y-110491061D01*
G75*
G02*
X116443143Y-110491061I601041J-601041D01*
G01*
G37*
%TD.AperFunction*%
%TO.P,J2,4*%
%TO.N,Net-(J2-Pad4)*%
%TA.AperFunction,ComponentPad*%
G36*
G01*
X112851041Y-110491061D02*
X112851041Y-110491061D01*
G75*
G02*
X112851041Y-111693143I-601041J-601041D01*
G01*
X112851041Y-111693143D01*
G75*
G02*
X111648959Y-111693143I-601041J601041D01*
G01*
X111648959Y-111693143D01*
G75*
G02*
X111648959Y-110491061I601041J601041D01*
G01*
X111648959Y-110491061D01*
G75*
G02*
X112851041Y-110491061I601041J-601041D01*
G01*
G37*
%TD.AperFunction*%
%TO.P,J2,3*%
%TO.N,/SCLK*%
%TA.AperFunction,ComponentPad*%
G36*
G01*
X114647092Y-108695010D02*
X114647092Y-108695010D01*
G75*
G02*
X114647092Y-109897092I-601041J-601041D01*
G01*
X114647092Y-109897092D01*
G75*
G02*
X113445010Y-109897092I-601041J601041D01*
G01*
X113445010Y-109897092D01*
G75*
G02*
X113445010Y-108695010I601041J601041D01*
G01*
X113445010Y-108695010D01*
G75*
G02*
X114647092Y-108695010I601041J-601041D01*
G01*
G37*
%TD.AperFunction*%
%TO.P,J2,2*%
%TO.N,GND*%
%TA.AperFunction,ComponentPad*%
G36*
G01*
X111054990Y-108695010D02*
X111054990Y-108695010D01*
G75*
G02*
X111054990Y-109897092I-601041J-601041D01*
G01*
X111054990Y-109897092D01*
G75*
G02*
X109852908Y-109897092I-601041J601041D01*
G01*
X109852908Y-109897092D01*
G75*
G02*
X109852908Y-108695010I601041J601041D01*
G01*
X109852908Y-108695010D01*
G75*
G02*
X111054990Y-108695010I601041J-601041D01*
G01*
G37*
%TD.AperFunction*%
%TA.AperFunction,ComponentPad*%
D13*
%TO.P,J2,1*%
%TO.N,/MISO*%
G36*
X112250000Y-106297918D02*
G01*
X113452082Y-107500000D01*
X112250000Y-108702082D01*
X111047918Y-107500000D01*
X112250000Y-106297918D01*
G37*
%TD.AperFunction*%
%TD*%
D14*
%TO.P,H4,1*%
%TO.N,N/C*%
X127166726Y-116833274D03*
X126000000Y-116350000D03*
X124833274Y-116833274D03*
X124350000Y-118000000D03*
X124833274Y-119166726D03*
X126000000Y-119650000D03*
X127166726Y-119166726D03*
X127650000Y-118000000D03*
D15*
X126000000Y-118000000D03*
%TD*%
D14*
%TO.P,H3,1*%
%TO.N,N/C*%
X103166726Y-116833274D03*
X102000000Y-116350000D03*
X100833274Y-116833274D03*
X100350000Y-118000000D03*
X100833274Y-119166726D03*
X102000000Y-119650000D03*
X103166726Y-119166726D03*
X103650000Y-118000000D03*
D15*
X102000000Y-118000000D03*
%TD*%
D14*
%TO.P,H2,1*%
%TO.N,N/C*%
X127166726Y-92833274D03*
X126000000Y-92350000D03*
X124833274Y-92833274D03*
X124350000Y-94000000D03*
X124833274Y-95166726D03*
X126000000Y-95650000D03*
X127166726Y-95166726D03*
X127650000Y-94000000D03*
D15*
X126000000Y-94000000D03*
%TD*%
D14*
%TO.P,H1,1*%
%TO.N,N/C*%
X103166726Y-92833274D03*
X102000000Y-92350000D03*
X100833274Y-92833274D03*
X100350000Y-94000000D03*
X100833274Y-95166726D03*
X102000000Y-95650000D03*
X103166726Y-95166726D03*
X103650000Y-94000000D03*
D15*
X102000000Y-94000000D03*
%TD*%
D16*
%TO.P,U1,*%
%TO.N,*%
X121778175Y-98221825D03*
X106221825Y-113778175D03*
%TD*%
D17*
%TO.N,GND*%
X122750000Y-112500000D03*
X120500000Y-114750000D03*
X108250000Y-115250000D03*
X104750000Y-111750000D03*
X105000000Y-99750000D03*
X107750000Y-97000000D03*
X119750000Y-96750000D03*
X123000000Y-100250000D03*
%TD*%
D18*
%TO.N,GND*%
G36*
X124037151Y-92389131D02*
G01*
X123760602Y-92803017D01*
X123570111Y-93262901D01*
X123473000Y-93751112D01*
X123473000Y-94248888D01*
X123570111Y-94737099D01*
X123760602Y-95196983D01*
X124037151Y-95610869D01*
X124389131Y-95962849D01*
X124803017Y-96239398D01*
X125262901Y-96429889D01*
X125751112Y-96527000D01*
X126248888Y-96527000D01*
X126737099Y-96429889D01*
X127196983Y-96239398D01*
X127610869Y-95962849D01*
X127623000Y-95950718D01*
X127623001Y-116049283D01*
X127610869Y-116037151D01*
X127196983Y-115760602D01*
X126737099Y-115570111D01*
X126248888Y-115473000D01*
X125751112Y-115473000D01*
X125262901Y-115570111D01*
X124803017Y-115760602D01*
X124389131Y-116037151D01*
X124037151Y-116389131D01*
X123760602Y-116803017D01*
X123570111Y-117262901D01*
X123473000Y-117751112D01*
X123473000Y-118248888D01*
X123570111Y-118737099D01*
X123760602Y-119196983D01*
X124037151Y-119610869D01*
X124049282Y-119623000D01*
X103950718Y-119623000D01*
X103962849Y-119610869D01*
X104239398Y-119196983D01*
X104429889Y-118737099D01*
X104527000Y-118248888D01*
X104527000Y-117751112D01*
X104429889Y-117262901D01*
X104239398Y-116803017D01*
X103962849Y-116389131D01*
X103610869Y-116037151D01*
X103196983Y-115760602D01*
X102737099Y-115570111D01*
X102248888Y-115473000D01*
X101751112Y-115473000D01*
X101262901Y-115570111D01*
X100803017Y-115760602D01*
X100389131Y-116037151D01*
X100377000Y-116049282D01*
X100377000Y-113300000D01*
X100461928Y-113300000D01*
X100474188Y-113424482D01*
X100510498Y-113544180D01*
X100569463Y-113654494D01*
X100648815Y-113751185D01*
X100745506Y-113830537D01*
X100798768Y-113859007D01*
X100773000Y-113988548D01*
X100773000Y-114151452D01*
X100804782Y-114311227D01*
X100867123Y-114461731D01*
X100957628Y-114597181D01*
X101072819Y-114712372D01*
X101208269Y-114802877D01*
X101358773Y-114865218D01*
X101518548Y-114897000D01*
X101681452Y-114897000D01*
X101841227Y-114865218D01*
X101991731Y-114802877D01*
X102127181Y-114712372D01*
X102242372Y-114597181D01*
X102332877Y-114461731D01*
X102395218Y-114311227D01*
X102427000Y-114151452D01*
X102427000Y-113988548D01*
X102401232Y-113859007D01*
X102454494Y-113830537D01*
X102551185Y-113751185D01*
X102630537Y-113654494D01*
X102689502Y-113544180D01*
X102725812Y-113424482D01*
X102738072Y-113300000D01*
X102735000Y-113085750D01*
X102576250Y-112927000D01*
X101727000Y-112927000D01*
X101727000Y-112947000D01*
X101473000Y-112947000D01*
X101473000Y-112927000D01*
X100623750Y-112927000D01*
X100465000Y-113085750D01*
X100461928Y-113300000D01*
X100377000Y-113300000D01*
X100377000Y-112300000D01*
X100461928Y-112300000D01*
X100465000Y-112514250D01*
X100623750Y-112673000D01*
X101473000Y-112673000D01*
X101473000Y-111823750D01*
X101727000Y-111823750D01*
X101727000Y-112673000D01*
X102576250Y-112673000D01*
X102735000Y-112514250D01*
X102738072Y-112300000D01*
X102725812Y-112175518D01*
X102689502Y-112055820D01*
X102630537Y-111945506D01*
X102551185Y-111848815D01*
X102454494Y-111769463D01*
X102344180Y-111710498D01*
X102224482Y-111674188D01*
X102100000Y-111661928D01*
X101885750Y-111665000D01*
X101727000Y-111823750D01*
X101473000Y-111823750D01*
X101314250Y-111665000D01*
X101100000Y-111661928D01*
X100975518Y-111674188D01*
X100855820Y-111710498D01*
X100745506Y-111769463D01*
X100648815Y-111848815D01*
X100569463Y-111945506D01*
X100510498Y-112055820D01*
X100474188Y-112175518D01*
X100461928Y-112300000D01*
X100377000Y-112300000D01*
X100377000Y-106033146D01*
X100942238Y-106033146D01*
X100942701Y-106038040D01*
X100956647Y-106175336D01*
X100962941Y-106206550D01*
X100968821Y-106237970D01*
X100970226Y-106242680D01*
X101010574Y-106374652D01*
X101022829Y-106404094D01*
X101034681Y-106433726D01*
X101036973Y-106438074D01*
X101102186Y-106559696D01*
X101119911Y-106586172D01*
X101137311Y-106612967D01*
X101140405Y-106616786D01*
X101142084Y-106618830D01*
X101150013Y-106644968D01*
X101185021Y-106710462D01*
X101220327Y-106753483D01*
X106761718Y-112294874D01*
X106681819Y-112261779D01*
X106377146Y-112201175D01*
X106066504Y-112201175D01*
X105761831Y-112261779D01*
X105474836Y-112380656D01*
X105216546Y-112553239D01*
X104996889Y-112772896D01*
X104824306Y-113031186D01*
X104705429Y-113318181D01*
X104644825Y-113622854D01*
X104644825Y-113933496D01*
X104705429Y-114238169D01*
X104824306Y-114525164D01*
X104996889Y-114783454D01*
X105216546Y-115003111D01*
X105474836Y-115175694D01*
X105761831Y-115294571D01*
X106066504Y-115355175D01*
X106377146Y-115355175D01*
X106681819Y-115294571D01*
X106968814Y-115175694D01*
X107227104Y-115003111D01*
X107446761Y-114783454D01*
X107619344Y-114525164D01*
X107738221Y-114238169D01*
X107798825Y-113933496D01*
X107798825Y-113622854D01*
X107738221Y-113318181D01*
X107705126Y-113238283D01*
X113246516Y-118779673D01*
X113289537Y-118814979D01*
X113355031Y-118849987D01*
X113382283Y-118858254D01*
X113389231Y-118863880D01*
X113415843Y-118881427D01*
X113442252Y-118899375D01*
X113446579Y-118901694D01*
X113446583Y-118901697D01*
X113446587Y-118901699D01*
X113568658Y-118966060D01*
X113598158Y-118978099D01*
X113627564Y-118990581D01*
X113632264Y-118992017D01*
X113764515Y-119031443D01*
X113795790Y-119037522D01*
X113827062Y-119044055D01*
X113831952Y-119044552D01*
X113969342Y-119057539D01*
X114001238Y-119057428D01*
X114033146Y-119057762D01*
X114038040Y-119057299D01*
X114175336Y-119043353D01*
X114206550Y-119037059D01*
X114237970Y-119031179D01*
X114242680Y-119029774D01*
X114374652Y-118989426D01*
X114404094Y-118977171D01*
X114433726Y-118965319D01*
X114438074Y-118963027D01*
X114559696Y-118897814D01*
X114586172Y-118880089D01*
X114612967Y-118862689D01*
X114616786Y-118859595D01*
X114618828Y-118857918D01*
X114644969Y-118849988D01*
X114710463Y-118814980D01*
X114753484Y-118779674D01*
X118279673Y-115253485D01*
X118314980Y-115210464D01*
X118349987Y-115144970D01*
X118358158Y-115118034D01*
X118414639Y-115047281D01*
X118432017Y-115020521D01*
X118449761Y-114994016D01*
X118452053Y-114989668D01*
X118547317Y-114805887D01*
X118559158Y-114776282D01*
X118571427Y-114746810D01*
X118572831Y-114742099D01*
X118628244Y-114551362D01*
X121300467Y-111879139D01*
X121307851Y-111877757D01*
X121312562Y-111876352D01*
X121510521Y-111815830D01*
X121539927Y-111803590D01*
X121569596Y-111791723D01*
X121573944Y-111789430D01*
X121756378Y-111691610D01*
X121782878Y-111673869D01*
X121809646Y-111656486D01*
X121813465Y-111653393D01*
X121971659Y-111523450D01*
X121986674Y-111511128D01*
X126761127Y-106736674D01*
X126770817Y-106724868D01*
X126773912Y-106721815D01*
X126777032Y-106718017D01*
X126863880Y-106610769D01*
X126881427Y-106584157D01*
X126899375Y-106557748D01*
X126901694Y-106553421D01*
X126901697Y-106553417D01*
X126901699Y-106553413D01*
X126966060Y-106431342D01*
X126978119Y-106401793D01*
X126990581Y-106372436D01*
X126992017Y-106367736D01*
X127031443Y-106235485D01*
X127037522Y-106204210D01*
X127044055Y-106172938D01*
X127044552Y-106168048D01*
X127057539Y-106030658D01*
X127057428Y-105998761D01*
X127057762Y-105966853D01*
X127057299Y-105961960D01*
X127043353Y-105824663D01*
X127037058Y-105793442D01*
X127031179Y-105762030D01*
X127029774Y-105757320D01*
X126989426Y-105625348D01*
X126977175Y-105595917D01*
X126965319Y-105566274D01*
X126963026Y-105561926D01*
X126963026Y-105561925D01*
X126963023Y-105561921D01*
X126897814Y-105440303D01*
X126880083Y-105413818D01*
X126862689Y-105387033D01*
X126859595Y-105383214D01*
X126857916Y-105381170D01*
X126849987Y-105355031D01*
X126814979Y-105289537D01*
X126779673Y-105246516D01*
X121238284Y-99705127D01*
X121318181Y-99738221D01*
X121622854Y-99798825D01*
X121933496Y-99798825D01*
X122238169Y-99738221D01*
X122525164Y-99619344D01*
X122783454Y-99446761D01*
X123003111Y-99227104D01*
X123175694Y-98968814D01*
X123294571Y-98681819D01*
X123355175Y-98377146D01*
X123355175Y-98066504D01*
X123294571Y-97761831D01*
X123175694Y-97474836D01*
X123003111Y-97216546D01*
X122783454Y-96996889D01*
X122525164Y-96824306D01*
X122238169Y-96705429D01*
X121933496Y-96644825D01*
X121622854Y-96644825D01*
X121318181Y-96705429D01*
X121031186Y-96824306D01*
X120772896Y-96996889D01*
X120553239Y-97216546D01*
X120380656Y-97474836D01*
X120261779Y-97761831D01*
X120201175Y-98066504D01*
X120201175Y-98377146D01*
X120261779Y-98681819D01*
X120294873Y-98761716D01*
X114753484Y-93220326D01*
X114710463Y-93185020D01*
X114644969Y-93150012D01*
X114617715Y-93141745D01*
X114610769Y-93136120D01*
X114584157Y-93118573D01*
X114557748Y-93100625D01*
X114553421Y-93098306D01*
X114553417Y-93098303D01*
X114553413Y-93098301D01*
X114431341Y-93033940D01*
X114401881Y-93021918D01*
X114372437Y-93009419D01*
X114367736Y-93007983D01*
X114235485Y-92968557D01*
X114204239Y-92962483D01*
X114172937Y-92955944D01*
X114168047Y-92955448D01*
X114030658Y-92942461D01*
X113998761Y-92942572D01*
X113966853Y-92942238D01*
X113961960Y-92942701D01*
X113824663Y-92956647D01*
X113793442Y-92962942D01*
X113762030Y-92968821D01*
X113757320Y-92970226D01*
X113625348Y-93010574D01*
X113595917Y-93022825D01*
X113566274Y-93034681D01*
X113561930Y-93036972D01*
X113561925Y-93036974D01*
X113561921Y-93036977D01*
X113440303Y-93102186D01*
X113413818Y-93119917D01*
X113387033Y-93137311D01*
X113383214Y-93140405D01*
X113277182Y-93227501D01*
X113263326Y-93238873D01*
X109738873Y-96763327D01*
X109727338Y-96777382D01*
X109717599Y-96787121D01*
X109714506Y-96790941D01*
X109585361Y-96952719D01*
X109567983Y-96979479D01*
X109550239Y-97005984D01*
X109547947Y-97010332D01*
X109452683Y-97194113D01*
X109440836Y-97223731D01*
X109428573Y-97253191D01*
X109427169Y-97257901D01*
X109371755Y-97448639D01*
X106699533Y-100120861D01*
X106692149Y-100122243D01*
X106687438Y-100123648D01*
X106489479Y-100184170D01*
X106460073Y-100196410D01*
X106430404Y-100208277D01*
X106426057Y-100210570D01*
X106243622Y-100308390D01*
X106217114Y-100326136D01*
X106190354Y-100343514D01*
X106186535Y-100346607D01*
X106131169Y-100392085D01*
X106105031Y-100400014D01*
X106039537Y-100435021D01*
X105996516Y-100470328D01*
X101220327Y-105246517D01*
X101185021Y-105289538D01*
X101150013Y-105355032D01*
X101141747Y-105382283D01*
X101136120Y-105389231D01*
X101118573Y-105415843D01*
X101100625Y-105442252D01*
X101098306Y-105446579D01*
X101098303Y-105446583D01*
X101098303Y-105446584D01*
X101033940Y-105568659D01*
X101021918Y-105598119D01*
X101009419Y-105627563D01*
X101007983Y-105632264D01*
X100968557Y-105764515D01*
X100962483Y-105795761D01*
X100955944Y-105827063D01*
X100955448Y-105831953D01*
X100942461Y-105969342D01*
X100942572Y-106001238D01*
X100942238Y-106033146D01*
X100377000Y-106033146D01*
X100377000Y-95950718D01*
X100389131Y-95962849D01*
X100803017Y-96239398D01*
X101262901Y-96429889D01*
X101751112Y-96527000D01*
X102248888Y-96527000D01*
X102737099Y-96429889D01*
X103196983Y-96239398D01*
X103610869Y-95962849D01*
X103962849Y-95610869D01*
X104239398Y-95196983D01*
X104429889Y-94737099D01*
X104527000Y-94248888D01*
X104527000Y-93751112D01*
X104429889Y-93262901D01*
X104239398Y-92803017D01*
X103962849Y-92389131D01*
X103950718Y-92377000D01*
X124049282Y-92377000D01*
X124037151Y-92389131D01*
G37*
X124037151Y-92389131D02*
X123760602Y-92803017D01*
X123570111Y-93262901D01*
X123473000Y-93751112D01*
X123473000Y-94248888D01*
X123570111Y-94737099D01*
X123760602Y-95196983D01*
X124037151Y-95610869D01*
X124389131Y-95962849D01*
X124803017Y-96239398D01*
X125262901Y-96429889D01*
X125751112Y-96527000D01*
X126248888Y-96527000D01*
X126737099Y-96429889D01*
X127196983Y-96239398D01*
X127610869Y-95962849D01*
X127623000Y-95950718D01*
X127623001Y-116049283D01*
X127610869Y-116037151D01*
X127196983Y-115760602D01*
X126737099Y-115570111D01*
X126248888Y-115473000D01*
X125751112Y-115473000D01*
X125262901Y-115570111D01*
X124803017Y-115760602D01*
X124389131Y-116037151D01*
X124037151Y-116389131D01*
X123760602Y-116803017D01*
X123570111Y-117262901D01*
X123473000Y-117751112D01*
X123473000Y-118248888D01*
X123570111Y-118737099D01*
X123760602Y-119196983D01*
X124037151Y-119610869D01*
X124049282Y-119623000D01*
X103950718Y-119623000D01*
X103962849Y-119610869D01*
X104239398Y-119196983D01*
X104429889Y-118737099D01*
X104527000Y-118248888D01*
X104527000Y-117751112D01*
X104429889Y-117262901D01*
X104239398Y-116803017D01*
X103962849Y-116389131D01*
X103610869Y-116037151D01*
X103196983Y-115760602D01*
X102737099Y-115570111D01*
X102248888Y-115473000D01*
X101751112Y-115473000D01*
X101262901Y-115570111D01*
X100803017Y-115760602D01*
X100389131Y-116037151D01*
X100377000Y-116049282D01*
X100377000Y-113300000D01*
X100461928Y-113300000D01*
X100474188Y-113424482D01*
X100510498Y-113544180D01*
X100569463Y-113654494D01*
X100648815Y-113751185D01*
X100745506Y-113830537D01*
X100798768Y-113859007D01*
X100773000Y-113988548D01*
X100773000Y-114151452D01*
X100804782Y-114311227D01*
X100867123Y-114461731D01*
X100957628Y-114597181D01*
X101072819Y-114712372D01*
X101208269Y-114802877D01*
X101358773Y-114865218D01*
X101518548Y-114897000D01*
X101681452Y-114897000D01*
X101841227Y-114865218D01*
X101991731Y-114802877D01*
X102127181Y-114712372D01*
X102242372Y-114597181D01*
X102332877Y-114461731D01*
X102395218Y-114311227D01*
X102427000Y-114151452D01*
X102427000Y-113988548D01*
X102401232Y-113859007D01*
X102454494Y-113830537D01*
X102551185Y-113751185D01*
X102630537Y-113654494D01*
X102689502Y-113544180D01*
X102725812Y-113424482D01*
X102738072Y-113300000D01*
X102735000Y-113085750D01*
X102576250Y-112927000D01*
X101727000Y-112927000D01*
X101727000Y-112947000D01*
X101473000Y-112947000D01*
X101473000Y-112927000D01*
X100623750Y-112927000D01*
X100465000Y-113085750D01*
X100461928Y-113300000D01*
X100377000Y-113300000D01*
X100377000Y-112300000D01*
X100461928Y-112300000D01*
X100465000Y-112514250D01*
X100623750Y-112673000D01*
X101473000Y-112673000D01*
X101473000Y-111823750D01*
X101727000Y-111823750D01*
X101727000Y-112673000D01*
X102576250Y-112673000D01*
X102735000Y-112514250D01*
X102738072Y-112300000D01*
X102725812Y-112175518D01*
X102689502Y-112055820D01*
X102630537Y-111945506D01*
X102551185Y-111848815D01*
X102454494Y-111769463D01*
X102344180Y-111710498D01*
X102224482Y-111674188D01*
X102100000Y-111661928D01*
X101885750Y-111665000D01*
X101727000Y-111823750D01*
X101473000Y-111823750D01*
X101314250Y-111665000D01*
X101100000Y-111661928D01*
X100975518Y-111674188D01*
X100855820Y-111710498D01*
X100745506Y-111769463D01*
X100648815Y-111848815D01*
X100569463Y-111945506D01*
X100510498Y-112055820D01*
X100474188Y-112175518D01*
X100461928Y-112300000D01*
X100377000Y-112300000D01*
X100377000Y-106033146D01*
X100942238Y-106033146D01*
X100942701Y-106038040D01*
X100956647Y-106175336D01*
X100962941Y-106206550D01*
X100968821Y-106237970D01*
X100970226Y-106242680D01*
X101010574Y-106374652D01*
X101022829Y-106404094D01*
X101034681Y-106433726D01*
X101036973Y-106438074D01*
X101102186Y-106559696D01*
X101119911Y-106586172D01*
X101137311Y-106612967D01*
X101140405Y-106616786D01*
X101142084Y-106618830D01*
X101150013Y-106644968D01*
X101185021Y-106710462D01*
X101220327Y-106753483D01*
X106761718Y-112294874D01*
X106681819Y-112261779D01*
X106377146Y-112201175D01*
X106066504Y-112201175D01*
X105761831Y-112261779D01*
X105474836Y-112380656D01*
X105216546Y-112553239D01*
X104996889Y-112772896D01*
X104824306Y-113031186D01*
X104705429Y-113318181D01*
X104644825Y-113622854D01*
X104644825Y-113933496D01*
X104705429Y-114238169D01*
X104824306Y-114525164D01*
X104996889Y-114783454D01*
X105216546Y-115003111D01*
X105474836Y-115175694D01*
X105761831Y-115294571D01*
X106066504Y-115355175D01*
X106377146Y-115355175D01*
X106681819Y-115294571D01*
X106968814Y-115175694D01*
X107227104Y-115003111D01*
X107446761Y-114783454D01*
X107619344Y-114525164D01*
X107738221Y-114238169D01*
X107798825Y-113933496D01*
X107798825Y-113622854D01*
X107738221Y-113318181D01*
X107705126Y-113238283D01*
X113246516Y-118779673D01*
X113289537Y-118814979D01*
X113355031Y-118849987D01*
X113382283Y-118858254D01*
X113389231Y-118863880D01*
X113415843Y-118881427D01*
X113442252Y-118899375D01*
X113446579Y-118901694D01*
X113446583Y-118901697D01*
X113446587Y-118901699D01*
X113568658Y-118966060D01*
X113598158Y-118978099D01*
X113627564Y-118990581D01*
X113632264Y-118992017D01*
X113764515Y-119031443D01*
X113795790Y-119037522D01*
X113827062Y-119044055D01*
X113831952Y-119044552D01*
X113969342Y-119057539D01*
X114001238Y-119057428D01*
X114033146Y-119057762D01*
X114038040Y-119057299D01*
X114175336Y-119043353D01*
X114206550Y-119037059D01*
X114237970Y-119031179D01*
X114242680Y-119029774D01*
X114374652Y-118989426D01*
X114404094Y-118977171D01*
X114433726Y-118965319D01*
X114438074Y-118963027D01*
X114559696Y-118897814D01*
X114586172Y-118880089D01*
X114612967Y-118862689D01*
X114616786Y-118859595D01*
X114618828Y-118857918D01*
X114644969Y-118849988D01*
X114710463Y-118814980D01*
X114753484Y-118779674D01*
X118279673Y-115253485D01*
X118314980Y-115210464D01*
X118349987Y-115144970D01*
X118358158Y-115118034D01*
X118414639Y-115047281D01*
X118432017Y-115020521D01*
X118449761Y-114994016D01*
X118452053Y-114989668D01*
X118547317Y-114805887D01*
X118559158Y-114776282D01*
X118571427Y-114746810D01*
X118572831Y-114742099D01*
X118628244Y-114551362D01*
X121300467Y-111879139D01*
X121307851Y-111877757D01*
X121312562Y-111876352D01*
X121510521Y-111815830D01*
X121539927Y-111803590D01*
X121569596Y-111791723D01*
X121573944Y-111789430D01*
X121756378Y-111691610D01*
X121782878Y-111673869D01*
X121809646Y-111656486D01*
X121813465Y-111653393D01*
X121971659Y-111523450D01*
X121986674Y-111511128D01*
X126761127Y-106736674D01*
X126770817Y-106724868D01*
X126773912Y-106721815D01*
X126777032Y-106718017D01*
X126863880Y-106610769D01*
X126881427Y-106584157D01*
X126899375Y-106557748D01*
X126901694Y-106553421D01*
X126901697Y-106553417D01*
X126901699Y-106553413D01*
X126966060Y-106431342D01*
X126978119Y-106401793D01*
X126990581Y-106372436D01*
X126992017Y-106367736D01*
X127031443Y-106235485D01*
X127037522Y-106204210D01*
X127044055Y-106172938D01*
X127044552Y-106168048D01*
X127057539Y-106030658D01*
X127057428Y-105998761D01*
X127057762Y-105966853D01*
X127057299Y-105961960D01*
X127043353Y-105824663D01*
X127037058Y-105793442D01*
X127031179Y-105762030D01*
X127029774Y-105757320D01*
X126989426Y-105625348D01*
X126977175Y-105595917D01*
X126965319Y-105566274D01*
X126963026Y-105561926D01*
X126963026Y-105561925D01*
X126963023Y-105561921D01*
X126897814Y-105440303D01*
X126880083Y-105413818D01*
X126862689Y-105387033D01*
X126859595Y-105383214D01*
X126857916Y-105381170D01*
X126849987Y-105355031D01*
X126814979Y-105289537D01*
X126779673Y-105246516D01*
X121238284Y-99705127D01*
X121318181Y-99738221D01*
X121622854Y-99798825D01*
X121933496Y-99798825D01*
X122238169Y-99738221D01*
X122525164Y-99619344D01*
X122783454Y-99446761D01*
X123003111Y-99227104D01*
X123175694Y-98968814D01*
X123294571Y-98681819D01*
X123355175Y-98377146D01*
X123355175Y-98066504D01*
X123294571Y-97761831D01*
X123175694Y-97474836D01*
X123003111Y-97216546D01*
X122783454Y-96996889D01*
X122525164Y-96824306D01*
X122238169Y-96705429D01*
X121933496Y-96644825D01*
X121622854Y-96644825D01*
X121318181Y-96705429D01*
X121031186Y-96824306D01*
X120772896Y-96996889D01*
X120553239Y-97216546D01*
X120380656Y-97474836D01*
X120261779Y-97761831D01*
X120201175Y-98066504D01*
X120201175Y-98377146D01*
X120261779Y-98681819D01*
X120294873Y-98761716D01*
X114753484Y-93220326D01*
X114710463Y-93185020D01*
X114644969Y-93150012D01*
X114617715Y-93141745D01*
X114610769Y-93136120D01*
X114584157Y-93118573D01*
X114557748Y-93100625D01*
X114553421Y-93098306D01*
X114553417Y-93098303D01*
X114553413Y-93098301D01*
X114431341Y-93033940D01*
X114401881Y-93021918D01*
X114372437Y-93009419D01*
X114367736Y-93007983D01*
X114235485Y-92968557D01*
X114204239Y-92962483D01*
X114172937Y-92955944D01*
X114168047Y-92955448D01*
X114030658Y-92942461D01*
X113998761Y-92942572D01*
X113966853Y-92942238D01*
X113961960Y-92942701D01*
X113824663Y-92956647D01*
X113793442Y-92962942D01*
X113762030Y-92968821D01*
X113757320Y-92970226D01*
X113625348Y-93010574D01*
X113595917Y-93022825D01*
X113566274Y-93034681D01*
X113561930Y-93036972D01*
X113561925Y-93036974D01*
X113561921Y-93036977D01*
X113440303Y-93102186D01*
X113413818Y-93119917D01*
X113387033Y-93137311D01*
X113383214Y-93140405D01*
X113277182Y-93227501D01*
X113263326Y-93238873D01*
X109738873Y-96763327D01*
X109727338Y-96777382D01*
X109717599Y-96787121D01*
X109714506Y-96790941D01*
X109585361Y-96952719D01*
X109567983Y-96979479D01*
X109550239Y-97005984D01*
X109547947Y-97010332D01*
X109452683Y-97194113D01*
X109440836Y-97223731D01*
X109428573Y-97253191D01*
X109427169Y-97257901D01*
X109371755Y-97448639D01*
X106699533Y-100120861D01*
X106692149Y-100122243D01*
X106687438Y-100123648D01*
X106489479Y-100184170D01*
X106460073Y-100196410D01*
X106430404Y-100208277D01*
X106426057Y-100210570D01*
X106243622Y-100308390D01*
X106217114Y-100326136D01*
X106190354Y-100343514D01*
X106186535Y-100346607D01*
X106131169Y-100392085D01*
X106105031Y-100400014D01*
X106039537Y-100435021D01*
X105996516Y-100470328D01*
X101220327Y-105246517D01*
X101185021Y-105289538D01*
X101150013Y-105355032D01*
X101141747Y-105382283D01*
X101136120Y-105389231D01*
X101118573Y-105415843D01*
X101100625Y-105442252D01*
X101098306Y-105446579D01*
X101098303Y-105446583D01*
X101098303Y-105446584D01*
X101033940Y-105568659D01*
X101021918Y-105598119D01*
X101009419Y-105627563D01*
X101007983Y-105632264D01*
X100968557Y-105764515D01*
X100962483Y-105795761D01*
X100955944Y-105827063D01*
X100955448Y-105831953D01*
X100942461Y-105969342D01*
X100942572Y-106001238D01*
X100942238Y-106033146D01*
X100377000Y-106033146D01*
X100377000Y-95950718D01*
X100389131Y-95962849D01*
X100803017Y-96239398D01*
X101262901Y-96429889D01*
X101751112Y-96527000D01*
X102248888Y-96527000D01*
X102737099Y-96429889D01*
X103196983Y-96239398D01*
X103610869Y-95962849D01*
X103962849Y-95610869D01*
X104239398Y-95196983D01*
X104429889Y-94737099D01*
X104527000Y-94248888D01*
X104527000Y-93751112D01*
X104429889Y-93262901D01*
X104239398Y-92803017D01*
X103962849Y-92389131D01*
X103950718Y-92377000D01*
X124049282Y-92377000D01*
X124037151Y-92389131D01*
G36*
X123466841Y-106000000D02*
G01*
X119970327Y-109496517D01*
X119935021Y-109539538D01*
X119900013Y-109605032D01*
X119891843Y-109631965D01*
X119835361Y-109702719D01*
X119817983Y-109729479D01*
X119800239Y-109755984D01*
X119797947Y-109760332D01*
X119702683Y-109944113D01*
X119690836Y-109973731D01*
X119678573Y-110003191D01*
X119677169Y-110007901D01*
X119621755Y-110198639D01*
X116949533Y-112870861D01*
X116942149Y-112872243D01*
X116937438Y-112873648D01*
X116739479Y-112934170D01*
X116710073Y-112946410D01*
X116680404Y-112958277D01*
X116676057Y-112960570D01*
X116493622Y-113058390D01*
X116467114Y-113076136D01*
X116440354Y-113093514D01*
X116436535Y-113096607D01*
X116277442Y-113227288D01*
X116263326Y-113238872D01*
X114017678Y-115484520D01*
X111305388Y-112772230D01*
X112869051Y-112772230D01*
X112869051Y-113004078D01*
X112914282Y-113231472D01*
X113003007Y-113445673D01*
X113131815Y-113638448D01*
X113295757Y-113802390D01*
X113488532Y-113931198D01*
X113702733Y-114019923D01*
X113930127Y-114065154D01*
X114161975Y-114065154D01*
X114389369Y-114019923D01*
X114603570Y-113931198D01*
X114796345Y-113802390D01*
X114960287Y-113638448D01*
X115089095Y-113445673D01*
X115177820Y-113231472D01*
X115223051Y-113004078D01*
X115223051Y-112772230D01*
X115177820Y-112544836D01*
X115089095Y-112330635D01*
X114960287Y-112137860D01*
X114796345Y-111973918D01*
X114603570Y-111845110D01*
X114389369Y-111756385D01*
X114161975Y-111711154D01*
X113930127Y-111711154D01*
X113702733Y-111756385D01*
X113488532Y-111845110D01*
X113295757Y-111973918D01*
X113131815Y-112137860D01*
X113003007Y-112330635D01*
X112914282Y-112544836D01*
X112869051Y-112772230D01*
X111305388Y-112772230D01*
X107898024Y-109364866D01*
X108970540Y-109364866D01*
X109012469Y-109652943D01*
X109109793Y-109927304D01*
X109182312Y-110062969D01*
X109430656Y-110139739D01*
X110274344Y-109296051D01*
X109430190Y-108451897D01*
X109182308Y-108529130D01*
X109057124Y-108791951D01*
X108985618Y-109074145D01*
X108970540Y-109364866D01*
X107898024Y-109364866D01*
X106805450Y-108272292D01*
X109609795Y-108272292D01*
X110453949Y-109116446D01*
X110468092Y-109102304D01*
X110647697Y-109281909D01*
X110633554Y-109296051D01*
X110647697Y-109310194D01*
X110468092Y-109489799D01*
X110453949Y-109475656D01*
X109610261Y-110319344D01*
X109687031Y-110567688D01*
X109822696Y-110640207D01*
X110097057Y-110737531D01*
X110385134Y-110779460D01*
X110675855Y-110764382D01*
X110958049Y-110692876D01*
X111186451Y-110584086D01*
X111118231Y-110748784D01*
X111073000Y-110976178D01*
X111073000Y-111208026D01*
X111118231Y-111435420D01*
X111206956Y-111649621D01*
X111335764Y-111842396D01*
X111499706Y-112006338D01*
X111692481Y-112135146D01*
X111906682Y-112223871D01*
X112134076Y-112269102D01*
X112365924Y-112269102D01*
X112593318Y-112223871D01*
X112807519Y-112135146D01*
X113000294Y-112006338D01*
X113164236Y-111842396D01*
X113293044Y-111649621D01*
X113381769Y-111435420D01*
X113427000Y-111208026D01*
X113427000Y-110976178D01*
X114665102Y-110976178D01*
X114665102Y-111208026D01*
X114710333Y-111435420D01*
X114799058Y-111649621D01*
X114927866Y-111842396D01*
X115091808Y-112006338D01*
X115284583Y-112135146D01*
X115498784Y-112223871D01*
X115726178Y-112269102D01*
X115958026Y-112269102D01*
X116185420Y-112223871D01*
X116399621Y-112135146D01*
X116592396Y-112006338D01*
X116756338Y-111842396D01*
X116885146Y-111649621D01*
X116973871Y-111435420D01*
X117019102Y-111208026D01*
X117019102Y-110976178D01*
X116973871Y-110748784D01*
X116885146Y-110534583D01*
X116756338Y-110341808D01*
X116592396Y-110177866D01*
X116399621Y-110049058D01*
X116185420Y-109960333D01*
X115958026Y-109915102D01*
X115726178Y-109915102D01*
X115498784Y-109960333D01*
X115284583Y-110049058D01*
X115091808Y-110177866D01*
X114927866Y-110341808D01*
X114799058Y-110534583D01*
X114710333Y-110748784D01*
X114665102Y-110976178D01*
X113427000Y-110976178D01*
X113381769Y-110748784D01*
X113293044Y-110534583D01*
X113164236Y-110341808D01*
X113000294Y-110177866D01*
X112807519Y-110049058D01*
X112593318Y-109960333D01*
X112365924Y-109915102D01*
X112134076Y-109915102D01*
X111906682Y-109960333D01*
X111741984Y-110028553D01*
X111850774Y-109800151D01*
X111922280Y-109517957D01*
X111937358Y-109227236D01*
X111930502Y-109180127D01*
X112869051Y-109180127D01*
X112869051Y-109411975D01*
X112914282Y-109639369D01*
X113003007Y-109853570D01*
X113131815Y-110046345D01*
X113295757Y-110210287D01*
X113488532Y-110339095D01*
X113702733Y-110427820D01*
X113930127Y-110473051D01*
X114161975Y-110473051D01*
X114389369Y-110427820D01*
X114603570Y-110339095D01*
X114796345Y-110210287D01*
X114960287Y-110046345D01*
X115089095Y-109853570D01*
X115177820Y-109639369D01*
X115223051Y-109411975D01*
X115223051Y-109180127D01*
X115177820Y-108952733D01*
X115089095Y-108738532D01*
X114960287Y-108545757D01*
X114796345Y-108381815D01*
X114603570Y-108253007D01*
X114389369Y-108164282D01*
X114161975Y-108119051D01*
X113930127Y-108119051D01*
X113702733Y-108164282D01*
X113488532Y-108253007D01*
X113295757Y-108381815D01*
X113131815Y-108545757D01*
X113003007Y-108738532D01*
X112914282Y-108952733D01*
X112869051Y-109180127D01*
X111930502Y-109180127D01*
X111895429Y-108939159D01*
X111825633Y-108742401D01*
X112017657Y-108934425D01*
X112067450Y-108975288D01*
X112124257Y-109005652D01*
X112185897Y-109024350D01*
X112250000Y-109030664D01*
X112314103Y-109024350D01*
X112375743Y-109005652D01*
X112432550Y-108975288D01*
X112482343Y-108934425D01*
X113684425Y-107732343D01*
X113725288Y-107682550D01*
X113755652Y-107625743D01*
X113774350Y-107564103D01*
X113780664Y-107500000D01*
X113774350Y-107435897D01*
X113755652Y-107374257D01*
X113725288Y-107317450D01*
X113684425Y-107267657D01*
X112482343Y-106065575D01*
X112432550Y-106024712D01*
X112375743Y-105994348D01*
X112314103Y-105975650D01*
X112250000Y-105969336D01*
X112185897Y-105975650D01*
X112124257Y-105994348D01*
X112067450Y-106024712D01*
X112017657Y-106065575D01*
X110815575Y-107267657D01*
X110774712Y-107317450D01*
X110744348Y-107374257D01*
X110725650Y-107435897D01*
X110719336Y-107500000D01*
X110725650Y-107564103D01*
X110744348Y-107625743D01*
X110774712Y-107682550D01*
X110815575Y-107732343D01*
X111007599Y-107924367D01*
X110810841Y-107854571D01*
X110522764Y-107812642D01*
X110232043Y-107827720D01*
X109949849Y-107899226D01*
X109687028Y-108024410D01*
X109609795Y-108272292D01*
X106805450Y-108272292D01*
X104533158Y-106000000D01*
X108029673Y-102503484D01*
X108064979Y-102460463D01*
X108099987Y-102394969D01*
X108108157Y-102368035D01*
X108164639Y-102297281D01*
X108182017Y-102270521D01*
X108199761Y-102244016D01*
X108202053Y-102239668D01*
X108297317Y-102055887D01*
X108309158Y-102026282D01*
X108321427Y-101996810D01*
X108322831Y-101992099D01*
X108371376Y-101825000D01*
X110996418Y-101825000D01*
X110996418Y-102675000D01*
X111002732Y-102739103D01*
X111021430Y-102800743D01*
X111051794Y-102857550D01*
X111092657Y-102907343D01*
X111142450Y-102948206D01*
X111199257Y-102978570D01*
X111260897Y-102997268D01*
X111325000Y-103003582D01*
X112175000Y-103003582D01*
X112239103Y-102997268D01*
X112300743Y-102978570D01*
X112357550Y-102948206D01*
X112407343Y-102907343D01*
X112448206Y-102857550D01*
X112478570Y-102800743D01*
X112497268Y-102739103D01*
X112503582Y-102675000D01*
X112503582Y-101825000D01*
X112996418Y-101825000D01*
X112996418Y-102675000D01*
X113002732Y-102739103D01*
X113021430Y-102800743D01*
X113051794Y-102857550D01*
X113092657Y-102907343D01*
X113142450Y-102948206D01*
X113199257Y-102978570D01*
X113260897Y-102997268D01*
X113325000Y-103003582D01*
X114175000Y-103003582D01*
X114239103Y-102997268D01*
X114300743Y-102978570D01*
X114357550Y-102948206D01*
X114407343Y-102907343D01*
X114448206Y-102857550D01*
X114478570Y-102800743D01*
X114497268Y-102739103D01*
X114503582Y-102675000D01*
X114503582Y-101825000D01*
X114996418Y-101825000D01*
X114996418Y-102675000D01*
X115002732Y-102739103D01*
X115021430Y-102800743D01*
X115051794Y-102857550D01*
X115092657Y-102907343D01*
X115142450Y-102948206D01*
X115199257Y-102978570D01*
X115260897Y-102997268D01*
X115325000Y-103003582D01*
X116175000Y-103003582D01*
X116239103Y-102997268D01*
X116300743Y-102978570D01*
X116357550Y-102948206D01*
X116407343Y-102907343D01*
X116448206Y-102857550D01*
X116478570Y-102800743D01*
X116497268Y-102739103D01*
X116503582Y-102675000D01*
X116503582Y-101825000D01*
X116497268Y-101760897D01*
X116478570Y-101699257D01*
X116448206Y-101642450D01*
X116407343Y-101592657D01*
X116357550Y-101551794D01*
X116300743Y-101521430D01*
X116239103Y-101502732D01*
X116175000Y-101496418D01*
X115325000Y-101496418D01*
X115260897Y-101502732D01*
X115199257Y-101521430D01*
X115142450Y-101551794D01*
X115092657Y-101592657D01*
X115051794Y-101642450D01*
X115021430Y-101699257D01*
X115002732Y-101760897D01*
X114996418Y-101825000D01*
X114503582Y-101825000D01*
X114497268Y-101760897D01*
X114478570Y-101699257D01*
X114448206Y-101642450D01*
X114407343Y-101592657D01*
X114357550Y-101551794D01*
X114300743Y-101521430D01*
X114239103Y-101502732D01*
X114175000Y-101496418D01*
X113325000Y-101496418D01*
X113260897Y-101502732D01*
X113199257Y-101521430D01*
X113142450Y-101551794D01*
X113092657Y-101592657D01*
X113051794Y-101642450D01*
X113021430Y-101699257D01*
X113002732Y-101760897D01*
X112996418Y-101825000D01*
X112503582Y-101825000D01*
X112497268Y-101760897D01*
X112478570Y-101699257D01*
X112448206Y-101642450D01*
X112407343Y-101592657D01*
X112357550Y-101551794D01*
X112300743Y-101521430D01*
X112239103Y-101502732D01*
X112175000Y-101496418D01*
X111325000Y-101496418D01*
X111260897Y-101502732D01*
X111199257Y-101521430D01*
X111142450Y-101551794D01*
X111092657Y-101592657D01*
X111051794Y-101642450D01*
X111021430Y-101699257D01*
X111002732Y-101760897D01*
X110996418Y-101825000D01*
X108371376Y-101825000D01*
X108378244Y-101801362D01*
X110354606Y-99825000D01*
X110996418Y-99825000D01*
X110996418Y-100675000D01*
X111002732Y-100739103D01*
X111021430Y-100800743D01*
X111051794Y-100857550D01*
X111092657Y-100907343D01*
X111142450Y-100948206D01*
X111199257Y-100978570D01*
X111260897Y-100997268D01*
X111325000Y-101003582D01*
X112175000Y-101003582D01*
X112239103Y-100997268D01*
X112300743Y-100978570D01*
X112357550Y-100948206D01*
X112407343Y-100907343D01*
X112448206Y-100857550D01*
X112478570Y-100800743D01*
X112497268Y-100739103D01*
X112503582Y-100675000D01*
X112686928Y-100675000D01*
X112699188Y-100799482D01*
X112735498Y-100919180D01*
X112794463Y-101029494D01*
X112873815Y-101126185D01*
X112970506Y-101205537D01*
X113080820Y-101264502D01*
X113200518Y-101300812D01*
X113325000Y-101313072D01*
X113464250Y-101310000D01*
X113623000Y-101151250D01*
X113623000Y-100377000D01*
X113877000Y-100377000D01*
X113877000Y-101151250D01*
X114035750Y-101310000D01*
X114175000Y-101313072D01*
X114299482Y-101300812D01*
X114419180Y-101264502D01*
X114529494Y-101205537D01*
X114626185Y-101126185D01*
X114705537Y-101029494D01*
X114764502Y-100919180D01*
X114800812Y-100799482D01*
X114813072Y-100675000D01*
X114810000Y-100535750D01*
X114651250Y-100377000D01*
X113877000Y-100377000D01*
X113623000Y-100377000D01*
X112848750Y-100377000D01*
X112690000Y-100535750D01*
X112686928Y-100675000D01*
X112503582Y-100675000D01*
X112503582Y-99825000D01*
X112686928Y-99825000D01*
X112690000Y-99964250D01*
X112848750Y-100123000D01*
X113623000Y-100123000D01*
X113623000Y-99348750D01*
X113877000Y-99348750D01*
X113877000Y-100123000D01*
X114651250Y-100123000D01*
X114810000Y-99964250D01*
X114813072Y-99825000D01*
X114800812Y-99700518D01*
X114764502Y-99580820D01*
X114705537Y-99470506D01*
X114626185Y-99373815D01*
X114529494Y-99294463D01*
X114419180Y-99235498D01*
X114299482Y-99199188D01*
X114175000Y-99186928D01*
X114035750Y-99190000D01*
X113877000Y-99348750D01*
X113623000Y-99348750D01*
X113464250Y-99190000D01*
X113325000Y-99186928D01*
X113200518Y-99199188D01*
X113080820Y-99235498D01*
X112970506Y-99294463D01*
X112873815Y-99373815D01*
X112794463Y-99470506D01*
X112735498Y-99580820D01*
X112699188Y-99700518D01*
X112686928Y-99825000D01*
X112503582Y-99825000D01*
X112497268Y-99760897D01*
X112478570Y-99699257D01*
X112448206Y-99642450D01*
X112407343Y-99592657D01*
X112357550Y-99551794D01*
X112300743Y-99521430D01*
X112239103Y-99502732D01*
X112175000Y-99496418D01*
X111325000Y-99496418D01*
X111260897Y-99502732D01*
X111199257Y-99521430D01*
X111142450Y-99551794D01*
X111092657Y-99592657D01*
X111051794Y-99642450D01*
X111021430Y-99699257D01*
X111002732Y-99760897D01*
X110996418Y-99825000D01*
X110354606Y-99825000D01*
X111050467Y-99129139D01*
X111057851Y-99127757D01*
X111062562Y-99126352D01*
X111260521Y-99065830D01*
X111289927Y-99053590D01*
X111319596Y-99041723D01*
X111323944Y-99039430D01*
X111506378Y-98941610D01*
X111532878Y-98923869D01*
X111559646Y-98906486D01*
X111563465Y-98903393D01*
X111723424Y-98772001D01*
X111723429Y-98771996D01*
X111736673Y-98761127D01*
X113982322Y-96515480D01*
X123466841Y-106000000D01*
G37*
X123466841Y-106000000D02*
X119970327Y-109496517D01*
X119935021Y-109539538D01*
X119900013Y-109605032D01*
X119891843Y-109631965D01*
X119835361Y-109702719D01*
X119817983Y-109729479D01*
X119800239Y-109755984D01*
X119797947Y-109760332D01*
X119702683Y-109944113D01*
X119690836Y-109973731D01*
X119678573Y-110003191D01*
X119677169Y-110007901D01*
X119621755Y-110198639D01*
X116949533Y-112870861D01*
X116942149Y-112872243D01*
X116937438Y-112873648D01*
X116739479Y-112934170D01*
X116710073Y-112946410D01*
X116680404Y-112958277D01*
X116676057Y-112960570D01*
X116493622Y-113058390D01*
X116467114Y-113076136D01*
X116440354Y-113093514D01*
X116436535Y-113096607D01*
X116277442Y-113227288D01*
X116263326Y-113238872D01*
X114017678Y-115484520D01*
X111305388Y-112772230D01*
X112869051Y-112772230D01*
X112869051Y-113004078D01*
X112914282Y-113231472D01*
X113003007Y-113445673D01*
X113131815Y-113638448D01*
X113295757Y-113802390D01*
X113488532Y-113931198D01*
X113702733Y-114019923D01*
X113930127Y-114065154D01*
X114161975Y-114065154D01*
X114389369Y-114019923D01*
X114603570Y-113931198D01*
X114796345Y-113802390D01*
X114960287Y-113638448D01*
X115089095Y-113445673D01*
X115177820Y-113231472D01*
X115223051Y-113004078D01*
X115223051Y-112772230D01*
X115177820Y-112544836D01*
X115089095Y-112330635D01*
X114960287Y-112137860D01*
X114796345Y-111973918D01*
X114603570Y-111845110D01*
X114389369Y-111756385D01*
X114161975Y-111711154D01*
X113930127Y-111711154D01*
X113702733Y-111756385D01*
X113488532Y-111845110D01*
X113295757Y-111973918D01*
X113131815Y-112137860D01*
X113003007Y-112330635D01*
X112914282Y-112544836D01*
X112869051Y-112772230D01*
X111305388Y-112772230D01*
X107898024Y-109364866D01*
X108970540Y-109364866D01*
X109012469Y-109652943D01*
X109109793Y-109927304D01*
X109182312Y-110062969D01*
X109430656Y-110139739D01*
X110274344Y-109296051D01*
X109430190Y-108451897D01*
X109182308Y-108529130D01*
X109057124Y-108791951D01*
X108985618Y-109074145D01*
X108970540Y-109364866D01*
X107898024Y-109364866D01*
X106805450Y-108272292D01*
X109609795Y-108272292D01*
X110453949Y-109116446D01*
X110468092Y-109102304D01*
X110647697Y-109281909D01*
X110633554Y-109296051D01*
X110647697Y-109310194D01*
X110468092Y-109489799D01*
X110453949Y-109475656D01*
X109610261Y-110319344D01*
X109687031Y-110567688D01*
X109822696Y-110640207D01*
X110097057Y-110737531D01*
X110385134Y-110779460D01*
X110675855Y-110764382D01*
X110958049Y-110692876D01*
X111186451Y-110584086D01*
X111118231Y-110748784D01*
X111073000Y-110976178D01*
X111073000Y-111208026D01*
X111118231Y-111435420D01*
X111206956Y-111649621D01*
X111335764Y-111842396D01*
X111499706Y-112006338D01*
X111692481Y-112135146D01*
X111906682Y-112223871D01*
X112134076Y-112269102D01*
X112365924Y-112269102D01*
X112593318Y-112223871D01*
X112807519Y-112135146D01*
X113000294Y-112006338D01*
X113164236Y-111842396D01*
X113293044Y-111649621D01*
X113381769Y-111435420D01*
X113427000Y-111208026D01*
X113427000Y-110976178D01*
X114665102Y-110976178D01*
X114665102Y-111208026D01*
X114710333Y-111435420D01*
X114799058Y-111649621D01*
X114927866Y-111842396D01*
X115091808Y-112006338D01*
X115284583Y-112135146D01*
X115498784Y-112223871D01*
X115726178Y-112269102D01*
X115958026Y-112269102D01*
X116185420Y-112223871D01*
X116399621Y-112135146D01*
X116592396Y-112006338D01*
X116756338Y-111842396D01*
X116885146Y-111649621D01*
X116973871Y-111435420D01*
X117019102Y-111208026D01*
X117019102Y-110976178D01*
X116973871Y-110748784D01*
X116885146Y-110534583D01*
X116756338Y-110341808D01*
X116592396Y-110177866D01*
X116399621Y-110049058D01*
X116185420Y-109960333D01*
X115958026Y-109915102D01*
X115726178Y-109915102D01*
X115498784Y-109960333D01*
X115284583Y-110049058D01*
X115091808Y-110177866D01*
X114927866Y-110341808D01*
X114799058Y-110534583D01*
X114710333Y-110748784D01*
X114665102Y-110976178D01*
X113427000Y-110976178D01*
X113381769Y-110748784D01*
X113293044Y-110534583D01*
X113164236Y-110341808D01*
X113000294Y-110177866D01*
X112807519Y-110049058D01*
X112593318Y-109960333D01*
X112365924Y-109915102D01*
X112134076Y-109915102D01*
X111906682Y-109960333D01*
X111741984Y-110028553D01*
X111850774Y-109800151D01*
X111922280Y-109517957D01*
X111937358Y-109227236D01*
X111930502Y-109180127D01*
X112869051Y-109180127D01*
X112869051Y-109411975D01*
X112914282Y-109639369D01*
X113003007Y-109853570D01*
X113131815Y-110046345D01*
X113295757Y-110210287D01*
X113488532Y-110339095D01*
X113702733Y-110427820D01*
X113930127Y-110473051D01*
X114161975Y-110473051D01*
X114389369Y-110427820D01*
X114603570Y-110339095D01*
X114796345Y-110210287D01*
X114960287Y-110046345D01*
X115089095Y-109853570D01*
X115177820Y-109639369D01*
X115223051Y-109411975D01*
X115223051Y-109180127D01*
X115177820Y-108952733D01*
X115089095Y-108738532D01*
X114960287Y-108545757D01*
X114796345Y-108381815D01*
X114603570Y-108253007D01*
X114389369Y-108164282D01*
X114161975Y-108119051D01*
X113930127Y-108119051D01*
X113702733Y-108164282D01*
X113488532Y-108253007D01*
X113295757Y-108381815D01*
X113131815Y-108545757D01*
X113003007Y-108738532D01*
X112914282Y-108952733D01*
X112869051Y-109180127D01*
X111930502Y-109180127D01*
X111895429Y-108939159D01*
X111825633Y-108742401D01*
X112017657Y-108934425D01*
X112067450Y-108975288D01*
X112124257Y-109005652D01*
X112185897Y-109024350D01*
X112250000Y-109030664D01*
X112314103Y-109024350D01*
X112375743Y-109005652D01*
X112432550Y-108975288D01*
X112482343Y-108934425D01*
X113684425Y-107732343D01*
X113725288Y-107682550D01*
X113755652Y-107625743D01*
X113774350Y-107564103D01*
X113780664Y-107500000D01*
X113774350Y-107435897D01*
X113755652Y-107374257D01*
X113725288Y-107317450D01*
X113684425Y-107267657D01*
X112482343Y-106065575D01*
X112432550Y-106024712D01*
X112375743Y-105994348D01*
X112314103Y-105975650D01*
X112250000Y-105969336D01*
X112185897Y-105975650D01*
X112124257Y-105994348D01*
X112067450Y-106024712D01*
X112017657Y-106065575D01*
X110815575Y-107267657D01*
X110774712Y-107317450D01*
X110744348Y-107374257D01*
X110725650Y-107435897D01*
X110719336Y-107500000D01*
X110725650Y-107564103D01*
X110744348Y-107625743D01*
X110774712Y-107682550D01*
X110815575Y-107732343D01*
X111007599Y-107924367D01*
X110810841Y-107854571D01*
X110522764Y-107812642D01*
X110232043Y-107827720D01*
X109949849Y-107899226D01*
X109687028Y-108024410D01*
X109609795Y-108272292D01*
X106805450Y-108272292D01*
X104533158Y-106000000D01*
X108029673Y-102503484D01*
X108064979Y-102460463D01*
X108099987Y-102394969D01*
X108108157Y-102368035D01*
X108164639Y-102297281D01*
X108182017Y-102270521D01*
X108199761Y-102244016D01*
X108202053Y-102239668D01*
X108297317Y-102055887D01*
X108309158Y-102026282D01*
X108321427Y-101996810D01*
X108322831Y-101992099D01*
X108371376Y-101825000D01*
X110996418Y-101825000D01*
X110996418Y-102675000D01*
X111002732Y-102739103D01*
X111021430Y-102800743D01*
X111051794Y-102857550D01*
X111092657Y-102907343D01*
X111142450Y-102948206D01*
X111199257Y-102978570D01*
X111260897Y-102997268D01*
X111325000Y-103003582D01*
X112175000Y-103003582D01*
X112239103Y-102997268D01*
X112300743Y-102978570D01*
X112357550Y-102948206D01*
X112407343Y-102907343D01*
X112448206Y-102857550D01*
X112478570Y-102800743D01*
X112497268Y-102739103D01*
X112503582Y-102675000D01*
X112503582Y-101825000D01*
X112996418Y-101825000D01*
X112996418Y-102675000D01*
X113002732Y-102739103D01*
X113021430Y-102800743D01*
X113051794Y-102857550D01*
X113092657Y-102907343D01*
X113142450Y-102948206D01*
X113199257Y-102978570D01*
X113260897Y-102997268D01*
X113325000Y-103003582D01*
X114175000Y-103003582D01*
X114239103Y-102997268D01*
X114300743Y-102978570D01*
X114357550Y-102948206D01*
X114407343Y-102907343D01*
X114448206Y-102857550D01*
X114478570Y-102800743D01*
X114497268Y-102739103D01*
X114503582Y-102675000D01*
X114503582Y-101825000D01*
X114996418Y-101825000D01*
X114996418Y-102675000D01*
X115002732Y-102739103D01*
X115021430Y-102800743D01*
X115051794Y-102857550D01*
X115092657Y-102907343D01*
X115142450Y-102948206D01*
X115199257Y-102978570D01*
X115260897Y-102997268D01*
X115325000Y-103003582D01*
X116175000Y-103003582D01*
X116239103Y-102997268D01*
X116300743Y-102978570D01*
X116357550Y-102948206D01*
X116407343Y-102907343D01*
X116448206Y-102857550D01*
X116478570Y-102800743D01*
X116497268Y-102739103D01*
X116503582Y-102675000D01*
X116503582Y-101825000D01*
X116497268Y-101760897D01*
X116478570Y-101699257D01*
X116448206Y-101642450D01*
X116407343Y-101592657D01*
X116357550Y-101551794D01*
X116300743Y-101521430D01*
X116239103Y-101502732D01*
X116175000Y-101496418D01*
X115325000Y-101496418D01*
X115260897Y-101502732D01*
X115199257Y-101521430D01*
X115142450Y-101551794D01*
X115092657Y-101592657D01*
X115051794Y-101642450D01*
X115021430Y-101699257D01*
X115002732Y-101760897D01*
X114996418Y-101825000D01*
X114503582Y-101825000D01*
X114497268Y-101760897D01*
X114478570Y-101699257D01*
X114448206Y-101642450D01*
X114407343Y-101592657D01*
X114357550Y-101551794D01*
X114300743Y-101521430D01*
X114239103Y-101502732D01*
X114175000Y-101496418D01*
X113325000Y-101496418D01*
X113260897Y-101502732D01*
X113199257Y-101521430D01*
X113142450Y-101551794D01*
X113092657Y-101592657D01*
X113051794Y-101642450D01*
X113021430Y-101699257D01*
X113002732Y-101760897D01*
X112996418Y-101825000D01*
X112503582Y-101825000D01*
X112497268Y-101760897D01*
X112478570Y-101699257D01*
X112448206Y-101642450D01*
X112407343Y-101592657D01*
X112357550Y-101551794D01*
X112300743Y-101521430D01*
X112239103Y-101502732D01*
X112175000Y-101496418D01*
X111325000Y-101496418D01*
X111260897Y-101502732D01*
X111199257Y-101521430D01*
X111142450Y-101551794D01*
X111092657Y-101592657D01*
X111051794Y-101642450D01*
X111021430Y-101699257D01*
X111002732Y-101760897D01*
X110996418Y-101825000D01*
X108371376Y-101825000D01*
X108378244Y-101801362D01*
X110354606Y-99825000D01*
X110996418Y-99825000D01*
X110996418Y-100675000D01*
X111002732Y-100739103D01*
X111021430Y-100800743D01*
X111051794Y-100857550D01*
X111092657Y-100907343D01*
X111142450Y-100948206D01*
X111199257Y-100978570D01*
X111260897Y-100997268D01*
X111325000Y-101003582D01*
X112175000Y-101003582D01*
X112239103Y-100997268D01*
X112300743Y-100978570D01*
X112357550Y-100948206D01*
X112407343Y-100907343D01*
X112448206Y-100857550D01*
X112478570Y-100800743D01*
X112497268Y-100739103D01*
X112503582Y-100675000D01*
X112686928Y-100675000D01*
X112699188Y-100799482D01*
X112735498Y-100919180D01*
X112794463Y-101029494D01*
X112873815Y-101126185D01*
X112970506Y-101205537D01*
X113080820Y-101264502D01*
X113200518Y-101300812D01*
X113325000Y-101313072D01*
X113464250Y-101310000D01*
X113623000Y-101151250D01*
X113623000Y-100377000D01*
X113877000Y-100377000D01*
X113877000Y-101151250D01*
X114035750Y-101310000D01*
X114175000Y-101313072D01*
X114299482Y-101300812D01*
X114419180Y-101264502D01*
X114529494Y-101205537D01*
X114626185Y-101126185D01*
X114705537Y-101029494D01*
X114764502Y-100919180D01*
X114800812Y-100799482D01*
X114813072Y-100675000D01*
X114810000Y-100535750D01*
X114651250Y-100377000D01*
X113877000Y-100377000D01*
X113623000Y-100377000D01*
X112848750Y-100377000D01*
X112690000Y-100535750D01*
X112686928Y-100675000D01*
X112503582Y-100675000D01*
X112503582Y-99825000D01*
X112686928Y-99825000D01*
X112690000Y-99964250D01*
X112848750Y-100123000D01*
X113623000Y-100123000D01*
X113623000Y-99348750D01*
X113877000Y-99348750D01*
X113877000Y-100123000D01*
X114651250Y-100123000D01*
X114810000Y-99964250D01*
X114813072Y-99825000D01*
X114800812Y-99700518D01*
X114764502Y-99580820D01*
X114705537Y-99470506D01*
X114626185Y-99373815D01*
X114529494Y-99294463D01*
X114419180Y-99235498D01*
X114299482Y-99199188D01*
X114175000Y-99186928D01*
X114035750Y-99190000D01*
X113877000Y-99348750D01*
X113623000Y-99348750D01*
X113464250Y-99190000D01*
X113325000Y-99186928D01*
X113200518Y-99199188D01*
X113080820Y-99235498D01*
X112970506Y-99294463D01*
X112873815Y-99373815D01*
X112794463Y-99470506D01*
X112735498Y-99580820D01*
X112699188Y-99700518D01*
X112686928Y-99825000D01*
X112503582Y-99825000D01*
X112497268Y-99760897D01*
X112478570Y-99699257D01*
X112448206Y-99642450D01*
X112407343Y-99592657D01*
X112357550Y-99551794D01*
X112300743Y-99521430D01*
X112239103Y-99502732D01*
X112175000Y-99496418D01*
X111325000Y-99496418D01*
X111260897Y-99502732D01*
X111199257Y-99521430D01*
X111142450Y-99551794D01*
X111092657Y-99592657D01*
X111051794Y-99642450D01*
X111021430Y-99699257D01*
X111002732Y-99760897D01*
X110996418Y-99825000D01*
X110354606Y-99825000D01*
X111050467Y-99129139D01*
X111057851Y-99127757D01*
X111062562Y-99126352D01*
X111260521Y-99065830D01*
X111289927Y-99053590D01*
X111319596Y-99041723D01*
X111323944Y-99039430D01*
X111506378Y-98941610D01*
X111532878Y-98923869D01*
X111559646Y-98906486D01*
X111563465Y-98903393D01*
X111723424Y-98772001D01*
X111723429Y-98771996D01*
X111736673Y-98761127D01*
X113982322Y-96515480D01*
X123466841Y-106000000D01*
%TD*%
M02*
