%TF.GenerationSoftware,KiCad,Pcbnew,(5.1.6)-1*%
%TF.CreationDate,2021-01-25T18:01:45+00:00*%
%TF.ProjectId,Illum,496c6c75-6d2e-46b6-9963-61645f706362,rev?*%
%TF.SameCoordinates,Original*%
%TF.FileFunction,Copper,L1,Top*%
%TF.FilePolarity,Positive*%
%FSLAX46Y46*%
G04 Gerber Fmt 4.6, Leading zero omitted, Abs format (unit mm)*
G04 Created by KiCad (PCBNEW (5.1.6)-1) date 2021-01-25 18:01:45*
%MOMM*%
%LPD*%
G01*
G04 APERTURE LIST*
%TA.AperFunction,ComponentPad*%
%ADD10R,0.850000X0.850000*%
%TD*%
%TA.AperFunction,ComponentPad*%
%ADD11O,1.000000X1.000000*%
%TD*%
%TA.AperFunction,ComponentPad*%
%ADD12R,1.000000X1.000000*%
%TD*%
%TA.AperFunction,ComponentPad*%
%ADD13C,0.100000*%
%TD*%
%TA.AperFunction,ComponentPad*%
%ADD14C,0.700000*%
%TD*%
%TA.AperFunction,ComponentPad*%
%ADD15C,4.400000*%
%TD*%
%TA.AperFunction,WasherPad*%
%ADD16C,2.500000*%
%TD*%
%TA.AperFunction,ViaPad*%
%ADD17C,1.000000*%
%TD*%
%TA.AperFunction,Conductor*%
%ADD18C,0.400000*%
%TD*%
%TA.AperFunction,Conductor*%
%ADD19C,0.250000*%
%TD*%
%TA.AperFunction,Conductor*%
%ADD20C,0.254000*%
%TD*%
G04 APERTURE END LIST*
D10*
%TO.P,TP5,1*%
%TO.N,/VCC*%
X115750000Y-102250000D03*
%TD*%
%TO.P,TP4,1*%
%TO.N,/RST*%
X113750000Y-102250000D03*
%TD*%
%TO.P,TP3,1*%
%TO.N,/SCLK*%
X111750000Y-102250000D03*
%TD*%
%TO.P,TP2,1*%
%TO.N,GND*%
X113750000Y-100250000D03*
%TD*%
%TO.P,TP1,1*%
%TO.N,/MISO*%
X111750000Y-100250000D03*
%TD*%
D11*
%TO.P,J1,2*%
%TO.N,/V_In*%
X101600000Y-114070000D03*
D12*
%TO.P,J1,1*%
%TO.N,GND*%
X101600000Y-112800000D03*
%TD*%
%TO.P,J2,6*%
%TO.N,/VCC*%
%TA.AperFunction,ComponentPad*%
G36*
G01*
X114647092Y-112287113D02*
X114647092Y-112287113D01*
G75*
G02*
X114647092Y-113489195I-601041J-601041D01*
G01*
X114647092Y-113489195D01*
G75*
G02*
X113445010Y-113489195I-601041J601041D01*
G01*
X113445010Y-113489195D01*
G75*
G02*
X113445010Y-112287113I601041J601041D01*
G01*
X113445010Y-112287113D01*
G75*
G02*
X114647092Y-112287113I601041J-601041D01*
G01*
G37*
%TD.AperFunction*%
%TO.P,J2,5*%
%TO.N,/RST*%
%TA.AperFunction,ComponentPad*%
G36*
G01*
X116443143Y-110491061D02*
X116443143Y-110491061D01*
G75*
G02*
X116443143Y-111693143I-601041J-601041D01*
G01*
X116443143Y-111693143D01*
G75*
G02*
X115241061Y-111693143I-601041J601041D01*
G01*
X115241061Y-111693143D01*
G75*
G02*
X115241061Y-110491061I601041J601041D01*
G01*
X115241061Y-110491061D01*
G75*
G02*
X116443143Y-110491061I601041J-601041D01*
G01*
G37*
%TD.AperFunction*%
%TO.P,J2,4*%
%TO.N,Net-(J2-Pad4)*%
%TA.AperFunction,ComponentPad*%
G36*
G01*
X112851041Y-110491061D02*
X112851041Y-110491061D01*
G75*
G02*
X112851041Y-111693143I-601041J-601041D01*
G01*
X112851041Y-111693143D01*
G75*
G02*
X111648959Y-111693143I-601041J601041D01*
G01*
X111648959Y-111693143D01*
G75*
G02*
X111648959Y-110491061I601041J601041D01*
G01*
X111648959Y-110491061D01*
G75*
G02*
X112851041Y-110491061I601041J-601041D01*
G01*
G37*
%TD.AperFunction*%
%TO.P,J2,3*%
%TO.N,/SCLK*%
%TA.AperFunction,ComponentPad*%
G36*
G01*
X114647092Y-108695010D02*
X114647092Y-108695010D01*
G75*
G02*
X114647092Y-109897092I-601041J-601041D01*
G01*
X114647092Y-109897092D01*
G75*
G02*
X113445010Y-109897092I-601041J601041D01*
G01*
X113445010Y-109897092D01*
G75*
G02*
X113445010Y-108695010I601041J601041D01*
G01*
X113445010Y-108695010D01*
G75*
G02*
X114647092Y-108695010I601041J-601041D01*
G01*
G37*
%TD.AperFunction*%
%TO.P,J2,2*%
%TO.N,GND*%
%TA.AperFunction,ComponentPad*%
G36*
G01*
X111054990Y-108695010D02*
X111054990Y-108695010D01*
G75*
G02*
X111054990Y-109897092I-601041J-601041D01*
G01*
X111054990Y-109897092D01*
G75*
G02*
X109852908Y-109897092I-601041J601041D01*
G01*
X109852908Y-109897092D01*
G75*
G02*
X109852908Y-108695010I601041J601041D01*
G01*
X109852908Y-108695010D01*
G75*
G02*
X111054990Y-108695010I601041J-601041D01*
G01*
G37*
%TD.AperFunction*%
%TA.AperFunction,ComponentPad*%
D13*
%TO.P,J2,1*%
%TO.N,/MISO*%
G36*
X112250000Y-106297918D02*
G01*
X113452082Y-107500000D01*
X112250000Y-108702082D01*
X111047918Y-107500000D01*
X112250000Y-106297918D01*
G37*
%TD.AperFunction*%
%TD*%
%TO.P,R8,2*%
%TO.N,/V_In*%
%TA.AperFunction,SMDPad,CuDef*%
G36*
G01*
X117487625Y-117743674D02*
X117243673Y-117987625D01*
G75*
G02*
X117035077Y-117987625I-104298J104298D01*
G01*
X116826481Y-117779029D01*
G75*
G02*
X116826481Y-117570433I104298J104298D01*
G01*
X117070433Y-117326481D01*
G75*
G02*
X117279029Y-117326481I104298J-104298D01*
G01*
X117487625Y-117535077D01*
G75*
G02*
X117487625Y-117743673I-104298J-104298D01*
G01*
G37*
%TD.AperFunction*%
%TO.P,R8,1*%
%TO.N,Net-(D8-Pad2)*%
%TA.AperFunction,SMDPad,CuDef*%
G36*
G01*
X118173519Y-118429568D02*
X117929567Y-118673519D01*
G75*
G02*
X117720971Y-118673519I-104298J104298D01*
G01*
X117512375Y-118464923D01*
G75*
G02*
X117512375Y-118256327I104298J104298D01*
G01*
X117756327Y-118012375D01*
G75*
G02*
X117964923Y-118012375I104298J-104298D01*
G01*
X118173519Y-118220971D01*
G75*
G02*
X118173519Y-118429567I-104298J-104298D01*
G01*
G37*
%TD.AperFunction*%
%TD*%
%TO.P,R7,2*%
%TO.N,/V_In*%
%TA.AperFunction,SMDPad,CuDef*%
G36*
G01*
X125855322Y-109756326D02*
X126099274Y-109512375D01*
G75*
G02*
X126307870Y-109512375I104298J-104298D01*
G01*
X126516466Y-109720971D01*
G75*
G02*
X126516466Y-109929567I-104298J-104298D01*
G01*
X126272514Y-110173519D01*
G75*
G02*
X126063918Y-110173519I-104298J104298D01*
G01*
X125855322Y-109964923D01*
G75*
G02*
X125855322Y-109756327I104298J104298D01*
G01*
G37*
%TD.AperFunction*%
%TO.P,R7,1*%
%TO.N,Net-(D7-Pad2)*%
%TA.AperFunction,SMDPad,CuDef*%
G36*
G01*
X125169428Y-109070432D02*
X125413380Y-108826481D01*
G75*
G02*
X125621976Y-108826481I104298J-104298D01*
G01*
X125830572Y-109035077D01*
G75*
G02*
X125830572Y-109243673I-104298J-104298D01*
G01*
X125586620Y-109487625D01*
G75*
G02*
X125378024Y-109487625I-104298J104298D01*
G01*
X125169428Y-109279029D01*
G75*
G02*
X125169428Y-109070433I104298J104298D01*
G01*
G37*
%TD.AperFunction*%
%TD*%
%TO.P,D8,2*%
%TO.N,Net-(D8-Pad2)*%
%TA.AperFunction,SMDPad,CuDef*%
G36*
G01*
X119495581Y-117640816D02*
X120140816Y-116995581D01*
G75*
G02*
X120485530Y-116995581I172357J-172357D01*
G01*
X120830245Y-117340296D01*
G75*
G02*
X120830245Y-117685010I-172357J-172357D01*
G01*
X120185010Y-118330245D01*
G75*
G02*
X119840296Y-118330245I-172357J172357D01*
G01*
X119495581Y-117985530D01*
G75*
G02*
X119495581Y-117640816I172357J172357D01*
G01*
G37*
%TD.AperFunction*%
%TO.P,D8,1*%
%TO.N,GND*%
%TA.AperFunction,SMDPad,CuDef*%
G36*
G01*
X118169755Y-116314990D02*
X118814990Y-115669755D01*
G75*
G02*
X119159704Y-115669755I172357J-172357D01*
G01*
X119504419Y-116014470D01*
G75*
G02*
X119504419Y-116359184I-172357J-172357D01*
G01*
X118859184Y-117004419D01*
G75*
G02*
X118514470Y-117004419I-172357J172357D01*
G01*
X118169755Y-116659704D01*
G75*
G02*
X118169755Y-116314990I172357J172357D01*
G01*
G37*
%TD.AperFunction*%
%TD*%
%TO.P,D7,2*%
%TO.N,Net-(D7-Pad2)*%
%TA.AperFunction,SMDPad,CuDef*%
G36*
G01*
X124995581Y-112140816D02*
X125640816Y-111495581D01*
G75*
G02*
X125985530Y-111495581I172357J-172357D01*
G01*
X126330245Y-111840296D01*
G75*
G02*
X126330245Y-112185010I-172357J-172357D01*
G01*
X125685010Y-112830245D01*
G75*
G02*
X125340296Y-112830245I-172357J172357D01*
G01*
X124995581Y-112485530D01*
G75*
G02*
X124995581Y-112140816I172357J172357D01*
G01*
G37*
%TD.AperFunction*%
%TO.P,D7,1*%
%TO.N,GND*%
%TA.AperFunction,SMDPad,CuDef*%
G36*
G01*
X123669755Y-110814990D02*
X124314990Y-110169755D01*
G75*
G02*
X124659704Y-110169755I172357J-172357D01*
G01*
X125004419Y-110514470D01*
G75*
G02*
X125004419Y-110859184I-172357J-172357D01*
G01*
X124359184Y-111504419D01*
G75*
G02*
X124014470Y-111504419I-172357J172357D01*
G01*
X123669755Y-111159704D01*
G75*
G02*
X123669755Y-110814990I172357J172357D01*
G01*
G37*
%TD.AperFunction*%
%TD*%
%TO.P,D6,2*%
%TO.N,Net-(D6-Pad2)*%
%TA.AperFunction,SMDPad,CuDef*%
G36*
G01*
X125640816Y-101004419D02*
X124995581Y-100359184D01*
G75*
G02*
X124995581Y-100014470I172357J172357D01*
G01*
X125340296Y-99669755D01*
G75*
G02*
X125685010Y-99669755I172357J-172357D01*
G01*
X126330245Y-100314990D01*
G75*
G02*
X126330245Y-100659704I-172357J-172357D01*
G01*
X125985530Y-101004419D01*
G75*
G02*
X125640816Y-101004419I-172357J172357D01*
G01*
G37*
%TD.AperFunction*%
%TO.P,D6,1*%
%TO.N,GND*%
%TA.AperFunction,SMDPad,CuDef*%
G36*
G01*
X124314990Y-102330245D02*
X123669755Y-101685010D01*
G75*
G02*
X123669755Y-101340296I172357J172357D01*
G01*
X124014470Y-100995581D01*
G75*
G02*
X124359184Y-100995581I172357J-172357D01*
G01*
X125004419Y-101640816D01*
G75*
G02*
X125004419Y-101985530I-172357J-172357D01*
G01*
X124659704Y-102330245D01*
G75*
G02*
X124314990Y-102330245I-172357J172357D01*
G01*
G37*
%TD.AperFunction*%
%TD*%
%TO.P,D5,2*%
%TO.N,Net-(D5-Pad2)*%
%TA.AperFunction,SMDPad,CuDef*%
G36*
G01*
X119640816Y-95004419D02*
X118995581Y-94359184D01*
G75*
G02*
X118995581Y-94014470I172357J172357D01*
G01*
X119340296Y-93669755D01*
G75*
G02*
X119685010Y-93669755I172357J-172357D01*
G01*
X120330245Y-94314990D01*
G75*
G02*
X120330245Y-94659704I-172357J-172357D01*
G01*
X119985530Y-95004419D01*
G75*
G02*
X119640816Y-95004419I-172357J172357D01*
G01*
G37*
%TD.AperFunction*%
%TO.P,D5,1*%
%TO.N,GND*%
%TA.AperFunction,SMDPad,CuDef*%
G36*
G01*
X118314990Y-96330245D02*
X117669755Y-95685010D01*
G75*
G02*
X117669755Y-95340296I172357J172357D01*
G01*
X118014470Y-94995581D01*
G75*
G02*
X118359184Y-94995581I172357J-172357D01*
G01*
X119004419Y-95640816D01*
G75*
G02*
X119004419Y-95985530I-172357J-172357D01*
G01*
X118659704Y-96330245D01*
G75*
G02*
X118314990Y-96330245I-172357J172357D01*
G01*
G37*
%TD.AperFunction*%
%TD*%
%TO.P,D4,2*%
%TO.N,Net-(D4-Pad2)*%
%TA.AperFunction,SMDPad,CuDef*%
G36*
G01*
X109995581Y-117640816D02*
X110640816Y-116995581D01*
G75*
G02*
X110985530Y-116995581I172357J-172357D01*
G01*
X111330245Y-117340296D01*
G75*
G02*
X111330245Y-117685010I-172357J-172357D01*
G01*
X110685010Y-118330245D01*
G75*
G02*
X110340296Y-118330245I-172357J172357D01*
G01*
X109995581Y-117985530D01*
G75*
G02*
X109995581Y-117640816I172357J172357D01*
G01*
G37*
%TD.AperFunction*%
%TO.P,D4,1*%
%TO.N,GND*%
%TA.AperFunction,SMDPad,CuDef*%
G36*
G01*
X108669755Y-116314990D02*
X109314990Y-115669755D01*
G75*
G02*
X109659704Y-115669755I172357J-172357D01*
G01*
X110004419Y-116014470D01*
G75*
G02*
X110004419Y-116359184I-172357J-172357D01*
G01*
X109359184Y-117004419D01*
G75*
G02*
X109014470Y-117004419I-172357J172357D01*
G01*
X108669755Y-116659704D01*
G75*
G02*
X108669755Y-116314990I172357J172357D01*
G01*
G37*
%TD.AperFunction*%
%TD*%
%TO.P,D3,2*%
%TO.N,Net-(D3-Pad2)*%
%TA.AperFunction,SMDPad,CuDef*%
G36*
G01*
X103004419Y-109359184D02*
X102359184Y-110004419D01*
G75*
G02*
X102014470Y-110004419I-172357J172357D01*
G01*
X101669755Y-109659704D01*
G75*
G02*
X101669755Y-109314990I172357J172357D01*
G01*
X102314990Y-108669755D01*
G75*
G02*
X102659704Y-108669755I172357J-172357D01*
G01*
X103004419Y-109014470D01*
G75*
G02*
X103004419Y-109359184I-172357J-172357D01*
G01*
G37*
%TD.AperFunction*%
%TO.P,D3,1*%
%TO.N,GND*%
%TA.AperFunction,SMDPad,CuDef*%
G36*
G01*
X104330245Y-110685010D02*
X103685010Y-111330245D01*
G75*
G02*
X103340296Y-111330245I-172357J172357D01*
G01*
X102995581Y-110985530D01*
G75*
G02*
X102995581Y-110640816I172357J172357D01*
G01*
X103640816Y-109995581D01*
G75*
G02*
X103985530Y-109995581I172357J-172357D01*
G01*
X104330245Y-110340296D01*
G75*
G02*
X104330245Y-110685010I-172357J-172357D01*
G01*
G37*
%TD.AperFunction*%
%TD*%
%TO.P,D2,2*%
%TO.N,Net-(D2-Pad2)*%
%TA.AperFunction,SMDPad,CuDef*%
G36*
G01*
X103004419Y-99859184D02*
X102359184Y-100504419D01*
G75*
G02*
X102014470Y-100504419I-172357J172357D01*
G01*
X101669755Y-100159704D01*
G75*
G02*
X101669755Y-99814990I172357J172357D01*
G01*
X102314990Y-99169755D01*
G75*
G02*
X102659704Y-99169755I172357J-172357D01*
G01*
X103004419Y-99514470D01*
G75*
G02*
X103004419Y-99859184I-172357J-172357D01*
G01*
G37*
%TD.AperFunction*%
%TO.P,D2,1*%
%TO.N,GND*%
%TA.AperFunction,SMDPad,CuDef*%
G36*
G01*
X104330245Y-101185010D02*
X103685010Y-101830245D01*
G75*
G02*
X103340296Y-101830245I-172357J172357D01*
G01*
X102995581Y-101485530D01*
G75*
G02*
X102995581Y-101140816I172357J172357D01*
G01*
X103640816Y-100495581D01*
G75*
G02*
X103985530Y-100495581I172357J-172357D01*
G01*
X104330245Y-100840296D01*
G75*
G02*
X104330245Y-101185010I-172357J-172357D01*
G01*
G37*
%TD.AperFunction*%
%TD*%
D14*
%TO.P,H4,1*%
%TO.N,N/C*%
X127166726Y-116833274D03*
X126000000Y-116350000D03*
X124833274Y-116833274D03*
X124350000Y-118000000D03*
X124833274Y-119166726D03*
X126000000Y-119650000D03*
X127166726Y-119166726D03*
X127650000Y-118000000D03*
D15*
X126000000Y-118000000D03*
%TD*%
D14*
%TO.P,H3,1*%
%TO.N,N/C*%
X103166726Y-116833274D03*
X102000000Y-116350000D03*
X100833274Y-116833274D03*
X100350000Y-118000000D03*
X100833274Y-119166726D03*
X102000000Y-119650000D03*
X103166726Y-119166726D03*
X103650000Y-118000000D03*
D15*
X102000000Y-118000000D03*
%TD*%
D14*
%TO.P,H2,1*%
%TO.N,N/C*%
X127166726Y-92833274D03*
X126000000Y-92350000D03*
X124833274Y-92833274D03*
X124350000Y-94000000D03*
X124833274Y-95166726D03*
X126000000Y-95650000D03*
X127166726Y-95166726D03*
X127650000Y-94000000D03*
D15*
X126000000Y-94000000D03*
%TD*%
D14*
%TO.P,H1,1*%
%TO.N,N/C*%
X103166726Y-92833274D03*
X102000000Y-92350000D03*
X100833274Y-92833274D03*
X100350000Y-94000000D03*
X100833274Y-95166726D03*
X102000000Y-95650000D03*
X103166726Y-95166726D03*
X103650000Y-94000000D03*
D15*
X102000000Y-94000000D03*
%TD*%
%TO.P,D1,2*%
%TO.N,Net-(D1-Pad2)*%
%TA.AperFunction,SMDPad,CuDef*%
G36*
G01*
X108504419Y-94359184D02*
X107859184Y-95004419D01*
G75*
G02*
X107514470Y-95004419I-172357J172357D01*
G01*
X107169755Y-94659704D01*
G75*
G02*
X107169755Y-94314990I172357J172357D01*
G01*
X107814990Y-93669755D01*
G75*
G02*
X108159704Y-93669755I172357J-172357D01*
G01*
X108504419Y-94014470D01*
G75*
G02*
X108504419Y-94359184I-172357J-172357D01*
G01*
G37*
%TD.AperFunction*%
%TO.P,D1,1*%
%TO.N,GND*%
%TA.AperFunction,SMDPad,CuDef*%
G36*
G01*
X109830245Y-95685010D02*
X109185010Y-96330245D01*
G75*
G02*
X108840296Y-96330245I-172357J172357D01*
G01*
X108495581Y-95985530D01*
G75*
G02*
X108495581Y-95640816I172357J172357D01*
G01*
X109140816Y-94995581D01*
G75*
G02*
X109485530Y-94995581I172357J-172357D01*
G01*
X109830245Y-95340296D01*
G75*
G02*
X109830245Y-95685010I-172357J-172357D01*
G01*
G37*
%TD.AperFunction*%
%TD*%
D16*
%TO.P,U1,*%
%TO.N,*%
X121778175Y-98221825D03*
X106221825Y-113778175D03*
%TD*%
%TO.P,R6,2*%
%TO.N,/V_In*%
%TA.AperFunction,SMDPad,CuDef*%
G36*
G01*
X125743674Y-103012375D02*
X125987625Y-103256327D01*
G75*
G02*
X125987625Y-103464923I-104298J-104298D01*
G01*
X125779029Y-103673519D01*
G75*
G02*
X125570433Y-103673519I-104298J104298D01*
G01*
X125326481Y-103429567D01*
G75*
G02*
X125326481Y-103220971I104298J104298D01*
G01*
X125535077Y-103012375D01*
G75*
G02*
X125743673Y-103012375I104298J-104298D01*
G01*
G37*
%TD.AperFunction*%
%TO.P,R6,1*%
%TO.N,Net-(D6-Pad2)*%
%TA.AperFunction,SMDPad,CuDef*%
G36*
G01*
X126429568Y-102326481D02*
X126673519Y-102570433D01*
G75*
G02*
X126673519Y-102779029I-104298J-104298D01*
G01*
X126464923Y-102987625D01*
G75*
G02*
X126256327Y-102987625I-104298J104298D01*
G01*
X126012375Y-102743673D01*
G75*
G02*
X126012375Y-102535077I104298J104298D01*
G01*
X126220971Y-102326481D01*
G75*
G02*
X126429567Y-102326481I104298J-104298D01*
G01*
G37*
%TD.AperFunction*%
%TD*%
%TO.P,R5,2*%
%TO.N,/V_In*%
%TA.AperFunction,SMDPad,CuDef*%
G36*
G01*
X116743674Y-94169428D02*
X116987625Y-94413380D01*
G75*
G02*
X116987625Y-94621976I-104298J-104298D01*
G01*
X116779029Y-94830572D01*
G75*
G02*
X116570433Y-94830572I-104298J104298D01*
G01*
X116326481Y-94586620D01*
G75*
G02*
X116326481Y-94378024I104298J104298D01*
G01*
X116535077Y-94169428D01*
G75*
G02*
X116743673Y-94169428I104298J-104298D01*
G01*
G37*
%TD.AperFunction*%
%TO.P,R5,1*%
%TO.N,Net-(D5-Pad2)*%
%TA.AperFunction,SMDPad,CuDef*%
G36*
G01*
X117429568Y-93483534D02*
X117673519Y-93727486D01*
G75*
G02*
X117673519Y-93936082I-104298J-104298D01*
G01*
X117464923Y-94144678D01*
G75*
G02*
X117256327Y-94144678I-104298J104298D01*
G01*
X117012375Y-93900726D01*
G75*
G02*
X117012375Y-93692130I104298J104298D01*
G01*
X117220971Y-93483534D01*
G75*
G02*
X117429567Y-93483534I104298J-104298D01*
G01*
G37*
%TD.AperFunction*%
%TD*%
%TO.P,R4,2*%
%TO.N,/V_In*%
%TA.AperFunction,SMDPad,CuDef*%
G36*
G01*
X112512375Y-118756326D02*
X112756327Y-118512375D01*
G75*
G02*
X112964923Y-118512375I104298J-104298D01*
G01*
X113173519Y-118720971D01*
G75*
G02*
X113173519Y-118929567I-104298J-104298D01*
G01*
X112929567Y-119173519D01*
G75*
G02*
X112720971Y-119173519I-104298J104298D01*
G01*
X112512375Y-118964923D01*
G75*
G02*
X112512375Y-118756327I104298J104298D01*
G01*
G37*
%TD.AperFunction*%
%TO.P,R4,1*%
%TO.N,Net-(D4-Pad2)*%
%TA.AperFunction,SMDPad,CuDef*%
G36*
G01*
X111826481Y-118070432D02*
X112070433Y-117826481D01*
G75*
G02*
X112279029Y-117826481I104298J-104298D01*
G01*
X112487625Y-118035077D01*
G75*
G02*
X112487625Y-118243673I-104298J-104298D01*
G01*
X112243673Y-118487625D01*
G75*
G02*
X112035077Y-118487625I-104298J104298D01*
G01*
X111826481Y-118279029D01*
G75*
G02*
X111826481Y-118070433I104298J104298D01*
G01*
G37*
%TD.AperFunction*%
%TD*%
%TO.P,R3,2*%
%TO.N,/V_In*%
%TA.AperFunction,SMDPad,CuDef*%
G36*
G01*
X101487625Y-107243674D02*
X101243673Y-107487625D01*
G75*
G02*
X101035077Y-107487625I-104298J104298D01*
G01*
X100826481Y-107279029D01*
G75*
G02*
X100826481Y-107070433I104298J104298D01*
G01*
X101070433Y-106826481D01*
G75*
G02*
X101279029Y-106826481I104298J-104298D01*
G01*
X101487625Y-107035077D01*
G75*
G02*
X101487625Y-107243673I-104298J-104298D01*
G01*
G37*
%TD.AperFunction*%
%TO.P,R3,1*%
%TO.N,Net-(D3-Pad2)*%
%TA.AperFunction,SMDPad,CuDef*%
G36*
G01*
X102173519Y-107929568D02*
X101929567Y-108173519D01*
G75*
G02*
X101720971Y-108173519I-104298J104298D01*
G01*
X101512375Y-107964923D01*
G75*
G02*
X101512375Y-107756327I104298J104298D01*
G01*
X101756327Y-107512375D01*
G75*
G02*
X101964923Y-107512375I104298J-104298D01*
G01*
X102173519Y-107720971D01*
G75*
G02*
X102173519Y-107929567I-104298J-104298D01*
G01*
G37*
%TD.AperFunction*%
%TD*%
%TO.P,R2,2*%
%TO.N,/V_In*%
%TA.AperFunction,SMDPad,CuDef*%
G36*
G01*
X101987625Y-102243674D02*
X101743673Y-102487625D01*
G75*
G02*
X101535077Y-102487625I-104298J104298D01*
G01*
X101326481Y-102279029D01*
G75*
G02*
X101326481Y-102070433I104298J104298D01*
G01*
X101570433Y-101826481D01*
G75*
G02*
X101779029Y-101826481I104298J-104298D01*
G01*
X101987625Y-102035077D01*
G75*
G02*
X101987625Y-102243673I-104298J-104298D01*
G01*
G37*
%TD.AperFunction*%
%TO.P,R2,1*%
%TO.N,Net-(D2-Pad2)*%
%TA.AperFunction,SMDPad,CuDef*%
G36*
G01*
X102673519Y-102929568D02*
X102429567Y-103173519D01*
G75*
G02*
X102220971Y-103173519I-104298J104298D01*
G01*
X102012375Y-102964923D01*
G75*
G02*
X102012375Y-102756327I104298J104298D01*
G01*
X102256327Y-102512375D01*
G75*
G02*
X102464923Y-102512375I104298J-104298D01*
G01*
X102673519Y-102720971D01*
G75*
G02*
X102673519Y-102929567I-104298J-104298D01*
G01*
G37*
%TD.AperFunction*%
%TD*%
%TO.P,R1,2*%
%TO.N,/V_In*%
%TA.AperFunction,SMDPad,CuDef*%
G36*
G01*
X110987625Y-93243674D02*
X110743673Y-93487625D01*
G75*
G02*
X110535077Y-93487625I-104298J104298D01*
G01*
X110326481Y-93279029D01*
G75*
G02*
X110326481Y-93070433I104298J104298D01*
G01*
X110570433Y-92826481D01*
G75*
G02*
X110779029Y-92826481I104298J-104298D01*
G01*
X110987625Y-93035077D01*
G75*
G02*
X110987625Y-93243673I-104298J-104298D01*
G01*
G37*
%TD.AperFunction*%
%TO.P,R1,1*%
%TO.N,Net-(D1-Pad2)*%
%TA.AperFunction,SMDPad,CuDef*%
G36*
G01*
X111673519Y-93929568D02*
X111429567Y-94173519D01*
G75*
G02*
X111220971Y-94173519I-104298J104298D01*
G01*
X111012375Y-93964923D01*
G75*
G02*
X111012375Y-93756327I104298J104298D01*
G01*
X111256327Y-93512375D01*
G75*
G02*
X111464923Y-93512375I104298J-104298D01*
G01*
X111673519Y-93720971D01*
G75*
G02*
X111673519Y-93929567I-104298J-104298D01*
G01*
G37*
%TD.AperFunction*%
%TD*%
D17*
%TO.N,GND*%
X122750000Y-112500000D03*
X120500000Y-114750000D03*
X108250000Y-115250000D03*
X104750000Y-111750000D03*
X105000000Y-99750000D03*
X107750000Y-97000000D03*
X119750000Y-96750000D03*
X123000000Y-100250000D03*
%TD*%
D18*
%TO.N,Net-(D1-Pad2)*%
X110848807Y-94337087D02*
X111342947Y-93842947D01*
X107837087Y-94337087D02*
X110848807Y-94337087D01*
D19*
%TO.N,/VCC*%
X115842102Y-102342102D02*
X115750000Y-102250000D01*
D18*
%TO.N,GND*%
X124337087Y-110837087D02*
X124337087Y-110912913D01*
X124337087Y-110912913D02*
X122750000Y-112500000D01*
X118837087Y-116337087D02*
X118912913Y-116337087D01*
X118912913Y-116337087D02*
X120500000Y-114750000D01*
X109337087Y-116337087D02*
X108250000Y-115250000D01*
X103662913Y-110662913D02*
X104750000Y-111750000D01*
X103662913Y-101162913D02*
X103662913Y-101087087D01*
X103662913Y-101087087D02*
X105000000Y-99750000D01*
X109162913Y-95662913D02*
X109087087Y-95662913D01*
X109087087Y-95662913D02*
X107750000Y-97000000D01*
X118337087Y-95662913D02*
X118662913Y-95662913D01*
X118662913Y-95662913D02*
X119750000Y-96750000D01*
X124337087Y-101662913D02*
X124337087Y-101587087D01*
X124337087Y-101587087D02*
X123000000Y-100250000D01*
%TO.N,Net-(D2-Pad2)*%
X102430837Y-99930837D02*
X102337087Y-99837087D01*
X102342947Y-102842947D02*
X102430837Y-102755057D01*
X102430837Y-102755057D02*
X102430837Y-99930837D01*
%TO.N,Net-(D3-Pad2)*%
X102337087Y-108337087D02*
X101842947Y-107842947D01*
X102337087Y-109337087D02*
X102337087Y-108337087D01*
%TO.N,Net-(D4-Pad2)*%
X111157053Y-118157053D02*
X110662913Y-117662913D01*
X112157053Y-118157053D02*
X111157053Y-118157053D01*
%TO.N,Net-(D5-Pad2)*%
X119139932Y-93814106D02*
X119662913Y-94337087D01*
X117342947Y-93814106D02*
X119139932Y-93814106D01*
%TO.N,Net-(D6-Pad2)*%
X125662913Y-101977019D02*
X126342947Y-102657053D01*
X125662913Y-100337087D02*
X125662913Y-101977019D01*
%TO.N,Net-(D7-Pad2)*%
X125412110Y-109244943D02*
X125500000Y-109157053D01*
X125412110Y-110087411D02*
X125412110Y-109244943D01*
X125662913Y-112162913D02*
X125662913Y-110338214D01*
X125662913Y-110338214D02*
X125412110Y-110087411D01*
%TO.N,Net-(D8-Pad2)*%
X118522981Y-117662913D02*
X117842947Y-118342947D01*
X120162913Y-117662913D02*
X118522981Y-117662913D01*
%TO.N,/VCC*%
X117092103Y-111692103D02*
X117092103Y-103592103D01*
X114046051Y-112888154D02*
X115896052Y-112888154D01*
X117092103Y-103592103D02*
X115750000Y-102250000D01*
X115896052Y-112888154D02*
X117092103Y-111692103D01*
%TO.N,/RST*%
X115842102Y-104342102D02*
X113750000Y-102250000D01*
X115842102Y-111092102D02*
X115842102Y-104342102D01*
%TO.N,/SCLK*%
X114046051Y-104546051D02*
X111750000Y-102250000D01*
X114046051Y-109296051D02*
X114046051Y-104546051D01*
D19*
%TO.N,/MISO*%
X112250000Y-107500000D02*
X112851041Y-106898959D01*
D18*
X112250000Y-107500000D02*
X112250000Y-105250000D01*
X112250000Y-105250000D02*
X110000000Y-103000000D01*
X110000000Y-102000000D02*
X111750000Y-100250000D01*
X110000000Y-103000000D02*
X110000000Y-102000000D01*
%TD*%
D20*
%TO.N,/V_In*%
G36*
X110201499Y-92521894D02*
G01*
X110657053Y-92977448D01*
X111130284Y-92504217D01*
X111130284Y-92377000D01*
X124049282Y-92377000D01*
X124037151Y-92389131D01*
X123760602Y-92803017D01*
X123570111Y-93262901D01*
X123473000Y-93751112D01*
X123473000Y-94248888D01*
X123570111Y-94737099D01*
X123760602Y-95196983D01*
X124037151Y-95610869D01*
X124389131Y-95962849D01*
X124803017Y-96239398D01*
X125262901Y-96429889D01*
X125751112Y-96527000D01*
X126248888Y-96527000D01*
X126737099Y-96429889D01*
X127196983Y-96239398D01*
X127610869Y-95962849D01*
X127623000Y-95950718D01*
X127623001Y-116049283D01*
X127610869Y-116037151D01*
X127196983Y-115760602D01*
X126737099Y-115570111D01*
X126248888Y-115473000D01*
X125751112Y-115473000D01*
X125262901Y-115570111D01*
X124803017Y-115760602D01*
X124389131Y-116037151D01*
X124037151Y-116389131D01*
X123760602Y-116803017D01*
X123570111Y-117262901D01*
X123473000Y-117751112D01*
X123473000Y-118248888D01*
X123570111Y-118737099D01*
X123760602Y-119196983D01*
X124037151Y-119610869D01*
X124049282Y-119623000D01*
X113298501Y-119623000D01*
X113298501Y-119478106D01*
X112842947Y-119022552D01*
X112369716Y-119495783D01*
X112369716Y-119623000D01*
X103950718Y-119623000D01*
X103962849Y-119610869D01*
X104239398Y-119196983D01*
X104429889Y-118737099D01*
X104527000Y-118248888D01*
X104527000Y-117751112D01*
X104429889Y-117262901D01*
X104239398Y-116803017D01*
X103962849Y-116389131D01*
X103610869Y-116037151D01*
X103196983Y-115760602D01*
X102737099Y-115570111D01*
X102248888Y-115473000D01*
X101751112Y-115473000D01*
X101262901Y-115570111D01*
X100803017Y-115760602D01*
X100389131Y-116037151D01*
X100377000Y-116049282D01*
X100377000Y-114371874D01*
X100505881Y-114371874D01*
X100522554Y-114426864D01*
X100612877Y-114630206D01*
X100741135Y-114812020D01*
X100902399Y-114965318D01*
X101090471Y-115084210D01*
X101298124Y-115164126D01*
X101473000Y-115039129D01*
X101473000Y-114197000D01*
X101727000Y-114197000D01*
X101727000Y-115039129D01*
X101901876Y-115164126D01*
X102109529Y-115084210D01*
X102297601Y-114965318D01*
X102458865Y-114812020D01*
X102587123Y-114630206D01*
X102677446Y-114426864D01*
X102694119Y-114371874D01*
X102567954Y-114197000D01*
X101727000Y-114197000D01*
X101473000Y-114197000D01*
X100632046Y-114197000D01*
X100505881Y-114371874D01*
X100377000Y-114371874D01*
X100377000Y-113768126D01*
X100505881Y-113768126D01*
X100632046Y-113943000D01*
X101473000Y-113943000D01*
X101473000Y-113923000D01*
X101727000Y-113923000D01*
X101727000Y-113943000D01*
X102567954Y-113943000D01*
X102694119Y-113768126D01*
X102677446Y-113713136D01*
X102587123Y-113509794D01*
X102458865Y-113327980D01*
X102428582Y-113299193D01*
X102428582Y-112300000D01*
X102422268Y-112235897D01*
X102403570Y-112174257D01*
X102373206Y-112117450D01*
X102332343Y-112067657D01*
X102282550Y-112026794D01*
X102225743Y-111996430D01*
X102164103Y-111977732D01*
X102100000Y-111971418D01*
X101100000Y-111971418D01*
X101035897Y-111977732D01*
X100974257Y-111996430D01*
X100917450Y-112026794D01*
X100867657Y-112067657D01*
X100826794Y-112117450D01*
X100796430Y-112174257D01*
X100777732Y-112235897D01*
X100771418Y-112300000D01*
X100771418Y-113299193D01*
X100741135Y-113327980D01*
X100612877Y-113509794D01*
X100522554Y-113713136D01*
X100505881Y-113768126D01*
X100377000Y-113768126D01*
X100377000Y-110813173D01*
X102595606Y-110813173D01*
X102606603Y-110924829D01*
X102639172Y-111032195D01*
X102692061Y-111131144D01*
X102763238Y-111217873D01*
X103107953Y-111562588D01*
X103194682Y-111633765D01*
X103293631Y-111686654D01*
X103400997Y-111719223D01*
X103512653Y-111730220D01*
X103624309Y-111719223D01*
X103731675Y-111686654D01*
X103830624Y-111633765D01*
X103862399Y-111607688D01*
X103923043Y-111668332D01*
X103923000Y-111668548D01*
X103923000Y-111831452D01*
X103954782Y-111991227D01*
X104017123Y-112141731D01*
X104107628Y-112277181D01*
X104222819Y-112392372D01*
X104358269Y-112482877D01*
X104508773Y-112545218D01*
X104668548Y-112577000D01*
X104831452Y-112577000D01*
X104991227Y-112545218D01*
X105141731Y-112482877D01*
X105277181Y-112392372D01*
X105392372Y-112277181D01*
X105482877Y-112141731D01*
X105545218Y-111991227D01*
X105577000Y-111831452D01*
X105577000Y-111668548D01*
X105545218Y-111508773D01*
X105482877Y-111358269D01*
X105392372Y-111222819D01*
X105277181Y-111107628D01*
X105141731Y-111017123D01*
X104991227Y-110954782D01*
X104831452Y-110923000D01*
X104668548Y-110923000D01*
X104668332Y-110923043D01*
X104607688Y-110862399D01*
X104633765Y-110830624D01*
X104686654Y-110731675D01*
X104719223Y-110624309D01*
X104730220Y-110512653D01*
X104719223Y-110400997D01*
X104686654Y-110293631D01*
X104633765Y-110194682D01*
X104562588Y-110107953D01*
X104217873Y-109763238D01*
X104131144Y-109692061D01*
X104032195Y-109639172D01*
X103924829Y-109606603D01*
X103813173Y-109595606D01*
X103701517Y-109606603D01*
X103594151Y-109639172D01*
X103495202Y-109692061D01*
X103408473Y-109763238D01*
X102763238Y-110408473D01*
X102692061Y-110495202D01*
X102639172Y-110594151D01*
X102606603Y-110701517D01*
X102595606Y-110813173D01*
X100377000Y-110813173D01*
X100377000Y-107809889D01*
X100683822Y-107809889D01*
X100683822Y-108034396D01*
X100688190Y-108043109D01*
X100784881Y-108122462D01*
X100895196Y-108181426D01*
X101014894Y-108217735D01*
X101139375Y-108229996D01*
X101263857Y-108217735D01*
X101291972Y-108209206D01*
X101488628Y-108405862D01*
X101560772Y-108465069D01*
X101643080Y-108509063D01*
X101732390Y-108536155D01*
X101797254Y-108542544D01*
X101810088Y-108555377D01*
X101810088Y-108709971D01*
X101437412Y-109082647D01*
X101366235Y-109169376D01*
X101313346Y-109268325D01*
X101280777Y-109375691D01*
X101269780Y-109487347D01*
X101280777Y-109599003D01*
X101313346Y-109706369D01*
X101366235Y-109805318D01*
X101437412Y-109892047D01*
X101782127Y-110236762D01*
X101868856Y-110307939D01*
X101967805Y-110360828D01*
X102075171Y-110393397D01*
X102186827Y-110404394D01*
X102298483Y-110393397D01*
X102405849Y-110360828D01*
X102504798Y-110307939D01*
X102591527Y-110236762D01*
X103236762Y-109591527D01*
X103307939Y-109504798D01*
X103360828Y-109405849D01*
X103393397Y-109298483D01*
X103404394Y-109186827D01*
X103393397Y-109075171D01*
X103360828Y-108967805D01*
X103307939Y-108868856D01*
X103236762Y-108782127D01*
X102892047Y-108437412D01*
X102864087Y-108414466D01*
X102864087Y-108397243D01*
X106761718Y-112294874D01*
X106681819Y-112261779D01*
X106377146Y-112201175D01*
X106066504Y-112201175D01*
X105761831Y-112261779D01*
X105474836Y-112380656D01*
X105216546Y-112553239D01*
X104996889Y-112772896D01*
X104824306Y-113031186D01*
X104705429Y-113318181D01*
X104644825Y-113622854D01*
X104644825Y-113933496D01*
X104705429Y-114238169D01*
X104824306Y-114525164D01*
X104996889Y-114783454D01*
X105216546Y-115003111D01*
X105474836Y-115175694D01*
X105761831Y-115294571D01*
X106066504Y-115355175D01*
X106377146Y-115355175D01*
X106681819Y-115294571D01*
X106968814Y-115175694D01*
X106979508Y-115168548D01*
X107423000Y-115168548D01*
X107423000Y-115331452D01*
X107454782Y-115491227D01*
X107517123Y-115641731D01*
X107607628Y-115777181D01*
X107722819Y-115892372D01*
X107858269Y-115982877D01*
X108008773Y-116045218D01*
X108168548Y-116077000D01*
X108331452Y-116077000D01*
X108331668Y-116076957D01*
X108392312Y-116137601D01*
X108366235Y-116169376D01*
X108313346Y-116268325D01*
X108280777Y-116375691D01*
X108269780Y-116487347D01*
X108280777Y-116599003D01*
X108313346Y-116706369D01*
X108366235Y-116805318D01*
X108437412Y-116892047D01*
X108782127Y-117236762D01*
X108868856Y-117307939D01*
X108967805Y-117360828D01*
X109075171Y-117393397D01*
X109186827Y-117404394D01*
X109298483Y-117393397D01*
X109405849Y-117360828D01*
X109504798Y-117307939D01*
X109591527Y-117236762D01*
X110236762Y-116591527D01*
X110307939Y-116504798D01*
X110360828Y-116405849D01*
X110393397Y-116298483D01*
X110404394Y-116186827D01*
X110393397Y-116075171D01*
X110360828Y-115967805D01*
X110307939Y-115868856D01*
X110236762Y-115782127D01*
X109892047Y-115437412D01*
X109805318Y-115366235D01*
X109706369Y-115313346D01*
X109599003Y-115280777D01*
X109487347Y-115269780D01*
X109375691Y-115280777D01*
X109268325Y-115313346D01*
X109169376Y-115366235D01*
X109137601Y-115392312D01*
X109076957Y-115331668D01*
X109077000Y-115331452D01*
X109077000Y-115168548D01*
X109045218Y-115008773D01*
X108982877Y-114858269D01*
X108892372Y-114722819D01*
X108777181Y-114607628D01*
X108641731Y-114517123D01*
X108491227Y-114454782D01*
X108331452Y-114423000D01*
X108168548Y-114423000D01*
X108008773Y-114454782D01*
X107858269Y-114517123D01*
X107722819Y-114607628D01*
X107607628Y-114722819D01*
X107517123Y-114858269D01*
X107454782Y-115008773D01*
X107423000Y-115168548D01*
X106979508Y-115168548D01*
X107227104Y-115003111D01*
X107446761Y-114783454D01*
X107619344Y-114525164D01*
X107738221Y-114238169D01*
X107798825Y-113933496D01*
X107798825Y-113622854D01*
X107738221Y-113318181D01*
X107705126Y-113238283D01*
X111969889Y-117503045D01*
X111910234Y-117534931D01*
X111838090Y-117594138D01*
X111802175Y-117630053D01*
X111717481Y-117630053D01*
X111719223Y-117624309D01*
X111730220Y-117512653D01*
X111719223Y-117400997D01*
X111686654Y-117293631D01*
X111633765Y-117194682D01*
X111562588Y-117107953D01*
X111217873Y-116763238D01*
X111131144Y-116692061D01*
X111032195Y-116639172D01*
X110924829Y-116606603D01*
X110813173Y-116595606D01*
X110701517Y-116606603D01*
X110594151Y-116639172D01*
X110495202Y-116692061D01*
X110408473Y-116763238D01*
X109763238Y-117408473D01*
X109692061Y-117495202D01*
X109639172Y-117594151D01*
X109606603Y-117701517D01*
X109595606Y-117813173D01*
X109606603Y-117924829D01*
X109639172Y-118032195D01*
X109692061Y-118131144D01*
X109763238Y-118217873D01*
X110107953Y-118562588D01*
X110194682Y-118633765D01*
X110293631Y-118686654D01*
X110400997Y-118719223D01*
X110512653Y-118730220D01*
X110624309Y-118719223D01*
X110731675Y-118686654D01*
X110830624Y-118633765D01*
X110870200Y-118601285D01*
X110954403Y-118646292D01*
X111053743Y-118676427D01*
X111131172Y-118684053D01*
X111131174Y-118684053D01*
X111157052Y-118686602D01*
X111182930Y-118684053D01*
X111766819Y-118684053D01*
X111790794Y-118708028D01*
X111782265Y-118736143D01*
X111770004Y-118860625D01*
X111782265Y-118985106D01*
X111818574Y-119104804D01*
X111877538Y-119215119D01*
X111956891Y-119311810D01*
X111965604Y-119316178D01*
X112190111Y-119316178D01*
X112663342Y-118842947D01*
X112649200Y-118828805D01*
X112828805Y-118649200D01*
X112842947Y-118663342D01*
X112857090Y-118649200D01*
X113036695Y-118828805D01*
X113022552Y-118842947D01*
X113478106Y-119298501D01*
X113702612Y-119298501D01*
X113729003Y-119276454D01*
X113808356Y-119179763D01*
X113867320Y-119069449D01*
X113873676Y-119048496D01*
X113969342Y-119057539D01*
X114001238Y-119057428D01*
X114033146Y-119057762D01*
X114038040Y-119057299D01*
X114175336Y-119043353D01*
X114206550Y-119037059D01*
X114237970Y-119031179D01*
X114242680Y-119029774D01*
X114374652Y-118989426D01*
X114404094Y-118977171D01*
X114433726Y-118965319D01*
X114438074Y-118963027D01*
X114559696Y-118897814D01*
X114586172Y-118880089D01*
X114612967Y-118862689D01*
X114616786Y-118859595D01*
X114618828Y-118857918D01*
X114644969Y-118849988D01*
X114710463Y-118814980D01*
X114753484Y-118779674D01*
X115223269Y-118309889D01*
X116683822Y-118309889D01*
X116683822Y-118534396D01*
X116688190Y-118543109D01*
X116784881Y-118622462D01*
X116895196Y-118681426D01*
X117014894Y-118717735D01*
X117139375Y-118729996D01*
X117263857Y-118717735D01*
X117291972Y-118709206D01*
X117488628Y-118905862D01*
X117560772Y-118965069D01*
X117643080Y-119009063D01*
X117732390Y-119036155D01*
X117825269Y-119045303D01*
X117918148Y-119036155D01*
X118007458Y-119009063D01*
X118089766Y-118965069D01*
X118161910Y-118905862D01*
X118405862Y-118661910D01*
X118465069Y-118589766D01*
X118509063Y-118507458D01*
X118536155Y-118418148D01*
X118538681Y-118392503D01*
X118741271Y-118189913D01*
X119240292Y-118189913D01*
X119263238Y-118217873D01*
X119607953Y-118562588D01*
X119694682Y-118633765D01*
X119793631Y-118686654D01*
X119900997Y-118719223D01*
X120012653Y-118730220D01*
X120124309Y-118719223D01*
X120231675Y-118686654D01*
X120330624Y-118633765D01*
X120417353Y-118562588D01*
X121062588Y-117917353D01*
X121133765Y-117830624D01*
X121186654Y-117731675D01*
X121219223Y-117624309D01*
X121230220Y-117512653D01*
X121219223Y-117400997D01*
X121186654Y-117293631D01*
X121133765Y-117194682D01*
X121062588Y-117107953D01*
X120717873Y-116763238D01*
X120631144Y-116692061D01*
X120532195Y-116639172D01*
X120424829Y-116606603D01*
X120313173Y-116595606D01*
X120201517Y-116606603D01*
X120094151Y-116639172D01*
X119995202Y-116692061D01*
X119908473Y-116763238D01*
X119535798Y-117135913D01*
X119192376Y-117135913D01*
X119736762Y-116591527D01*
X119807939Y-116504798D01*
X119860828Y-116405849D01*
X119893397Y-116298483D01*
X119904394Y-116186827D01*
X119895793Y-116099497D01*
X120418333Y-115576957D01*
X120418548Y-115577000D01*
X120581452Y-115577000D01*
X120741227Y-115545218D01*
X120891731Y-115482877D01*
X121027181Y-115392372D01*
X121142372Y-115277181D01*
X121232877Y-115141731D01*
X121295218Y-114991227D01*
X121327000Y-114831452D01*
X121327000Y-114668548D01*
X121295218Y-114508773D01*
X121232877Y-114358269D01*
X121142372Y-114222819D01*
X121027181Y-114107628D01*
X120891731Y-114017123D01*
X120741227Y-113954782D01*
X120581452Y-113923000D01*
X120418548Y-113923000D01*
X120258773Y-113954782D01*
X120108269Y-114017123D01*
X119972819Y-114107628D01*
X119857628Y-114222819D01*
X119767123Y-114358269D01*
X119704782Y-114508773D01*
X119673000Y-114668548D01*
X119673000Y-114831452D01*
X119673043Y-114831667D01*
X119194857Y-115309854D01*
X119099003Y-115280777D01*
X118987347Y-115269780D01*
X118875691Y-115280777D01*
X118768325Y-115313346D01*
X118669376Y-115366235D01*
X118582647Y-115437412D01*
X117937412Y-116082647D01*
X117866235Y-116169376D01*
X117813346Y-116268325D01*
X117780777Y-116375691D01*
X117769780Y-116487347D01*
X117780777Y-116599003D01*
X117813346Y-116706369D01*
X117866235Y-116805318D01*
X117937412Y-116892047D01*
X118254321Y-117208956D01*
X118228779Y-117222609D01*
X118148533Y-117288465D01*
X118133905Y-117306289D01*
X118122462Y-117284881D01*
X118043109Y-117188190D01*
X118034396Y-117183822D01*
X117809889Y-117183822D01*
X117336658Y-117657053D01*
X117350801Y-117671196D01*
X117171196Y-117850801D01*
X117157053Y-117836658D01*
X116683822Y-118309889D01*
X115223269Y-118309889D01*
X116167212Y-117365946D01*
X116132680Y-117430551D01*
X116096371Y-117550249D01*
X116084110Y-117674731D01*
X116096371Y-117799212D01*
X116132680Y-117918910D01*
X116191644Y-118029225D01*
X116270997Y-118125916D01*
X116279710Y-118130284D01*
X116504217Y-118130284D01*
X116977448Y-117657053D01*
X116963306Y-117642911D01*
X117142911Y-117463306D01*
X117157053Y-117477448D01*
X117630284Y-117004217D01*
X117630284Y-116779710D01*
X117625916Y-116770997D01*
X117529225Y-116691644D01*
X117418910Y-116632680D01*
X117299212Y-116596371D01*
X117174731Y-116584110D01*
X117050249Y-116596371D01*
X116930551Y-116632680D01*
X116865946Y-116667212D01*
X118279673Y-115253485D01*
X118314980Y-115210464D01*
X118349987Y-115144970D01*
X118358158Y-115118034D01*
X118414639Y-115047281D01*
X118432017Y-115020521D01*
X118449761Y-114994016D01*
X118452053Y-114989668D01*
X118547317Y-114805887D01*
X118559158Y-114776282D01*
X118571427Y-114746810D01*
X118572831Y-114742099D01*
X118628244Y-114551362D01*
X120761058Y-112418548D01*
X121923000Y-112418548D01*
X121923000Y-112581452D01*
X121954782Y-112741227D01*
X122017123Y-112891731D01*
X122107628Y-113027181D01*
X122222819Y-113142372D01*
X122358269Y-113232877D01*
X122508773Y-113295218D01*
X122668548Y-113327000D01*
X122831452Y-113327000D01*
X122991227Y-113295218D01*
X123141731Y-113232877D01*
X123277181Y-113142372D01*
X123392372Y-113027181D01*
X123482877Y-112891731D01*
X123545218Y-112741227D01*
X123577000Y-112581452D01*
X123577000Y-112418548D01*
X123576957Y-112418332D01*
X124099497Y-111895793D01*
X124186827Y-111904394D01*
X124298483Y-111893397D01*
X124405849Y-111860828D01*
X124504798Y-111807939D01*
X124591527Y-111736762D01*
X125135914Y-111192375D01*
X125135913Y-111535798D01*
X124763238Y-111908473D01*
X124692061Y-111995202D01*
X124639172Y-112094151D01*
X124606603Y-112201517D01*
X124595606Y-112313173D01*
X124606603Y-112424829D01*
X124639172Y-112532195D01*
X124692061Y-112631144D01*
X124763238Y-112717873D01*
X125107953Y-113062588D01*
X125194682Y-113133765D01*
X125293631Y-113186654D01*
X125400997Y-113219223D01*
X125512653Y-113230220D01*
X125624309Y-113219223D01*
X125731675Y-113186654D01*
X125830624Y-113133765D01*
X125917353Y-113062588D01*
X126562588Y-112417353D01*
X126633765Y-112330624D01*
X126686654Y-112231675D01*
X126719223Y-112124309D01*
X126730220Y-112012653D01*
X126719223Y-111900997D01*
X126686654Y-111793631D01*
X126633765Y-111694682D01*
X126562588Y-111607953D01*
X126217873Y-111263238D01*
X126189913Y-111240292D01*
X126189913Y-110913753D01*
X126292698Y-110903629D01*
X126412396Y-110867320D01*
X126522710Y-110808356D01*
X126619401Y-110729003D01*
X126641448Y-110702612D01*
X126641448Y-110478106D01*
X126185894Y-110022552D01*
X126171752Y-110036695D01*
X125992147Y-109857090D01*
X126006289Y-109842947D01*
X126365499Y-109842947D01*
X126821053Y-110298501D01*
X127045559Y-110298501D01*
X127071950Y-110276454D01*
X127151303Y-110179763D01*
X127210267Y-110069449D01*
X127246576Y-109949751D01*
X127258837Y-109825269D01*
X127246576Y-109700788D01*
X127210267Y-109581090D01*
X127151303Y-109470775D01*
X127071950Y-109374084D01*
X127063237Y-109369716D01*
X126838730Y-109369716D01*
X126365499Y-109842947D01*
X126006289Y-109842947D01*
X125992147Y-109828805D01*
X126171752Y-109649200D01*
X126185894Y-109663342D01*
X126659125Y-109190111D01*
X126659125Y-108965604D01*
X126654757Y-108956891D01*
X126558066Y-108877538D01*
X126447751Y-108818574D01*
X126328053Y-108782265D01*
X126203572Y-108770004D01*
X126079090Y-108782265D01*
X126050975Y-108790794D01*
X125854319Y-108594138D01*
X125782175Y-108534931D01*
X125699867Y-108490937D01*
X125610557Y-108463845D01*
X125517678Y-108454697D01*
X125424799Y-108463845D01*
X125335489Y-108490937D01*
X125253181Y-108534931D01*
X125181037Y-108594138D01*
X124937085Y-108838090D01*
X124877878Y-108910234D01*
X124833884Y-108992542D01*
X124806792Y-109081852D01*
X124797644Y-109174731D01*
X124806792Y-109267610D01*
X124833884Y-109356920D01*
X124877878Y-109439228D01*
X124885110Y-109448040D01*
X124885110Y-109931719D01*
X124805318Y-109866235D01*
X124706369Y-109813346D01*
X124599003Y-109780777D01*
X124487347Y-109769780D01*
X124375691Y-109780777D01*
X124268325Y-109813346D01*
X124169376Y-109866235D01*
X124082647Y-109937412D01*
X123437412Y-110582647D01*
X123366235Y-110669376D01*
X123313346Y-110768325D01*
X123280777Y-110875691D01*
X123269780Y-110987347D01*
X123280777Y-111099003D01*
X123309854Y-111194857D01*
X122831668Y-111673043D01*
X122831452Y-111673000D01*
X122668548Y-111673000D01*
X122508773Y-111704782D01*
X122358269Y-111767123D01*
X122222819Y-111857628D01*
X122107628Y-111972819D01*
X122017123Y-112108269D01*
X121954782Y-112258773D01*
X121923000Y-112418548D01*
X120761058Y-112418548D01*
X121300467Y-111879139D01*
X121307851Y-111877757D01*
X121312562Y-111876352D01*
X121510521Y-111815830D01*
X121539927Y-111803590D01*
X121569596Y-111791723D01*
X121573944Y-111789430D01*
X121756378Y-111691610D01*
X121782878Y-111673869D01*
X121809646Y-111656486D01*
X121813465Y-111653393D01*
X121971659Y-111523450D01*
X121986674Y-111511128D01*
X126761127Y-106736674D01*
X126770817Y-106724868D01*
X126773912Y-106721815D01*
X126777032Y-106718017D01*
X126863880Y-106610769D01*
X126881427Y-106584157D01*
X126899375Y-106557748D01*
X126901694Y-106553421D01*
X126901697Y-106553417D01*
X126901699Y-106553413D01*
X126966060Y-106431342D01*
X126978119Y-106401793D01*
X126990581Y-106372436D01*
X126992017Y-106367736D01*
X127031443Y-106235485D01*
X127037522Y-106204210D01*
X127044055Y-106172938D01*
X127044552Y-106168048D01*
X127057539Y-106030658D01*
X127057428Y-105998761D01*
X127057762Y-105966853D01*
X127057299Y-105961960D01*
X127043353Y-105824663D01*
X127037058Y-105793442D01*
X127031179Y-105762030D01*
X127029774Y-105757320D01*
X126989426Y-105625348D01*
X126977175Y-105595917D01*
X126965319Y-105566274D01*
X126963026Y-105561926D01*
X126963026Y-105561925D01*
X126963023Y-105561921D01*
X126897814Y-105440303D01*
X126880083Y-105413818D01*
X126862689Y-105387033D01*
X126859595Y-105383214D01*
X126857916Y-105381170D01*
X126849987Y-105355031D01*
X126814979Y-105289537D01*
X126779673Y-105246516D01*
X125904767Y-104371610D01*
X125918910Y-104367320D01*
X126029225Y-104308356D01*
X126125916Y-104229003D01*
X126130284Y-104220290D01*
X126130284Y-103995783D01*
X125657053Y-103522552D01*
X125642911Y-103536695D01*
X125463306Y-103357090D01*
X125477448Y-103342947D01*
X125004217Y-102869716D01*
X124779710Y-102869716D01*
X124770997Y-102874084D01*
X124691644Y-102970775D01*
X124632680Y-103081090D01*
X124628390Y-103095233D01*
X124155692Y-102622535D01*
X124169376Y-102633765D01*
X124268325Y-102686654D01*
X124375691Y-102719223D01*
X124487347Y-102730220D01*
X124599003Y-102719223D01*
X124706369Y-102686654D01*
X124805318Y-102633765D01*
X124892047Y-102562588D01*
X125208957Y-102245678D01*
X125222609Y-102271220D01*
X125222610Y-102271221D01*
X125288466Y-102351467D01*
X125306290Y-102366095D01*
X125284881Y-102377538D01*
X125188190Y-102456891D01*
X125183822Y-102465604D01*
X125183822Y-102690111D01*
X125657053Y-103163342D01*
X125671196Y-103149200D01*
X125850801Y-103328805D01*
X125836658Y-103342947D01*
X126309889Y-103816178D01*
X126534396Y-103816178D01*
X126543109Y-103811810D01*
X126622462Y-103715119D01*
X126681426Y-103604804D01*
X126717735Y-103485106D01*
X126729996Y-103360625D01*
X126717735Y-103236143D01*
X126709206Y-103208028D01*
X126905862Y-103011372D01*
X126965069Y-102939228D01*
X127009063Y-102856920D01*
X127036155Y-102767610D01*
X127045303Y-102674731D01*
X127036155Y-102581852D01*
X127009063Y-102492542D01*
X126965069Y-102410234D01*
X126905862Y-102338090D01*
X126661910Y-102094138D01*
X126589766Y-102034931D01*
X126507458Y-101990937D01*
X126418148Y-101963845D01*
X126392503Y-101961319D01*
X126189913Y-101758730D01*
X126189913Y-101259708D01*
X126217873Y-101236762D01*
X126562588Y-100892047D01*
X126633765Y-100805318D01*
X126686654Y-100706369D01*
X126719223Y-100599003D01*
X126730220Y-100487347D01*
X126719223Y-100375691D01*
X126686654Y-100268325D01*
X126633765Y-100169376D01*
X126562588Y-100082647D01*
X125917353Y-99437412D01*
X125830624Y-99366235D01*
X125731675Y-99313346D01*
X125624309Y-99280777D01*
X125512653Y-99269780D01*
X125400997Y-99280777D01*
X125293631Y-99313346D01*
X125194682Y-99366235D01*
X125107953Y-99437412D01*
X124763238Y-99782127D01*
X124692061Y-99868856D01*
X124639172Y-99967805D01*
X124606603Y-100075171D01*
X124595606Y-100186827D01*
X124606603Y-100298483D01*
X124639172Y-100405849D01*
X124692061Y-100504798D01*
X124763238Y-100591527D01*
X125135913Y-100964202D01*
X125135914Y-101307625D01*
X124591527Y-100763238D01*
X124504798Y-100692061D01*
X124405849Y-100639172D01*
X124298483Y-100606603D01*
X124186827Y-100595606D01*
X124099497Y-100604207D01*
X123826957Y-100331667D01*
X123827000Y-100331452D01*
X123827000Y-100168548D01*
X123795218Y-100008773D01*
X123732877Y-99858269D01*
X123642372Y-99722819D01*
X123527181Y-99607628D01*
X123391731Y-99517123D01*
X123241227Y-99454782D01*
X123081452Y-99423000D01*
X122918548Y-99423000D01*
X122776823Y-99451191D01*
X122783454Y-99446761D01*
X123003111Y-99227104D01*
X123175694Y-98968814D01*
X123294571Y-98681819D01*
X123355175Y-98377146D01*
X123355175Y-98066504D01*
X123294571Y-97761831D01*
X123175694Y-97474836D01*
X123003111Y-97216546D01*
X122783454Y-96996889D01*
X122525164Y-96824306D01*
X122238169Y-96705429D01*
X121933496Y-96644825D01*
X121622854Y-96644825D01*
X121318181Y-96705429D01*
X121031186Y-96824306D01*
X120772896Y-96996889D01*
X120553239Y-97216546D01*
X120380656Y-97474836D01*
X120261779Y-97761831D01*
X120201175Y-98066504D01*
X120201175Y-98377146D01*
X120261779Y-98681819D01*
X120294873Y-98761716D01*
X118155695Y-96622537D01*
X118169376Y-96633765D01*
X118268325Y-96686654D01*
X118375691Y-96719223D01*
X118487347Y-96730220D01*
X118599003Y-96719223D01*
X118706369Y-96686654D01*
X118805318Y-96633765D01*
X118850992Y-96596281D01*
X118923043Y-96668332D01*
X118923000Y-96668548D01*
X118923000Y-96831452D01*
X118954782Y-96991227D01*
X119017123Y-97141731D01*
X119107628Y-97277181D01*
X119222819Y-97392372D01*
X119358269Y-97482877D01*
X119508773Y-97545218D01*
X119668548Y-97577000D01*
X119831452Y-97577000D01*
X119991227Y-97545218D01*
X120141731Y-97482877D01*
X120277181Y-97392372D01*
X120392372Y-97277181D01*
X120482877Y-97141731D01*
X120545218Y-96991227D01*
X120577000Y-96831452D01*
X120577000Y-96668548D01*
X120545218Y-96508773D01*
X120482877Y-96358269D01*
X120392372Y-96222819D01*
X120277181Y-96107628D01*
X120141731Y-96017123D01*
X119991227Y-95954782D01*
X119831452Y-95923000D01*
X119668548Y-95923000D01*
X119668332Y-95923043D01*
X119370141Y-95624852D01*
X119360828Y-95594151D01*
X119307939Y-95495202D01*
X119236762Y-95408473D01*
X118591527Y-94763238D01*
X118504798Y-94692061D01*
X118405849Y-94639172D01*
X118298483Y-94606603D01*
X118186827Y-94595606D01*
X118075171Y-94606603D01*
X117967805Y-94639172D01*
X117868856Y-94692061D01*
X117782127Y-94763238D01*
X117437412Y-95107953D01*
X117366235Y-95194682D01*
X117313346Y-95293631D01*
X117280777Y-95400997D01*
X117269780Y-95512653D01*
X117280777Y-95624309D01*
X117313346Y-95731675D01*
X117366235Y-95830624D01*
X117377463Y-95844305D01*
X117009246Y-95476088D01*
X117029225Y-95465409D01*
X117125916Y-95386056D01*
X117130284Y-95377343D01*
X117130284Y-95152836D01*
X116657053Y-94679605D01*
X116642911Y-94693748D01*
X116463306Y-94514143D01*
X116477448Y-94500000D01*
X116004217Y-94026769D01*
X115779710Y-94026769D01*
X115770997Y-94031137D01*
X115691644Y-94127828D01*
X115680965Y-94147807D01*
X115155815Y-93622657D01*
X116183822Y-93622657D01*
X116183822Y-93847164D01*
X116657053Y-94320395D01*
X116671196Y-94306253D01*
X116850801Y-94485858D01*
X116836658Y-94500000D01*
X117309889Y-94973231D01*
X117534396Y-94973231D01*
X117543109Y-94968863D01*
X117622462Y-94872172D01*
X117681426Y-94761857D01*
X117717735Y-94642159D01*
X117729996Y-94517678D01*
X117717735Y-94393196D01*
X117709206Y-94365081D01*
X117733181Y-94341106D01*
X118619532Y-94341106D01*
X118639172Y-94405849D01*
X118692061Y-94504798D01*
X118763238Y-94591527D01*
X119408473Y-95236762D01*
X119495202Y-95307939D01*
X119594151Y-95360828D01*
X119701517Y-95393397D01*
X119813173Y-95404394D01*
X119924829Y-95393397D01*
X120032195Y-95360828D01*
X120131144Y-95307939D01*
X120217873Y-95236762D01*
X120562588Y-94892047D01*
X120633765Y-94805318D01*
X120686654Y-94706369D01*
X120719223Y-94599003D01*
X120730220Y-94487347D01*
X120719223Y-94375691D01*
X120686654Y-94268325D01*
X120633765Y-94169376D01*
X120562588Y-94082647D01*
X119917353Y-93437412D01*
X119830624Y-93366235D01*
X119731675Y-93313346D01*
X119624309Y-93280777D01*
X119512653Y-93269780D01*
X119400997Y-93280777D01*
X119299117Y-93311682D01*
X119243242Y-93294732D01*
X119165813Y-93287106D01*
X119139932Y-93284557D01*
X119114051Y-93287106D01*
X117697825Y-93287106D01*
X117661910Y-93251191D01*
X117589766Y-93191984D01*
X117507458Y-93147990D01*
X117418148Y-93120898D01*
X117325269Y-93111750D01*
X117232390Y-93120898D01*
X117143080Y-93147990D01*
X117060772Y-93191984D01*
X116988628Y-93251191D01*
X116791972Y-93447847D01*
X116763857Y-93439318D01*
X116639375Y-93427057D01*
X116514894Y-93439318D01*
X116395196Y-93475627D01*
X116284881Y-93534591D01*
X116188190Y-93613944D01*
X116183822Y-93622657D01*
X115155815Y-93622657D01*
X114753484Y-93220326D01*
X114710463Y-93185020D01*
X114644969Y-93150012D01*
X114617715Y-93141745D01*
X114610769Y-93136120D01*
X114584157Y-93118573D01*
X114557748Y-93100625D01*
X114553421Y-93098306D01*
X114553417Y-93098303D01*
X114553413Y-93098301D01*
X114431341Y-93033940D01*
X114401881Y-93021918D01*
X114372437Y-93009419D01*
X114367736Y-93007983D01*
X114235485Y-92968557D01*
X114204239Y-92962483D01*
X114172937Y-92955944D01*
X114168047Y-92955448D01*
X114030658Y-92942461D01*
X113998761Y-92942572D01*
X113966853Y-92942238D01*
X113961960Y-92942701D01*
X113824663Y-92956647D01*
X113793442Y-92962942D01*
X113762030Y-92968821D01*
X113757320Y-92970226D01*
X113625348Y-93010574D01*
X113595917Y-93022825D01*
X113566274Y-93034681D01*
X113561930Y-93036972D01*
X113561925Y-93036974D01*
X113561921Y-93036977D01*
X113440303Y-93102186D01*
X113413818Y-93119917D01*
X113387033Y-93137311D01*
X113383214Y-93140405D01*
X113277182Y-93227501D01*
X113263326Y-93238873D01*
X109738873Y-96763327D01*
X109727338Y-96777382D01*
X109717599Y-96787121D01*
X109714506Y-96790941D01*
X109585361Y-96952719D01*
X109567983Y-96979479D01*
X109550239Y-97005984D01*
X109547947Y-97010332D01*
X109452683Y-97194113D01*
X109440836Y-97223731D01*
X109428573Y-97253191D01*
X109427169Y-97257901D01*
X109371755Y-97448639D01*
X106699533Y-100120861D01*
X106692149Y-100122243D01*
X106687438Y-100123648D01*
X106489479Y-100184170D01*
X106460073Y-100196410D01*
X106430404Y-100208277D01*
X106426057Y-100210570D01*
X106243622Y-100308390D01*
X106217114Y-100326136D01*
X106190354Y-100343514D01*
X106186535Y-100346607D01*
X106131169Y-100392085D01*
X106105031Y-100400014D01*
X106039537Y-100435021D01*
X105996516Y-100470328D01*
X101220327Y-105246517D01*
X101185021Y-105289538D01*
X101150013Y-105355032D01*
X101141747Y-105382283D01*
X101136120Y-105389231D01*
X101118573Y-105415843D01*
X101100625Y-105442252D01*
X101098306Y-105446579D01*
X101098303Y-105446583D01*
X101098303Y-105446584D01*
X101033940Y-105568659D01*
X101021918Y-105598119D01*
X101009419Y-105627563D01*
X101007983Y-105632264D01*
X100968557Y-105764515D01*
X100962483Y-105795761D01*
X100955944Y-105827063D01*
X100955448Y-105831953D01*
X100942461Y-105969342D01*
X100942572Y-106001238D01*
X100942238Y-106033146D01*
X100942701Y-106038040D01*
X100951664Y-106126276D01*
X100930551Y-106132680D01*
X100820237Y-106191644D01*
X100723546Y-106270997D01*
X100701499Y-106297388D01*
X100701499Y-106521894D01*
X101157053Y-106977448D01*
X101171196Y-106963306D01*
X101350801Y-107142911D01*
X101336658Y-107157053D01*
X101350801Y-107171196D01*
X101171196Y-107350801D01*
X101157053Y-107336658D01*
X100683822Y-107809889D01*
X100377000Y-107809889D01*
X100377000Y-107630284D01*
X100504217Y-107630284D01*
X100977448Y-107157053D01*
X100521894Y-106701499D01*
X100377000Y-106701499D01*
X100377000Y-102809889D01*
X101183822Y-102809889D01*
X101183822Y-103034396D01*
X101188190Y-103043109D01*
X101284881Y-103122462D01*
X101395196Y-103181426D01*
X101514894Y-103217735D01*
X101639375Y-103229996D01*
X101763857Y-103217735D01*
X101791972Y-103209206D01*
X101988628Y-103405862D01*
X102060772Y-103465069D01*
X102143080Y-103509063D01*
X102232390Y-103536155D01*
X102325269Y-103545303D01*
X102418148Y-103536155D01*
X102507458Y-103509063D01*
X102589766Y-103465069D01*
X102661910Y-103405862D01*
X102905862Y-103161910D01*
X102965069Y-103089766D01*
X103009063Y-103007458D01*
X103036155Y-102918148D01*
X103045303Y-102825269D01*
X103036155Y-102732390D01*
X103009063Y-102643080D01*
X102965069Y-102560772D01*
X102957837Y-102551960D01*
X102957837Y-101912472D01*
X103107953Y-102062588D01*
X103194682Y-102133765D01*
X103293631Y-102186654D01*
X103400997Y-102219223D01*
X103512653Y-102230220D01*
X103624309Y-102219223D01*
X103731675Y-102186654D01*
X103830624Y-102133765D01*
X103917353Y-102062588D01*
X104562588Y-101417353D01*
X104633765Y-101330624D01*
X104686654Y-101231675D01*
X104719223Y-101124309D01*
X104730220Y-101012653D01*
X104719223Y-100900997D01*
X104690146Y-100805144D01*
X104918333Y-100576957D01*
X104918548Y-100577000D01*
X105081452Y-100577000D01*
X105241227Y-100545218D01*
X105391731Y-100482877D01*
X105527181Y-100392372D01*
X105642372Y-100277181D01*
X105732877Y-100141731D01*
X105795218Y-99991227D01*
X105827000Y-99831452D01*
X105827000Y-99668548D01*
X105795218Y-99508773D01*
X105732877Y-99358269D01*
X105642372Y-99222819D01*
X105527181Y-99107628D01*
X105391731Y-99017123D01*
X105241227Y-98954782D01*
X105081452Y-98923000D01*
X104918548Y-98923000D01*
X104758773Y-98954782D01*
X104608269Y-99017123D01*
X104472819Y-99107628D01*
X104357628Y-99222819D01*
X104267123Y-99358269D01*
X104204782Y-99508773D01*
X104173000Y-99668548D01*
X104173000Y-99831452D01*
X104173043Y-99831667D01*
X103900503Y-100104207D01*
X103813173Y-100095606D01*
X103701517Y-100106603D01*
X103594151Y-100139172D01*
X103495202Y-100192061D01*
X103408473Y-100263238D01*
X102957837Y-100713874D01*
X102957837Y-100370452D01*
X103236762Y-100091527D01*
X103307939Y-100004798D01*
X103360828Y-99905849D01*
X103393397Y-99798483D01*
X103404394Y-99686827D01*
X103393397Y-99575171D01*
X103360828Y-99467805D01*
X103307939Y-99368856D01*
X103236762Y-99282127D01*
X102892047Y-98937412D01*
X102805318Y-98866235D01*
X102706369Y-98813346D01*
X102599003Y-98780777D01*
X102487347Y-98769780D01*
X102375691Y-98780777D01*
X102268325Y-98813346D01*
X102169376Y-98866235D01*
X102082647Y-98937412D01*
X101437412Y-99582647D01*
X101366235Y-99669376D01*
X101313346Y-99768325D01*
X101280777Y-99875691D01*
X101269780Y-99987347D01*
X101280777Y-100099003D01*
X101313346Y-100206369D01*
X101366235Y-100305318D01*
X101437412Y-100392047D01*
X101782127Y-100736762D01*
X101868856Y-100807939D01*
X101903838Y-100826637D01*
X101903838Y-101128108D01*
X101799212Y-101096371D01*
X101674731Y-101084110D01*
X101550249Y-101096371D01*
X101430551Y-101132680D01*
X101320237Y-101191644D01*
X101223546Y-101270997D01*
X101201499Y-101297388D01*
X101201499Y-101521894D01*
X101657053Y-101977448D01*
X101671196Y-101963306D01*
X101850801Y-102142911D01*
X101836658Y-102157053D01*
X101850801Y-102171196D01*
X101671196Y-102350801D01*
X101657053Y-102336658D01*
X101183822Y-102809889D01*
X100377000Y-102809889D01*
X100377000Y-102174731D01*
X100584110Y-102174731D01*
X100596371Y-102299212D01*
X100632680Y-102418910D01*
X100691644Y-102529225D01*
X100770997Y-102625916D01*
X100779710Y-102630284D01*
X101004217Y-102630284D01*
X101477448Y-102157053D01*
X101021894Y-101701499D01*
X100797388Y-101701499D01*
X100770997Y-101723546D01*
X100691644Y-101820237D01*
X100632680Y-101930551D01*
X100596371Y-102050249D01*
X100584110Y-102174731D01*
X100377000Y-102174731D01*
X100377000Y-95950718D01*
X100389131Y-95962849D01*
X100803017Y-96239398D01*
X101262901Y-96429889D01*
X101751112Y-96527000D01*
X102248888Y-96527000D01*
X102737099Y-96429889D01*
X103196983Y-96239398D01*
X103610869Y-95962849D01*
X103962849Y-95610869D01*
X104239398Y-95196983D01*
X104429889Y-94737099D01*
X104479567Y-94487347D01*
X106769780Y-94487347D01*
X106780777Y-94599003D01*
X106813346Y-94706369D01*
X106866235Y-94805318D01*
X106937412Y-94892047D01*
X107282127Y-95236762D01*
X107368856Y-95307939D01*
X107467805Y-95360828D01*
X107575171Y-95393397D01*
X107686827Y-95404394D01*
X107798483Y-95393397D01*
X107905849Y-95360828D01*
X108004798Y-95307939D01*
X108091527Y-95236762D01*
X108464202Y-94864087D01*
X108807624Y-94864087D01*
X108263238Y-95408473D01*
X108192061Y-95495202D01*
X108139172Y-95594151D01*
X108106603Y-95701517D01*
X108095606Y-95813173D01*
X108104207Y-95900503D01*
X107831667Y-96173043D01*
X107831452Y-96173000D01*
X107668548Y-96173000D01*
X107508773Y-96204782D01*
X107358269Y-96267123D01*
X107222819Y-96357628D01*
X107107628Y-96472819D01*
X107017123Y-96608269D01*
X106954782Y-96758773D01*
X106923000Y-96918548D01*
X106923000Y-97081452D01*
X106954782Y-97241227D01*
X107017123Y-97391731D01*
X107107628Y-97527181D01*
X107222819Y-97642372D01*
X107358269Y-97732877D01*
X107508773Y-97795218D01*
X107668548Y-97827000D01*
X107831452Y-97827000D01*
X107991227Y-97795218D01*
X108141731Y-97732877D01*
X108277181Y-97642372D01*
X108392372Y-97527181D01*
X108482877Y-97391731D01*
X108545218Y-97241227D01*
X108577000Y-97081452D01*
X108577000Y-96918548D01*
X108576957Y-96918333D01*
X108805144Y-96690146D01*
X108900997Y-96719223D01*
X109012653Y-96730220D01*
X109124309Y-96719223D01*
X109231675Y-96686654D01*
X109330624Y-96633765D01*
X109417353Y-96562588D01*
X110062588Y-95917353D01*
X110133765Y-95830624D01*
X110186654Y-95731675D01*
X110219223Y-95624309D01*
X110230220Y-95512653D01*
X110219223Y-95400997D01*
X110186654Y-95293631D01*
X110133765Y-95194682D01*
X110062588Y-95107953D01*
X109818722Y-94864087D01*
X110822926Y-94864087D01*
X110848807Y-94866636D01*
X110874688Y-94864087D01*
X110952117Y-94856461D01*
X111051457Y-94826326D01*
X111143009Y-94777391D01*
X111223255Y-94711535D01*
X111239762Y-94691421D01*
X111392502Y-94538681D01*
X111418148Y-94536155D01*
X111507458Y-94509063D01*
X111589766Y-94465069D01*
X111661910Y-94405862D01*
X111905862Y-94161910D01*
X111965069Y-94089766D01*
X112009063Y-94007458D01*
X112036155Y-93918148D01*
X112045303Y-93825269D01*
X112036155Y-93732390D01*
X112009063Y-93643080D01*
X111965069Y-93560772D01*
X111905862Y-93488628D01*
X111709206Y-93291972D01*
X111717735Y-93263857D01*
X111729996Y-93139375D01*
X111717735Y-93014894D01*
X111681426Y-92895196D01*
X111622462Y-92784881D01*
X111543109Y-92688190D01*
X111534396Y-92683822D01*
X111309889Y-92683822D01*
X110836658Y-93157053D01*
X110850801Y-93171196D01*
X110671196Y-93350801D01*
X110657053Y-93336658D01*
X110642911Y-93350801D01*
X110463306Y-93171196D01*
X110477448Y-93157053D01*
X110021894Y-92701499D01*
X109797388Y-92701499D01*
X109770997Y-92723546D01*
X109691644Y-92820237D01*
X109632680Y-92930551D01*
X109596371Y-93050249D01*
X109584110Y-93174731D01*
X109596371Y-93299212D01*
X109632680Y-93418910D01*
X109691644Y-93529225D01*
X109770997Y-93625916D01*
X109779710Y-93630284D01*
X110004214Y-93630284D01*
X109891962Y-93742536D01*
X109959513Y-93810087D01*
X108759708Y-93810087D01*
X108736762Y-93782127D01*
X108392047Y-93437412D01*
X108305318Y-93366235D01*
X108206369Y-93313346D01*
X108099003Y-93280777D01*
X107987347Y-93269780D01*
X107875691Y-93280777D01*
X107768325Y-93313346D01*
X107669376Y-93366235D01*
X107582647Y-93437412D01*
X106937412Y-94082647D01*
X106866235Y-94169376D01*
X106813346Y-94268325D01*
X106780777Y-94375691D01*
X106769780Y-94487347D01*
X104479567Y-94487347D01*
X104527000Y-94248888D01*
X104527000Y-93751112D01*
X104429889Y-93262901D01*
X104239398Y-92803017D01*
X103962849Y-92389131D01*
X103950718Y-92377000D01*
X110201499Y-92377000D01*
X110201499Y-92521894D01*
G37*
X110201499Y-92521894D02*
X110657053Y-92977448D01*
X111130284Y-92504217D01*
X111130284Y-92377000D01*
X124049282Y-92377000D01*
X124037151Y-92389131D01*
X123760602Y-92803017D01*
X123570111Y-93262901D01*
X123473000Y-93751112D01*
X123473000Y-94248888D01*
X123570111Y-94737099D01*
X123760602Y-95196983D01*
X124037151Y-95610869D01*
X124389131Y-95962849D01*
X124803017Y-96239398D01*
X125262901Y-96429889D01*
X125751112Y-96527000D01*
X126248888Y-96527000D01*
X126737099Y-96429889D01*
X127196983Y-96239398D01*
X127610869Y-95962849D01*
X127623000Y-95950718D01*
X127623001Y-116049283D01*
X127610869Y-116037151D01*
X127196983Y-115760602D01*
X126737099Y-115570111D01*
X126248888Y-115473000D01*
X125751112Y-115473000D01*
X125262901Y-115570111D01*
X124803017Y-115760602D01*
X124389131Y-116037151D01*
X124037151Y-116389131D01*
X123760602Y-116803017D01*
X123570111Y-117262901D01*
X123473000Y-117751112D01*
X123473000Y-118248888D01*
X123570111Y-118737099D01*
X123760602Y-119196983D01*
X124037151Y-119610869D01*
X124049282Y-119623000D01*
X113298501Y-119623000D01*
X113298501Y-119478106D01*
X112842947Y-119022552D01*
X112369716Y-119495783D01*
X112369716Y-119623000D01*
X103950718Y-119623000D01*
X103962849Y-119610869D01*
X104239398Y-119196983D01*
X104429889Y-118737099D01*
X104527000Y-118248888D01*
X104527000Y-117751112D01*
X104429889Y-117262901D01*
X104239398Y-116803017D01*
X103962849Y-116389131D01*
X103610869Y-116037151D01*
X103196983Y-115760602D01*
X102737099Y-115570111D01*
X102248888Y-115473000D01*
X101751112Y-115473000D01*
X101262901Y-115570111D01*
X100803017Y-115760602D01*
X100389131Y-116037151D01*
X100377000Y-116049282D01*
X100377000Y-114371874D01*
X100505881Y-114371874D01*
X100522554Y-114426864D01*
X100612877Y-114630206D01*
X100741135Y-114812020D01*
X100902399Y-114965318D01*
X101090471Y-115084210D01*
X101298124Y-115164126D01*
X101473000Y-115039129D01*
X101473000Y-114197000D01*
X101727000Y-114197000D01*
X101727000Y-115039129D01*
X101901876Y-115164126D01*
X102109529Y-115084210D01*
X102297601Y-114965318D01*
X102458865Y-114812020D01*
X102587123Y-114630206D01*
X102677446Y-114426864D01*
X102694119Y-114371874D01*
X102567954Y-114197000D01*
X101727000Y-114197000D01*
X101473000Y-114197000D01*
X100632046Y-114197000D01*
X100505881Y-114371874D01*
X100377000Y-114371874D01*
X100377000Y-113768126D01*
X100505881Y-113768126D01*
X100632046Y-113943000D01*
X101473000Y-113943000D01*
X101473000Y-113923000D01*
X101727000Y-113923000D01*
X101727000Y-113943000D01*
X102567954Y-113943000D01*
X102694119Y-113768126D01*
X102677446Y-113713136D01*
X102587123Y-113509794D01*
X102458865Y-113327980D01*
X102428582Y-113299193D01*
X102428582Y-112300000D01*
X102422268Y-112235897D01*
X102403570Y-112174257D01*
X102373206Y-112117450D01*
X102332343Y-112067657D01*
X102282550Y-112026794D01*
X102225743Y-111996430D01*
X102164103Y-111977732D01*
X102100000Y-111971418D01*
X101100000Y-111971418D01*
X101035897Y-111977732D01*
X100974257Y-111996430D01*
X100917450Y-112026794D01*
X100867657Y-112067657D01*
X100826794Y-112117450D01*
X100796430Y-112174257D01*
X100777732Y-112235897D01*
X100771418Y-112300000D01*
X100771418Y-113299193D01*
X100741135Y-113327980D01*
X100612877Y-113509794D01*
X100522554Y-113713136D01*
X100505881Y-113768126D01*
X100377000Y-113768126D01*
X100377000Y-110813173D01*
X102595606Y-110813173D01*
X102606603Y-110924829D01*
X102639172Y-111032195D01*
X102692061Y-111131144D01*
X102763238Y-111217873D01*
X103107953Y-111562588D01*
X103194682Y-111633765D01*
X103293631Y-111686654D01*
X103400997Y-111719223D01*
X103512653Y-111730220D01*
X103624309Y-111719223D01*
X103731675Y-111686654D01*
X103830624Y-111633765D01*
X103862399Y-111607688D01*
X103923043Y-111668332D01*
X103923000Y-111668548D01*
X103923000Y-111831452D01*
X103954782Y-111991227D01*
X104017123Y-112141731D01*
X104107628Y-112277181D01*
X104222819Y-112392372D01*
X104358269Y-112482877D01*
X104508773Y-112545218D01*
X104668548Y-112577000D01*
X104831452Y-112577000D01*
X104991227Y-112545218D01*
X105141731Y-112482877D01*
X105277181Y-112392372D01*
X105392372Y-112277181D01*
X105482877Y-112141731D01*
X105545218Y-111991227D01*
X105577000Y-111831452D01*
X105577000Y-111668548D01*
X105545218Y-111508773D01*
X105482877Y-111358269D01*
X105392372Y-111222819D01*
X105277181Y-111107628D01*
X105141731Y-111017123D01*
X104991227Y-110954782D01*
X104831452Y-110923000D01*
X104668548Y-110923000D01*
X104668332Y-110923043D01*
X104607688Y-110862399D01*
X104633765Y-110830624D01*
X104686654Y-110731675D01*
X104719223Y-110624309D01*
X104730220Y-110512653D01*
X104719223Y-110400997D01*
X104686654Y-110293631D01*
X104633765Y-110194682D01*
X104562588Y-110107953D01*
X104217873Y-109763238D01*
X104131144Y-109692061D01*
X104032195Y-109639172D01*
X103924829Y-109606603D01*
X103813173Y-109595606D01*
X103701517Y-109606603D01*
X103594151Y-109639172D01*
X103495202Y-109692061D01*
X103408473Y-109763238D01*
X102763238Y-110408473D01*
X102692061Y-110495202D01*
X102639172Y-110594151D01*
X102606603Y-110701517D01*
X102595606Y-110813173D01*
X100377000Y-110813173D01*
X100377000Y-107809889D01*
X100683822Y-107809889D01*
X100683822Y-108034396D01*
X100688190Y-108043109D01*
X100784881Y-108122462D01*
X100895196Y-108181426D01*
X101014894Y-108217735D01*
X101139375Y-108229996D01*
X101263857Y-108217735D01*
X101291972Y-108209206D01*
X101488628Y-108405862D01*
X101560772Y-108465069D01*
X101643080Y-108509063D01*
X101732390Y-108536155D01*
X101797254Y-108542544D01*
X101810088Y-108555377D01*
X101810088Y-108709971D01*
X101437412Y-109082647D01*
X101366235Y-109169376D01*
X101313346Y-109268325D01*
X101280777Y-109375691D01*
X101269780Y-109487347D01*
X101280777Y-109599003D01*
X101313346Y-109706369D01*
X101366235Y-109805318D01*
X101437412Y-109892047D01*
X101782127Y-110236762D01*
X101868856Y-110307939D01*
X101967805Y-110360828D01*
X102075171Y-110393397D01*
X102186827Y-110404394D01*
X102298483Y-110393397D01*
X102405849Y-110360828D01*
X102504798Y-110307939D01*
X102591527Y-110236762D01*
X103236762Y-109591527D01*
X103307939Y-109504798D01*
X103360828Y-109405849D01*
X103393397Y-109298483D01*
X103404394Y-109186827D01*
X103393397Y-109075171D01*
X103360828Y-108967805D01*
X103307939Y-108868856D01*
X103236762Y-108782127D01*
X102892047Y-108437412D01*
X102864087Y-108414466D01*
X102864087Y-108397243D01*
X106761718Y-112294874D01*
X106681819Y-112261779D01*
X106377146Y-112201175D01*
X106066504Y-112201175D01*
X105761831Y-112261779D01*
X105474836Y-112380656D01*
X105216546Y-112553239D01*
X104996889Y-112772896D01*
X104824306Y-113031186D01*
X104705429Y-113318181D01*
X104644825Y-113622854D01*
X104644825Y-113933496D01*
X104705429Y-114238169D01*
X104824306Y-114525164D01*
X104996889Y-114783454D01*
X105216546Y-115003111D01*
X105474836Y-115175694D01*
X105761831Y-115294571D01*
X106066504Y-115355175D01*
X106377146Y-115355175D01*
X106681819Y-115294571D01*
X106968814Y-115175694D01*
X106979508Y-115168548D01*
X107423000Y-115168548D01*
X107423000Y-115331452D01*
X107454782Y-115491227D01*
X107517123Y-115641731D01*
X107607628Y-115777181D01*
X107722819Y-115892372D01*
X107858269Y-115982877D01*
X108008773Y-116045218D01*
X108168548Y-116077000D01*
X108331452Y-116077000D01*
X108331668Y-116076957D01*
X108392312Y-116137601D01*
X108366235Y-116169376D01*
X108313346Y-116268325D01*
X108280777Y-116375691D01*
X108269780Y-116487347D01*
X108280777Y-116599003D01*
X108313346Y-116706369D01*
X108366235Y-116805318D01*
X108437412Y-116892047D01*
X108782127Y-117236762D01*
X108868856Y-117307939D01*
X108967805Y-117360828D01*
X109075171Y-117393397D01*
X109186827Y-117404394D01*
X109298483Y-117393397D01*
X109405849Y-117360828D01*
X109504798Y-117307939D01*
X109591527Y-117236762D01*
X110236762Y-116591527D01*
X110307939Y-116504798D01*
X110360828Y-116405849D01*
X110393397Y-116298483D01*
X110404394Y-116186827D01*
X110393397Y-116075171D01*
X110360828Y-115967805D01*
X110307939Y-115868856D01*
X110236762Y-115782127D01*
X109892047Y-115437412D01*
X109805318Y-115366235D01*
X109706369Y-115313346D01*
X109599003Y-115280777D01*
X109487347Y-115269780D01*
X109375691Y-115280777D01*
X109268325Y-115313346D01*
X109169376Y-115366235D01*
X109137601Y-115392312D01*
X109076957Y-115331668D01*
X109077000Y-115331452D01*
X109077000Y-115168548D01*
X109045218Y-115008773D01*
X108982877Y-114858269D01*
X108892372Y-114722819D01*
X108777181Y-114607628D01*
X108641731Y-114517123D01*
X108491227Y-114454782D01*
X108331452Y-114423000D01*
X108168548Y-114423000D01*
X108008773Y-114454782D01*
X107858269Y-114517123D01*
X107722819Y-114607628D01*
X107607628Y-114722819D01*
X107517123Y-114858269D01*
X107454782Y-115008773D01*
X107423000Y-115168548D01*
X106979508Y-115168548D01*
X107227104Y-115003111D01*
X107446761Y-114783454D01*
X107619344Y-114525164D01*
X107738221Y-114238169D01*
X107798825Y-113933496D01*
X107798825Y-113622854D01*
X107738221Y-113318181D01*
X107705126Y-113238283D01*
X111969889Y-117503045D01*
X111910234Y-117534931D01*
X111838090Y-117594138D01*
X111802175Y-117630053D01*
X111717481Y-117630053D01*
X111719223Y-117624309D01*
X111730220Y-117512653D01*
X111719223Y-117400997D01*
X111686654Y-117293631D01*
X111633765Y-117194682D01*
X111562588Y-117107953D01*
X111217873Y-116763238D01*
X111131144Y-116692061D01*
X111032195Y-116639172D01*
X110924829Y-116606603D01*
X110813173Y-116595606D01*
X110701517Y-116606603D01*
X110594151Y-116639172D01*
X110495202Y-116692061D01*
X110408473Y-116763238D01*
X109763238Y-117408473D01*
X109692061Y-117495202D01*
X109639172Y-117594151D01*
X109606603Y-117701517D01*
X109595606Y-117813173D01*
X109606603Y-117924829D01*
X109639172Y-118032195D01*
X109692061Y-118131144D01*
X109763238Y-118217873D01*
X110107953Y-118562588D01*
X110194682Y-118633765D01*
X110293631Y-118686654D01*
X110400997Y-118719223D01*
X110512653Y-118730220D01*
X110624309Y-118719223D01*
X110731675Y-118686654D01*
X110830624Y-118633765D01*
X110870200Y-118601285D01*
X110954403Y-118646292D01*
X111053743Y-118676427D01*
X111131172Y-118684053D01*
X111131174Y-118684053D01*
X111157052Y-118686602D01*
X111182930Y-118684053D01*
X111766819Y-118684053D01*
X111790794Y-118708028D01*
X111782265Y-118736143D01*
X111770004Y-118860625D01*
X111782265Y-118985106D01*
X111818574Y-119104804D01*
X111877538Y-119215119D01*
X111956891Y-119311810D01*
X111965604Y-119316178D01*
X112190111Y-119316178D01*
X112663342Y-118842947D01*
X112649200Y-118828805D01*
X112828805Y-118649200D01*
X112842947Y-118663342D01*
X112857090Y-118649200D01*
X113036695Y-118828805D01*
X113022552Y-118842947D01*
X113478106Y-119298501D01*
X113702612Y-119298501D01*
X113729003Y-119276454D01*
X113808356Y-119179763D01*
X113867320Y-119069449D01*
X113873676Y-119048496D01*
X113969342Y-119057539D01*
X114001238Y-119057428D01*
X114033146Y-119057762D01*
X114038040Y-119057299D01*
X114175336Y-119043353D01*
X114206550Y-119037059D01*
X114237970Y-119031179D01*
X114242680Y-119029774D01*
X114374652Y-118989426D01*
X114404094Y-118977171D01*
X114433726Y-118965319D01*
X114438074Y-118963027D01*
X114559696Y-118897814D01*
X114586172Y-118880089D01*
X114612967Y-118862689D01*
X114616786Y-118859595D01*
X114618828Y-118857918D01*
X114644969Y-118849988D01*
X114710463Y-118814980D01*
X114753484Y-118779674D01*
X115223269Y-118309889D01*
X116683822Y-118309889D01*
X116683822Y-118534396D01*
X116688190Y-118543109D01*
X116784881Y-118622462D01*
X116895196Y-118681426D01*
X117014894Y-118717735D01*
X117139375Y-118729996D01*
X117263857Y-118717735D01*
X117291972Y-118709206D01*
X117488628Y-118905862D01*
X117560772Y-118965069D01*
X117643080Y-119009063D01*
X117732390Y-119036155D01*
X117825269Y-119045303D01*
X117918148Y-119036155D01*
X118007458Y-119009063D01*
X118089766Y-118965069D01*
X118161910Y-118905862D01*
X118405862Y-118661910D01*
X118465069Y-118589766D01*
X118509063Y-118507458D01*
X118536155Y-118418148D01*
X118538681Y-118392503D01*
X118741271Y-118189913D01*
X119240292Y-118189913D01*
X119263238Y-118217873D01*
X119607953Y-118562588D01*
X119694682Y-118633765D01*
X119793631Y-118686654D01*
X119900997Y-118719223D01*
X120012653Y-118730220D01*
X120124309Y-118719223D01*
X120231675Y-118686654D01*
X120330624Y-118633765D01*
X120417353Y-118562588D01*
X121062588Y-117917353D01*
X121133765Y-117830624D01*
X121186654Y-117731675D01*
X121219223Y-117624309D01*
X121230220Y-117512653D01*
X121219223Y-117400997D01*
X121186654Y-117293631D01*
X121133765Y-117194682D01*
X121062588Y-117107953D01*
X120717873Y-116763238D01*
X120631144Y-116692061D01*
X120532195Y-116639172D01*
X120424829Y-116606603D01*
X120313173Y-116595606D01*
X120201517Y-116606603D01*
X120094151Y-116639172D01*
X119995202Y-116692061D01*
X119908473Y-116763238D01*
X119535798Y-117135913D01*
X119192376Y-117135913D01*
X119736762Y-116591527D01*
X119807939Y-116504798D01*
X119860828Y-116405849D01*
X119893397Y-116298483D01*
X119904394Y-116186827D01*
X119895793Y-116099497D01*
X120418333Y-115576957D01*
X120418548Y-115577000D01*
X120581452Y-115577000D01*
X120741227Y-115545218D01*
X120891731Y-115482877D01*
X121027181Y-115392372D01*
X121142372Y-115277181D01*
X121232877Y-115141731D01*
X121295218Y-114991227D01*
X121327000Y-114831452D01*
X121327000Y-114668548D01*
X121295218Y-114508773D01*
X121232877Y-114358269D01*
X121142372Y-114222819D01*
X121027181Y-114107628D01*
X120891731Y-114017123D01*
X120741227Y-113954782D01*
X120581452Y-113923000D01*
X120418548Y-113923000D01*
X120258773Y-113954782D01*
X120108269Y-114017123D01*
X119972819Y-114107628D01*
X119857628Y-114222819D01*
X119767123Y-114358269D01*
X119704782Y-114508773D01*
X119673000Y-114668548D01*
X119673000Y-114831452D01*
X119673043Y-114831667D01*
X119194857Y-115309854D01*
X119099003Y-115280777D01*
X118987347Y-115269780D01*
X118875691Y-115280777D01*
X118768325Y-115313346D01*
X118669376Y-115366235D01*
X118582647Y-115437412D01*
X117937412Y-116082647D01*
X117866235Y-116169376D01*
X117813346Y-116268325D01*
X117780777Y-116375691D01*
X117769780Y-116487347D01*
X117780777Y-116599003D01*
X117813346Y-116706369D01*
X117866235Y-116805318D01*
X117937412Y-116892047D01*
X118254321Y-117208956D01*
X118228779Y-117222609D01*
X118148533Y-117288465D01*
X118133905Y-117306289D01*
X118122462Y-117284881D01*
X118043109Y-117188190D01*
X118034396Y-117183822D01*
X117809889Y-117183822D01*
X117336658Y-117657053D01*
X117350801Y-117671196D01*
X117171196Y-117850801D01*
X117157053Y-117836658D01*
X116683822Y-118309889D01*
X115223269Y-118309889D01*
X116167212Y-117365946D01*
X116132680Y-117430551D01*
X116096371Y-117550249D01*
X116084110Y-117674731D01*
X116096371Y-117799212D01*
X116132680Y-117918910D01*
X116191644Y-118029225D01*
X116270997Y-118125916D01*
X116279710Y-118130284D01*
X116504217Y-118130284D01*
X116977448Y-117657053D01*
X116963306Y-117642911D01*
X117142911Y-117463306D01*
X117157053Y-117477448D01*
X117630284Y-117004217D01*
X117630284Y-116779710D01*
X117625916Y-116770997D01*
X117529225Y-116691644D01*
X117418910Y-116632680D01*
X117299212Y-116596371D01*
X117174731Y-116584110D01*
X117050249Y-116596371D01*
X116930551Y-116632680D01*
X116865946Y-116667212D01*
X118279673Y-115253485D01*
X118314980Y-115210464D01*
X118349987Y-115144970D01*
X118358158Y-115118034D01*
X118414639Y-115047281D01*
X118432017Y-115020521D01*
X118449761Y-114994016D01*
X118452053Y-114989668D01*
X118547317Y-114805887D01*
X118559158Y-114776282D01*
X118571427Y-114746810D01*
X118572831Y-114742099D01*
X118628244Y-114551362D01*
X120761058Y-112418548D01*
X121923000Y-112418548D01*
X121923000Y-112581452D01*
X121954782Y-112741227D01*
X122017123Y-112891731D01*
X122107628Y-113027181D01*
X122222819Y-113142372D01*
X122358269Y-113232877D01*
X122508773Y-113295218D01*
X122668548Y-113327000D01*
X122831452Y-113327000D01*
X122991227Y-113295218D01*
X123141731Y-113232877D01*
X123277181Y-113142372D01*
X123392372Y-113027181D01*
X123482877Y-112891731D01*
X123545218Y-112741227D01*
X123577000Y-112581452D01*
X123577000Y-112418548D01*
X123576957Y-112418332D01*
X124099497Y-111895793D01*
X124186827Y-111904394D01*
X124298483Y-111893397D01*
X124405849Y-111860828D01*
X124504798Y-111807939D01*
X124591527Y-111736762D01*
X125135914Y-111192375D01*
X125135913Y-111535798D01*
X124763238Y-111908473D01*
X124692061Y-111995202D01*
X124639172Y-112094151D01*
X124606603Y-112201517D01*
X124595606Y-112313173D01*
X124606603Y-112424829D01*
X124639172Y-112532195D01*
X124692061Y-112631144D01*
X124763238Y-112717873D01*
X125107953Y-113062588D01*
X125194682Y-113133765D01*
X125293631Y-113186654D01*
X125400997Y-113219223D01*
X125512653Y-113230220D01*
X125624309Y-113219223D01*
X125731675Y-113186654D01*
X125830624Y-113133765D01*
X125917353Y-113062588D01*
X126562588Y-112417353D01*
X126633765Y-112330624D01*
X126686654Y-112231675D01*
X126719223Y-112124309D01*
X126730220Y-112012653D01*
X126719223Y-111900997D01*
X126686654Y-111793631D01*
X126633765Y-111694682D01*
X126562588Y-111607953D01*
X126217873Y-111263238D01*
X126189913Y-111240292D01*
X126189913Y-110913753D01*
X126292698Y-110903629D01*
X126412396Y-110867320D01*
X126522710Y-110808356D01*
X126619401Y-110729003D01*
X126641448Y-110702612D01*
X126641448Y-110478106D01*
X126185894Y-110022552D01*
X126171752Y-110036695D01*
X125992147Y-109857090D01*
X126006289Y-109842947D01*
X126365499Y-109842947D01*
X126821053Y-110298501D01*
X127045559Y-110298501D01*
X127071950Y-110276454D01*
X127151303Y-110179763D01*
X127210267Y-110069449D01*
X127246576Y-109949751D01*
X127258837Y-109825269D01*
X127246576Y-109700788D01*
X127210267Y-109581090D01*
X127151303Y-109470775D01*
X127071950Y-109374084D01*
X127063237Y-109369716D01*
X126838730Y-109369716D01*
X126365499Y-109842947D01*
X126006289Y-109842947D01*
X125992147Y-109828805D01*
X126171752Y-109649200D01*
X126185894Y-109663342D01*
X126659125Y-109190111D01*
X126659125Y-108965604D01*
X126654757Y-108956891D01*
X126558066Y-108877538D01*
X126447751Y-108818574D01*
X126328053Y-108782265D01*
X126203572Y-108770004D01*
X126079090Y-108782265D01*
X126050975Y-108790794D01*
X125854319Y-108594138D01*
X125782175Y-108534931D01*
X125699867Y-108490937D01*
X125610557Y-108463845D01*
X125517678Y-108454697D01*
X125424799Y-108463845D01*
X125335489Y-108490937D01*
X125253181Y-108534931D01*
X125181037Y-108594138D01*
X124937085Y-108838090D01*
X124877878Y-108910234D01*
X124833884Y-108992542D01*
X124806792Y-109081852D01*
X124797644Y-109174731D01*
X124806792Y-109267610D01*
X124833884Y-109356920D01*
X124877878Y-109439228D01*
X124885110Y-109448040D01*
X124885110Y-109931719D01*
X124805318Y-109866235D01*
X124706369Y-109813346D01*
X124599003Y-109780777D01*
X124487347Y-109769780D01*
X124375691Y-109780777D01*
X124268325Y-109813346D01*
X124169376Y-109866235D01*
X124082647Y-109937412D01*
X123437412Y-110582647D01*
X123366235Y-110669376D01*
X123313346Y-110768325D01*
X123280777Y-110875691D01*
X123269780Y-110987347D01*
X123280777Y-111099003D01*
X123309854Y-111194857D01*
X122831668Y-111673043D01*
X122831452Y-111673000D01*
X122668548Y-111673000D01*
X122508773Y-111704782D01*
X122358269Y-111767123D01*
X122222819Y-111857628D01*
X122107628Y-111972819D01*
X122017123Y-112108269D01*
X121954782Y-112258773D01*
X121923000Y-112418548D01*
X120761058Y-112418548D01*
X121300467Y-111879139D01*
X121307851Y-111877757D01*
X121312562Y-111876352D01*
X121510521Y-111815830D01*
X121539927Y-111803590D01*
X121569596Y-111791723D01*
X121573944Y-111789430D01*
X121756378Y-111691610D01*
X121782878Y-111673869D01*
X121809646Y-111656486D01*
X121813465Y-111653393D01*
X121971659Y-111523450D01*
X121986674Y-111511128D01*
X126761127Y-106736674D01*
X126770817Y-106724868D01*
X126773912Y-106721815D01*
X126777032Y-106718017D01*
X126863880Y-106610769D01*
X126881427Y-106584157D01*
X126899375Y-106557748D01*
X126901694Y-106553421D01*
X126901697Y-106553417D01*
X126901699Y-106553413D01*
X126966060Y-106431342D01*
X126978119Y-106401793D01*
X126990581Y-106372436D01*
X126992017Y-106367736D01*
X127031443Y-106235485D01*
X127037522Y-106204210D01*
X127044055Y-106172938D01*
X127044552Y-106168048D01*
X127057539Y-106030658D01*
X127057428Y-105998761D01*
X127057762Y-105966853D01*
X127057299Y-105961960D01*
X127043353Y-105824663D01*
X127037058Y-105793442D01*
X127031179Y-105762030D01*
X127029774Y-105757320D01*
X126989426Y-105625348D01*
X126977175Y-105595917D01*
X126965319Y-105566274D01*
X126963026Y-105561926D01*
X126963026Y-105561925D01*
X126963023Y-105561921D01*
X126897814Y-105440303D01*
X126880083Y-105413818D01*
X126862689Y-105387033D01*
X126859595Y-105383214D01*
X126857916Y-105381170D01*
X126849987Y-105355031D01*
X126814979Y-105289537D01*
X126779673Y-105246516D01*
X125904767Y-104371610D01*
X125918910Y-104367320D01*
X126029225Y-104308356D01*
X126125916Y-104229003D01*
X126130284Y-104220290D01*
X126130284Y-103995783D01*
X125657053Y-103522552D01*
X125642911Y-103536695D01*
X125463306Y-103357090D01*
X125477448Y-103342947D01*
X125004217Y-102869716D01*
X124779710Y-102869716D01*
X124770997Y-102874084D01*
X124691644Y-102970775D01*
X124632680Y-103081090D01*
X124628390Y-103095233D01*
X124155692Y-102622535D01*
X124169376Y-102633765D01*
X124268325Y-102686654D01*
X124375691Y-102719223D01*
X124487347Y-102730220D01*
X124599003Y-102719223D01*
X124706369Y-102686654D01*
X124805318Y-102633765D01*
X124892047Y-102562588D01*
X125208957Y-102245678D01*
X125222609Y-102271220D01*
X125222610Y-102271221D01*
X125288466Y-102351467D01*
X125306290Y-102366095D01*
X125284881Y-102377538D01*
X125188190Y-102456891D01*
X125183822Y-102465604D01*
X125183822Y-102690111D01*
X125657053Y-103163342D01*
X125671196Y-103149200D01*
X125850801Y-103328805D01*
X125836658Y-103342947D01*
X126309889Y-103816178D01*
X126534396Y-103816178D01*
X126543109Y-103811810D01*
X126622462Y-103715119D01*
X126681426Y-103604804D01*
X126717735Y-103485106D01*
X126729996Y-103360625D01*
X126717735Y-103236143D01*
X126709206Y-103208028D01*
X126905862Y-103011372D01*
X126965069Y-102939228D01*
X127009063Y-102856920D01*
X127036155Y-102767610D01*
X127045303Y-102674731D01*
X127036155Y-102581852D01*
X127009063Y-102492542D01*
X126965069Y-102410234D01*
X126905862Y-102338090D01*
X126661910Y-102094138D01*
X126589766Y-102034931D01*
X126507458Y-101990937D01*
X126418148Y-101963845D01*
X126392503Y-101961319D01*
X126189913Y-101758730D01*
X126189913Y-101259708D01*
X126217873Y-101236762D01*
X126562588Y-100892047D01*
X126633765Y-100805318D01*
X126686654Y-100706369D01*
X126719223Y-100599003D01*
X126730220Y-100487347D01*
X126719223Y-100375691D01*
X126686654Y-100268325D01*
X126633765Y-100169376D01*
X126562588Y-100082647D01*
X125917353Y-99437412D01*
X125830624Y-99366235D01*
X125731675Y-99313346D01*
X125624309Y-99280777D01*
X125512653Y-99269780D01*
X125400997Y-99280777D01*
X125293631Y-99313346D01*
X125194682Y-99366235D01*
X125107953Y-99437412D01*
X124763238Y-99782127D01*
X124692061Y-99868856D01*
X124639172Y-99967805D01*
X124606603Y-100075171D01*
X124595606Y-100186827D01*
X124606603Y-100298483D01*
X124639172Y-100405849D01*
X124692061Y-100504798D01*
X124763238Y-100591527D01*
X125135913Y-100964202D01*
X125135914Y-101307625D01*
X124591527Y-100763238D01*
X124504798Y-100692061D01*
X124405849Y-100639172D01*
X124298483Y-100606603D01*
X124186827Y-100595606D01*
X124099497Y-100604207D01*
X123826957Y-100331667D01*
X123827000Y-100331452D01*
X123827000Y-100168548D01*
X123795218Y-100008773D01*
X123732877Y-99858269D01*
X123642372Y-99722819D01*
X123527181Y-99607628D01*
X123391731Y-99517123D01*
X123241227Y-99454782D01*
X123081452Y-99423000D01*
X122918548Y-99423000D01*
X122776823Y-99451191D01*
X122783454Y-99446761D01*
X123003111Y-99227104D01*
X123175694Y-98968814D01*
X123294571Y-98681819D01*
X123355175Y-98377146D01*
X123355175Y-98066504D01*
X123294571Y-97761831D01*
X123175694Y-97474836D01*
X123003111Y-97216546D01*
X122783454Y-96996889D01*
X122525164Y-96824306D01*
X122238169Y-96705429D01*
X121933496Y-96644825D01*
X121622854Y-96644825D01*
X121318181Y-96705429D01*
X121031186Y-96824306D01*
X120772896Y-96996889D01*
X120553239Y-97216546D01*
X120380656Y-97474836D01*
X120261779Y-97761831D01*
X120201175Y-98066504D01*
X120201175Y-98377146D01*
X120261779Y-98681819D01*
X120294873Y-98761716D01*
X118155695Y-96622537D01*
X118169376Y-96633765D01*
X118268325Y-96686654D01*
X118375691Y-96719223D01*
X118487347Y-96730220D01*
X118599003Y-96719223D01*
X118706369Y-96686654D01*
X118805318Y-96633765D01*
X118850992Y-96596281D01*
X118923043Y-96668332D01*
X118923000Y-96668548D01*
X118923000Y-96831452D01*
X118954782Y-96991227D01*
X119017123Y-97141731D01*
X119107628Y-97277181D01*
X119222819Y-97392372D01*
X119358269Y-97482877D01*
X119508773Y-97545218D01*
X119668548Y-97577000D01*
X119831452Y-97577000D01*
X119991227Y-97545218D01*
X120141731Y-97482877D01*
X120277181Y-97392372D01*
X120392372Y-97277181D01*
X120482877Y-97141731D01*
X120545218Y-96991227D01*
X120577000Y-96831452D01*
X120577000Y-96668548D01*
X120545218Y-96508773D01*
X120482877Y-96358269D01*
X120392372Y-96222819D01*
X120277181Y-96107628D01*
X120141731Y-96017123D01*
X119991227Y-95954782D01*
X119831452Y-95923000D01*
X119668548Y-95923000D01*
X119668332Y-95923043D01*
X119370141Y-95624852D01*
X119360828Y-95594151D01*
X119307939Y-95495202D01*
X119236762Y-95408473D01*
X118591527Y-94763238D01*
X118504798Y-94692061D01*
X118405849Y-94639172D01*
X118298483Y-94606603D01*
X118186827Y-94595606D01*
X118075171Y-94606603D01*
X117967805Y-94639172D01*
X117868856Y-94692061D01*
X117782127Y-94763238D01*
X117437412Y-95107953D01*
X117366235Y-95194682D01*
X117313346Y-95293631D01*
X117280777Y-95400997D01*
X117269780Y-95512653D01*
X117280777Y-95624309D01*
X117313346Y-95731675D01*
X117366235Y-95830624D01*
X117377463Y-95844305D01*
X117009246Y-95476088D01*
X117029225Y-95465409D01*
X117125916Y-95386056D01*
X117130284Y-95377343D01*
X117130284Y-95152836D01*
X116657053Y-94679605D01*
X116642911Y-94693748D01*
X116463306Y-94514143D01*
X116477448Y-94500000D01*
X116004217Y-94026769D01*
X115779710Y-94026769D01*
X115770997Y-94031137D01*
X115691644Y-94127828D01*
X115680965Y-94147807D01*
X115155815Y-93622657D01*
X116183822Y-93622657D01*
X116183822Y-93847164D01*
X116657053Y-94320395D01*
X116671196Y-94306253D01*
X116850801Y-94485858D01*
X116836658Y-94500000D01*
X117309889Y-94973231D01*
X117534396Y-94973231D01*
X117543109Y-94968863D01*
X117622462Y-94872172D01*
X117681426Y-94761857D01*
X117717735Y-94642159D01*
X117729996Y-94517678D01*
X117717735Y-94393196D01*
X117709206Y-94365081D01*
X117733181Y-94341106D01*
X118619532Y-94341106D01*
X118639172Y-94405849D01*
X118692061Y-94504798D01*
X118763238Y-94591527D01*
X119408473Y-95236762D01*
X119495202Y-95307939D01*
X119594151Y-95360828D01*
X119701517Y-95393397D01*
X119813173Y-95404394D01*
X119924829Y-95393397D01*
X120032195Y-95360828D01*
X120131144Y-95307939D01*
X120217873Y-95236762D01*
X120562588Y-94892047D01*
X120633765Y-94805318D01*
X120686654Y-94706369D01*
X120719223Y-94599003D01*
X120730220Y-94487347D01*
X120719223Y-94375691D01*
X120686654Y-94268325D01*
X120633765Y-94169376D01*
X120562588Y-94082647D01*
X119917353Y-93437412D01*
X119830624Y-93366235D01*
X119731675Y-93313346D01*
X119624309Y-93280777D01*
X119512653Y-93269780D01*
X119400997Y-93280777D01*
X119299117Y-93311682D01*
X119243242Y-93294732D01*
X119165813Y-93287106D01*
X119139932Y-93284557D01*
X119114051Y-93287106D01*
X117697825Y-93287106D01*
X117661910Y-93251191D01*
X117589766Y-93191984D01*
X117507458Y-93147990D01*
X117418148Y-93120898D01*
X117325269Y-93111750D01*
X117232390Y-93120898D01*
X117143080Y-93147990D01*
X117060772Y-93191984D01*
X116988628Y-93251191D01*
X116791972Y-93447847D01*
X116763857Y-93439318D01*
X116639375Y-93427057D01*
X116514894Y-93439318D01*
X116395196Y-93475627D01*
X116284881Y-93534591D01*
X116188190Y-93613944D01*
X116183822Y-93622657D01*
X115155815Y-93622657D01*
X114753484Y-93220326D01*
X114710463Y-93185020D01*
X114644969Y-93150012D01*
X114617715Y-93141745D01*
X114610769Y-93136120D01*
X114584157Y-93118573D01*
X114557748Y-93100625D01*
X114553421Y-93098306D01*
X114553417Y-93098303D01*
X114553413Y-93098301D01*
X114431341Y-93033940D01*
X114401881Y-93021918D01*
X114372437Y-93009419D01*
X114367736Y-93007983D01*
X114235485Y-92968557D01*
X114204239Y-92962483D01*
X114172937Y-92955944D01*
X114168047Y-92955448D01*
X114030658Y-92942461D01*
X113998761Y-92942572D01*
X113966853Y-92942238D01*
X113961960Y-92942701D01*
X113824663Y-92956647D01*
X113793442Y-92962942D01*
X113762030Y-92968821D01*
X113757320Y-92970226D01*
X113625348Y-93010574D01*
X113595917Y-93022825D01*
X113566274Y-93034681D01*
X113561930Y-93036972D01*
X113561925Y-93036974D01*
X113561921Y-93036977D01*
X113440303Y-93102186D01*
X113413818Y-93119917D01*
X113387033Y-93137311D01*
X113383214Y-93140405D01*
X113277182Y-93227501D01*
X113263326Y-93238873D01*
X109738873Y-96763327D01*
X109727338Y-96777382D01*
X109717599Y-96787121D01*
X109714506Y-96790941D01*
X109585361Y-96952719D01*
X109567983Y-96979479D01*
X109550239Y-97005984D01*
X109547947Y-97010332D01*
X109452683Y-97194113D01*
X109440836Y-97223731D01*
X109428573Y-97253191D01*
X109427169Y-97257901D01*
X109371755Y-97448639D01*
X106699533Y-100120861D01*
X106692149Y-100122243D01*
X106687438Y-100123648D01*
X106489479Y-100184170D01*
X106460073Y-100196410D01*
X106430404Y-100208277D01*
X106426057Y-100210570D01*
X106243622Y-100308390D01*
X106217114Y-100326136D01*
X106190354Y-100343514D01*
X106186535Y-100346607D01*
X106131169Y-100392085D01*
X106105031Y-100400014D01*
X106039537Y-100435021D01*
X105996516Y-100470328D01*
X101220327Y-105246517D01*
X101185021Y-105289538D01*
X101150013Y-105355032D01*
X101141747Y-105382283D01*
X101136120Y-105389231D01*
X101118573Y-105415843D01*
X101100625Y-105442252D01*
X101098306Y-105446579D01*
X101098303Y-105446583D01*
X101098303Y-105446584D01*
X101033940Y-105568659D01*
X101021918Y-105598119D01*
X101009419Y-105627563D01*
X101007983Y-105632264D01*
X100968557Y-105764515D01*
X100962483Y-105795761D01*
X100955944Y-105827063D01*
X100955448Y-105831953D01*
X100942461Y-105969342D01*
X100942572Y-106001238D01*
X100942238Y-106033146D01*
X100942701Y-106038040D01*
X100951664Y-106126276D01*
X100930551Y-106132680D01*
X100820237Y-106191644D01*
X100723546Y-106270997D01*
X100701499Y-106297388D01*
X100701499Y-106521894D01*
X101157053Y-106977448D01*
X101171196Y-106963306D01*
X101350801Y-107142911D01*
X101336658Y-107157053D01*
X101350801Y-107171196D01*
X101171196Y-107350801D01*
X101157053Y-107336658D01*
X100683822Y-107809889D01*
X100377000Y-107809889D01*
X100377000Y-107630284D01*
X100504217Y-107630284D01*
X100977448Y-107157053D01*
X100521894Y-106701499D01*
X100377000Y-106701499D01*
X100377000Y-102809889D01*
X101183822Y-102809889D01*
X101183822Y-103034396D01*
X101188190Y-103043109D01*
X101284881Y-103122462D01*
X101395196Y-103181426D01*
X101514894Y-103217735D01*
X101639375Y-103229996D01*
X101763857Y-103217735D01*
X101791972Y-103209206D01*
X101988628Y-103405862D01*
X102060772Y-103465069D01*
X102143080Y-103509063D01*
X102232390Y-103536155D01*
X102325269Y-103545303D01*
X102418148Y-103536155D01*
X102507458Y-103509063D01*
X102589766Y-103465069D01*
X102661910Y-103405862D01*
X102905862Y-103161910D01*
X102965069Y-103089766D01*
X103009063Y-103007458D01*
X103036155Y-102918148D01*
X103045303Y-102825269D01*
X103036155Y-102732390D01*
X103009063Y-102643080D01*
X102965069Y-102560772D01*
X102957837Y-102551960D01*
X102957837Y-101912472D01*
X103107953Y-102062588D01*
X103194682Y-102133765D01*
X103293631Y-102186654D01*
X103400997Y-102219223D01*
X103512653Y-102230220D01*
X103624309Y-102219223D01*
X103731675Y-102186654D01*
X103830624Y-102133765D01*
X103917353Y-102062588D01*
X104562588Y-101417353D01*
X104633765Y-101330624D01*
X104686654Y-101231675D01*
X104719223Y-101124309D01*
X104730220Y-101012653D01*
X104719223Y-100900997D01*
X104690146Y-100805144D01*
X104918333Y-100576957D01*
X104918548Y-100577000D01*
X105081452Y-100577000D01*
X105241227Y-100545218D01*
X105391731Y-100482877D01*
X105527181Y-100392372D01*
X105642372Y-100277181D01*
X105732877Y-100141731D01*
X105795218Y-99991227D01*
X105827000Y-99831452D01*
X105827000Y-99668548D01*
X105795218Y-99508773D01*
X105732877Y-99358269D01*
X105642372Y-99222819D01*
X105527181Y-99107628D01*
X105391731Y-99017123D01*
X105241227Y-98954782D01*
X105081452Y-98923000D01*
X104918548Y-98923000D01*
X104758773Y-98954782D01*
X104608269Y-99017123D01*
X104472819Y-99107628D01*
X104357628Y-99222819D01*
X104267123Y-99358269D01*
X104204782Y-99508773D01*
X104173000Y-99668548D01*
X104173000Y-99831452D01*
X104173043Y-99831667D01*
X103900503Y-100104207D01*
X103813173Y-100095606D01*
X103701517Y-100106603D01*
X103594151Y-100139172D01*
X103495202Y-100192061D01*
X103408473Y-100263238D01*
X102957837Y-100713874D01*
X102957837Y-100370452D01*
X103236762Y-100091527D01*
X103307939Y-100004798D01*
X103360828Y-99905849D01*
X103393397Y-99798483D01*
X103404394Y-99686827D01*
X103393397Y-99575171D01*
X103360828Y-99467805D01*
X103307939Y-99368856D01*
X103236762Y-99282127D01*
X102892047Y-98937412D01*
X102805318Y-98866235D01*
X102706369Y-98813346D01*
X102599003Y-98780777D01*
X102487347Y-98769780D01*
X102375691Y-98780777D01*
X102268325Y-98813346D01*
X102169376Y-98866235D01*
X102082647Y-98937412D01*
X101437412Y-99582647D01*
X101366235Y-99669376D01*
X101313346Y-99768325D01*
X101280777Y-99875691D01*
X101269780Y-99987347D01*
X101280777Y-100099003D01*
X101313346Y-100206369D01*
X101366235Y-100305318D01*
X101437412Y-100392047D01*
X101782127Y-100736762D01*
X101868856Y-100807939D01*
X101903838Y-100826637D01*
X101903838Y-101128108D01*
X101799212Y-101096371D01*
X101674731Y-101084110D01*
X101550249Y-101096371D01*
X101430551Y-101132680D01*
X101320237Y-101191644D01*
X101223546Y-101270997D01*
X101201499Y-101297388D01*
X101201499Y-101521894D01*
X101657053Y-101977448D01*
X101671196Y-101963306D01*
X101850801Y-102142911D01*
X101836658Y-102157053D01*
X101850801Y-102171196D01*
X101671196Y-102350801D01*
X101657053Y-102336658D01*
X101183822Y-102809889D01*
X100377000Y-102809889D01*
X100377000Y-102174731D01*
X100584110Y-102174731D01*
X100596371Y-102299212D01*
X100632680Y-102418910D01*
X100691644Y-102529225D01*
X100770997Y-102625916D01*
X100779710Y-102630284D01*
X101004217Y-102630284D01*
X101477448Y-102157053D01*
X101021894Y-101701499D01*
X100797388Y-101701499D01*
X100770997Y-101723546D01*
X100691644Y-101820237D01*
X100632680Y-101930551D01*
X100596371Y-102050249D01*
X100584110Y-102174731D01*
X100377000Y-102174731D01*
X100377000Y-95950718D01*
X100389131Y-95962849D01*
X100803017Y-96239398D01*
X101262901Y-96429889D01*
X101751112Y-96527000D01*
X102248888Y-96527000D01*
X102737099Y-96429889D01*
X103196983Y-96239398D01*
X103610869Y-95962849D01*
X103962849Y-95610869D01*
X104239398Y-95196983D01*
X104429889Y-94737099D01*
X104479567Y-94487347D01*
X106769780Y-94487347D01*
X106780777Y-94599003D01*
X106813346Y-94706369D01*
X106866235Y-94805318D01*
X106937412Y-94892047D01*
X107282127Y-95236762D01*
X107368856Y-95307939D01*
X107467805Y-95360828D01*
X107575171Y-95393397D01*
X107686827Y-95404394D01*
X107798483Y-95393397D01*
X107905849Y-95360828D01*
X108004798Y-95307939D01*
X108091527Y-95236762D01*
X108464202Y-94864087D01*
X108807624Y-94864087D01*
X108263238Y-95408473D01*
X108192061Y-95495202D01*
X108139172Y-95594151D01*
X108106603Y-95701517D01*
X108095606Y-95813173D01*
X108104207Y-95900503D01*
X107831667Y-96173043D01*
X107831452Y-96173000D01*
X107668548Y-96173000D01*
X107508773Y-96204782D01*
X107358269Y-96267123D01*
X107222819Y-96357628D01*
X107107628Y-96472819D01*
X107017123Y-96608269D01*
X106954782Y-96758773D01*
X106923000Y-96918548D01*
X106923000Y-97081452D01*
X106954782Y-97241227D01*
X107017123Y-97391731D01*
X107107628Y-97527181D01*
X107222819Y-97642372D01*
X107358269Y-97732877D01*
X107508773Y-97795218D01*
X107668548Y-97827000D01*
X107831452Y-97827000D01*
X107991227Y-97795218D01*
X108141731Y-97732877D01*
X108277181Y-97642372D01*
X108392372Y-97527181D01*
X108482877Y-97391731D01*
X108545218Y-97241227D01*
X108577000Y-97081452D01*
X108577000Y-96918548D01*
X108576957Y-96918333D01*
X108805144Y-96690146D01*
X108900997Y-96719223D01*
X109012653Y-96730220D01*
X109124309Y-96719223D01*
X109231675Y-96686654D01*
X109330624Y-96633765D01*
X109417353Y-96562588D01*
X110062588Y-95917353D01*
X110133765Y-95830624D01*
X110186654Y-95731675D01*
X110219223Y-95624309D01*
X110230220Y-95512653D01*
X110219223Y-95400997D01*
X110186654Y-95293631D01*
X110133765Y-95194682D01*
X110062588Y-95107953D01*
X109818722Y-94864087D01*
X110822926Y-94864087D01*
X110848807Y-94866636D01*
X110874688Y-94864087D01*
X110952117Y-94856461D01*
X111051457Y-94826326D01*
X111143009Y-94777391D01*
X111223255Y-94711535D01*
X111239762Y-94691421D01*
X111392502Y-94538681D01*
X111418148Y-94536155D01*
X111507458Y-94509063D01*
X111589766Y-94465069D01*
X111661910Y-94405862D01*
X111905862Y-94161910D01*
X111965069Y-94089766D01*
X112009063Y-94007458D01*
X112036155Y-93918148D01*
X112045303Y-93825269D01*
X112036155Y-93732390D01*
X112009063Y-93643080D01*
X111965069Y-93560772D01*
X111905862Y-93488628D01*
X111709206Y-93291972D01*
X111717735Y-93263857D01*
X111729996Y-93139375D01*
X111717735Y-93014894D01*
X111681426Y-92895196D01*
X111622462Y-92784881D01*
X111543109Y-92688190D01*
X111534396Y-92683822D01*
X111309889Y-92683822D01*
X110836658Y-93157053D01*
X110850801Y-93171196D01*
X110671196Y-93350801D01*
X110657053Y-93336658D01*
X110642911Y-93350801D01*
X110463306Y-93171196D01*
X110477448Y-93157053D01*
X110021894Y-92701499D01*
X109797388Y-92701499D01*
X109770997Y-92723546D01*
X109691644Y-92820237D01*
X109632680Y-92930551D01*
X109596371Y-93050249D01*
X109584110Y-93174731D01*
X109596371Y-93299212D01*
X109632680Y-93418910D01*
X109691644Y-93529225D01*
X109770997Y-93625916D01*
X109779710Y-93630284D01*
X110004214Y-93630284D01*
X109891962Y-93742536D01*
X109959513Y-93810087D01*
X108759708Y-93810087D01*
X108736762Y-93782127D01*
X108392047Y-93437412D01*
X108305318Y-93366235D01*
X108206369Y-93313346D01*
X108099003Y-93280777D01*
X107987347Y-93269780D01*
X107875691Y-93280777D01*
X107768325Y-93313346D01*
X107669376Y-93366235D01*
X107582647Y-93437412D01*
X106937412Y-94082647D01*
X106866235Y-94169376D01*
X106813346Y-94268325D01*
X106780777Y-94375691D01*
X106769780Y-94487347D01*
X104479567Y-94487347D01*
X104527000Y-94248888D01*
X104527000Y-93751112D01*
X104429889Y-93262901D01*
X104239398Y-92803017D01*
X103962849Y-92389131D01*
X103950718Y-92377000D01*
X110201499Y-92377000D01*
X110201499Y-92521894D01*
%TD*%
M02*
