%TF.GenerationSoftware,KiCad,Pcbnew,(5.1.6)-1*%
%TF.CreationDate,2021-01-25T18:01:45+00:00*%
%TF.ProjectId,Illum,496c6c75-6d2e-46b6-9963-61645f706362,rev?*%
%TF.SameCoordinates,Original*%
%TF.FileFunction,Legend,Bot*%
%TF.FilePolarity,Positive*%
%FSLAX46Y46*%
G04 Gerber Fmt 4.6, Leading zero omitted, Abs format (unit mm)*
G04 Created by KiCad (PCBNEW (5.1.6)-1) date 2021-01-25 18:01:45*
%MOMM*%
%LPD*%
G01*
G04 APERTURE LIST*
%ADD10C,0.150000*%
%ADD11C,0.120000*%
G04 APERTURE END LIST*
D10*
X109880952Y-105047619D02*
X109880952Y-104333333D01*
X109833333Y-104190476D01*
X109738095Y-104095238D01*
X109595238Y-104047619D01*
X109500000Y-104047619D01*
X110833333Y-104047619D02*
X110357142Y-104047619D01*
X110357142Y-105047619D01*
X111738095Y-104142857D02*
X111690476Y-104095238D01*
X111547619Y-104047619D01*
X111452380Y-104047619D01*
X111309523Y-104095238D01*
X111214285Y-104190476D01*
X111166666Y-104285714D01*
X111119047Y-104476190D01*
X111119047Y-104619047D01*
X111166666Y-104809523D01*
X111214285Y-104904761D01*
X111309523Y-105000000D01*
X111452380Y-105047619D01*
X111547619Y-105047619D01*
X111690476Y-105000000D01*
X111738095Y-104952380D01*
X112452380Y-105047619D02*
X112452380Y-104333333D01*
X112404761Y-104190476D01*
X112309523Y-104095238D01*
X112166666Y-104047619D01*
X112071428Y-104047619D01*
X113404761Y-104047619D02*
X112928571Y-104047619D01*
X112928571Y-105047619D01*
X114309523Y-104142857D02*
X114261904Y-104095238D01*
X114119047Y-104047619D01*
X114023809Y-104047619D01*
X113880952Y-104095238D01*
X113785714Y-104190476D01*
X113738095Y-104285714D01*
X113690476Y-104476190D01*
X113690476Y-104619047D01*
X113738095Y-104809523D01*
X113785714Y-104904761D01*
X113880952Y-105000000D01*
X114023809Y-105047619D01*
X114119047Y-105047619D01*
X114261904Y-105000000D01*
X114309523Y-104952380D01*
X115023809Y-105047619D02*
X115023809Y-104333333D01*
X114976190Y-104190476D01*
X114880952Y-104095238D01*
X114738095Y-104047619D01*
X114642857Y-104047619D01*
X115976190Y-104047619D02*
X115500000Y-104047619D01*
X115500000Y-105047619D01*
X116880952Y-104142857D02*
X116833333Y-104095238D01*
X116690476Y-104047619D01*
X116595238Y-104047619D01*
X116452380Y-104095238D01*
X116357142Y-104190476D01*
X116309523Y-104285714D01*
X116261904Y-104476190D01*
X116261904Y-104619047D01*
X116309523Y-104809523D01*
X116357142Y-104904761D01*
X116452380Y-105000000D01*
X116595238Y-105047619D01*
X116690476Y-105047619D01*
X116833333Y-105000000D01*
X116880952Y-104952380D01*
X117595238Y-105047619D02*
X117595238Y-104333333D01*
X117547619Y-104190476D01*
X117452380Y-104095238D01*
X117309523Y-104047619D01*
X117214285Y-104047619D01*
X118547619Y-104047619D02*
X118071428Y-104047619D01*
X118071428Y-105047619D01*
X119452380Y-104142857D02*
X119404761Y-104095238D01*
X119261904Y-104047619D01*
X119166666Y-104047619D01*
X119023809Y-104095238D01*
X118928571Y-104190476D01*
X118880952Y-104285714D01*
X118833333Y-104476190D01*
X118833333Y-104619047D01*
X118880952Y-104809523D01*
X118928571Y-104904761D01*
X119023809Y-105000000D01*
X119166666Y-105047619D01*
X119261904Y-105047619D01*
X119404761Y-105000000D01*
X119452380Y-104952380D01*
X100892836Y-103634125D02*
X101599943Y-104341232D01*
X101566272Y-102960690D02*
X101229554Y-103297408D01*
X101936661Y-104004514D01*
X102138691Y-102388270D02*
X101801974Y-102724988D01*
X102509081Y-103432095D01*
X103081500Y-102859675D02*
X102509081Y-102287255D01*
X102475409Y-102186240D01*
X102475409Y-102118896D01*
X102509081Y-102017881D01*
X102643768Y-101883194D01*
X102744783Y-101849522D01*
X102812126Y-101849522D01*
X102913142Y-101883194D01*
X103485561Y-102455614D01*
X103115172Y-101411790D02*
X103822279Y-102118896D01*
X103552905Y-101378118D01*
X104293683Y-101647492D01*
X103586577Y-100940385D01*
X103923294Y-100603668D02*
X104630401Y-101310774D01*
X104260012Y-100266950D02*
X104967118Y-100974057D01*
X104664073Y-99862889D01*
X105371179Y-100569996D01*
X105169149Y-99761874D02*
X105505866Y-99425156D01*
X104899775Y-99627187D02*
X105842584Y-100098591D01*
X105371179Y-99155782D01*
X106212973Y-99728202D02*
X106617034Y-99324141D01*
X105707897Y-98819065D02*
X106415004Y-99526172D01*
X106145630Y-98381332D02*
X106852737Y-99088439D01*
X107324141Y-98617034D02*
X107458828Y-98482347D01*
X107492500Y-98381332D01*
X107492500Y-98246645D01*
X107391485Y-98078286D01*
X107155782Y-97842584D01*
X106987424Y-97741569D01*
X106852737Y-97741569D01*
X106751721Y-97775240D01*
X106617034Y-97909927D01*
X106583362Y-98010943D01*
X106583363Y-98145630D01*
X106684378Y-98313988D01*
X106920080Y-98549691D01*
X107088439Y-98650706D01*
X107223126Y-98650706D01*
X107324141Y-98617034D01*
X107223126Y-97303836D02*
X107930233Y-98010943D01*
X107627187Y-96899775D01*
X108334294Y-97606882D01*
X109108744Y-96158996D02*
X109176087Y-96024309D01*
X109176087Y-95956966D01*
X109142416Y-95855951D01*
X109041400Y-95754935D01*
X108940385Y-95721264D01*
X108873042Y-95721264D01*
X108772026Y-95754935D01*
X108502652Y-96024309D01*
X109209759Y-96731416D01*
X109445461Y-96495714D01*
X109479133Y-96394699D01*
X109479133Y-96327355D01*
X109445461Y-96226340D01*
X109378118Y-96158996D01*
X109277103Y-96125325D01*
X109209759Y-96125325D01*
X109108744Y-96158996D01*
X108873042Y-96394699D01*
X110051553Y-95889622D02*
X110186240Y-95754935D01*
X110219912Y-95653920D01*
X110219912Y-95519233D01*
X110118896Y-95350874D01*
X109883194Y-95115172D01*
X109714835Y-95014157D01*
X109580148Y-95014157D01*
X109479133Y-95047829D01*
X109344446Y-95182516D01*
X109310774Y-95283531D01*
X109310774Y-95418218D01*
X109411790Y-95586577D01*
X109647492Y-95822279D01*
X109815851Y-95923294D01*
X109950538Y-95923294D01*
X110051553Y-95889622D01*
X110118896Y-94812126D02*
X110455614Y-94475409D01*
X109849522Y-94677439D02*
X110792331Y-95148844D01*
X110320927Y-94206035D01*
X110960690Y-93566272D02*
X111061705Y-94138691D01*
X110556629Y-93970333D02*
X111263736Y-94677439D01*
X111533110Y-94408065D01*
X111566782Y-94307050D01*
X111566782Y-94239707D01*
X111533110Y-94138691D01*
X111432095Y-94037676D01*
X111331079Y-94004004D01*
X111263736Y-94004004D01*
X111162721Y-94037676D01*
X110893347Y-94307050D01*
X111263736Y-93263226D02*
X111970843Y-93970333D01*
X112139201Y-93801974D01*
X112206545Y-93667287D01*
X112206545Y-93532600D01*
X112172873Y-93431585D01*
X112071858Y-93263226D01*
X111970843Y-93162211D01*
X111802484Y-93061195D01*
X111701469Y-93027524D01*
X111566782Y-93027524D01*
X111432095Y-93094867D01*
X111263736Y-93263226D01*
X104558007Y-99049716D02*
X104086602Y-98106907D01*
X105029411Y-98578312D01*
X105399801Y-98207923D02*
X105467144Y-98140579D01*
X105500816Y-98039564D01*
X105500816Y-97972220D01*
X105467144Y-97871205D01*
X105366129Y-97702846D01*
X105197770Y-97534488D01*
X105029411Y-97433472D01*
X104928396Y-97399801D01*
X104861053Y-97399801D01*
X104760037Y-97433472D01*
X104692694Y-97500816D01*
X104659022Y-97601831D01*
X104659022Y-97669175D01*
X104692694Y-97770190D01*
X104793709Y-97938549D01*
X104962068Y-98106907D01*
X105130427Y-98207923D01*
X105231442Y-98241594D01*
X105298785Y-98241594D01*
X105399801Y-98207923D01*
X106073236Y-97534488D02*
X106140579Y-97467144D01*
X106174251Y-97366129D01*
X106174251Y-97298785D01*
X106140579Y-97197770D01*
X106039564Y-97029411D01*
X105871205Y-96861053D01*
X105702846Y-96760037D01*
X105601831Y-96726366D01*
X105534488Y-96726366D01*
X105433472Y-96760037D01*
X105366129Y-96827381D01*
X105332457Y-96928396D01*
X105332457Y-96995740D01*
X105366129Y-97096755D01*
X105467144Y-97265114D01*
X105635503Y-97433472D01*
X105803862Y-97534488D01*
X105904877Y-97568159D01*
X105972220Y-97568159D01*
X106073236Y-97534488D01*
X106275266Y-95918244D02*
X105871205Y-96322305D01*
X106073236Y-96120274D02*
X106780342Y-96827381D01*
X106611984Y-96793709D01*
X106477297Y-96793709D01*
X106376281Y-96827381D01*
D11*
%TO.C,J2*%
X117723006Y-111092102D02*
X114046051Y-114769058D01*
X114088478Y-107457574D02*
X117723006Y-111092102D01*
X108573045Y-109296051D02*
X114046051Y-114769058D01*
X114088478Y-107457574D02*
X112250000Y-109296051D01*
X112250000Y-109296051D02*
X110411522Y-107457574D01*
X110411522Y-107457574D02*
X108573045Y-109296051D01*
X113190452Y-106559548D02*
X112250000Y-105619096D01*
X112250000Y-105619096D02*
X111309548Y-106559548D01*
D10*
X109552893Y-106127539D02*
X110057969Y-106632615D01*
X110192656Y-106699959D01*
X110327343Y-106699959D01*
X110462030Y-106632615D01*
X110529373Y-106565272D01*
X109317190Y-106497928D02*
X109249847Y-106497928D01*
X109148832Y-106531600D01*
X108980473Y-106699959D01*
X108946801Y-106800974D01*
X108946801Y-106868318D01*
X108980473Y-106969333D01*
X109047816Y-107036676D01*
X109182503Y-107104020D01*
X109990625Y-107104020D01*
X109552893Y-107541753D01*
%TD*%
M02*
