%TF.GenerationSoftware,KiCad,Pcbnew,(5.1.6)-1*%
%TF.CreationDate,2021-01-25T18:01:45+00:00*%
%TF.ProjectId,Illum,496c6c75-6d2e-46b6-9963-61645f706362,rev?*%
%TF.SameCoordinates,Original*%
%TF.FileFunction,Legend,Top*%
%TF.FilePolarity,Positive*%
%FSLAX46Y46*%
G04 Gerber Fmt 4.6, Leading zero omitted, Abs format (unit mm)*
G04 Created by KiCad (PCBNEW (5.1.6)-1) date 2021-01-25 18:01:45*
%MOMM*%
%LPD*%
G01*
G04 APERTURE LIST*
%ADD10C,0.120000*%
%ADD11C,0.150000*%
G04 APERTURE END LIST*
D10*
%TO.C,TP5*%
X115055000Y-102935000D02*
X116445000Y-102935000D01*
X115055000Y-102935000D02*
X115055000Y-102810000D01*
X116445000Y-102935000D02*
X116445000Y-102810000D01*
X115055000Y-102935000D02*
X115141724Y-102935000D01*
X116358276Y-102935000D02*
X116445000Y-102935000D01*
X115055000Y-102250000D02*
X115055000Y-101565000D01*
X115055000Y-101565000D02*
X115750000Y-101565000D01*
%TO.C,TP4*%
X113055000Y-102935000D02*
X114445000Y-102935000D01*
X113055000Y-102935000D02*
X113055000Y-102810000D01*
X114445000Y-102935000D02*
X114445000Y-102810000D01*
X113055000Y-102935000D02*
X113141724Y-102935000D01*
X114358276Y-102935000D02*
X114445000Y-102935000D01*
X113055000Y-102250000D02*
X113055000Y-101565000D01*
X113055000Y-101565000D02*
X113750000Y-101565000D01*
%TO.C,TP3*%
X111055000Y-102935000D02*
X112445000Y-102935000D01*
X111055000Y-102935000D02*
X111055000Y-102810000D01*
X112445000Y-102935000D02*
X112445000Y-102810000D01*
X111055000Y-102935000D02*
X111141724Y-102935000D01*
X112358276Y-102935000D02*
X112445000Y-102935000D01*
X111055000Y-102250000D02*
X111055000Y-101565000D01*
X111055000Y-101565000D02*
X111750000Y-101565000D01*
%TO.C,TP2*%
X113055000Y-100935000D02*
X114445000Y-100935000D01*
X113055000Y-100935000D02*
X113055000Y-100810000D01*
X114445000Y-100935000D02*
X114445000Y-100810000D01*
X113055000Y-100935000D02*
X113141724Y-100935000D01*
X114358276Y-100935000D02*
X114445000Y-100935000D01*
X113055000Y-100250000D02*
X113055000Y-99565000D01*
X113055000Y-99565000D02*
X113750000Y-99565000D01*
%TO.C,TP1*%
X111055000Y-100935000D02*
X112445000Y-100935000D01*
X111055000Y-100935000D02*
X111055000Y-100810000D01*
X112445000Y-100935000D02*
X112445000Y-100810000D01*
X111055000Y-100935000D02*
X111141724Y-100935000D01*
X112358276Y-100935000D02*
X112445000Y-100935000D01*
X111055000Y-100250000D02*
X111055000Y-99565000D01*
X111055000Y-99565000D02*
X111750000Y-99565000D01*
%TO.C,J1*%
X100490000Y-114765000D02*
X101292470Y-114765000D01*
X101907530Y-114765000D02*
X102710000Y-114765000D01*
X100490000Y-113560000D02*
X100490000Y-114765000D01*
X102710000Y-113560000D02*
X102710000Y-114765000D01*
X100490000Y-113560000D02*
X101036529Y-113560000D01*
X102163471Y-113560000D02*
X102710000Y-113560000D01*
X100490000Y-112800000D02*
X100490000Y-112040000D01*
X100490000Y-112040000D02*
X101600000Y-112040000D01*
%TO.C,D8*%
X120885929Y-117028284D02*
X118987348Y-115129703D01*
X118987348Y-115129703D02*
X117629703Y-116487348D01*
X117629703Y-116487348D02*
X119528284Y-118385929D01*
%TO.C,D7*%
X126385929Y-111528284D02*
X124487348Y-109629703D01*
X124487348Y-109629703D02*
X123129703Y-110987348D01*
X123129703Y-110987348D02*
X125028284Y-112885929D01*
%TO.C,D6*%
X125028284Y-99614071D02*
X123129703Y-101512652D01*
X123129703Y-101512652D02*
X124487348Y-102870297D01*
X124487348Y-102870297D02*
X126385929Y-100971716D01*
%TO.C,D5*%
X119028284Y-93614071D02*
X117129703Y-95512652D01*
X117129703Y-95512652D02*
X118487348Y-96870297D01*
X118487348Y-96870297D02*
X120385929Y-94971716D01*
%TO.C,D4*%
X111385929Y-117028284D02*
X109487348Y-115129703D01*
X109487348Y-115129703D02*
X108129703Y-116487348D01*
X108129703Y-116487348D02*
X110028284Y-118385929D01*
%TO.C,D3*%
X101614071Y-109971716D02*
X103512652Y-111870297D01*
X103512652Y-111870297D02*
X104870297Y-110512652D01*
X104870297Y-110512652D02*
X102971716Y-108614071D01*
%TO.C,D2*%
X101614071Y-100471716D02*
X103512652Y-102370297D01*
X103512652Y-102370297D02*
X104870297Y-101012652D01*
X104870297Y-101012652D02*
X102971716Y-99114071D01*
%TO.C,D1*%
X107114071Y-94971716D02*
X109012652Y-96870297D01*
X109012652Y-96870297D02*
X110370297Y-95512652D01*
X110370297Y-95512652D02*
X108471716Y-93614071D01*
%TO.C,U1*%
X104454058Y-112010408D02*
X105868272Y-110596194D01*
X109403806Y-114131728D02*
X107989592Y-115545942D01*
X101979185Y-106707107D02*
X105868272Y-110596194D01*
X109403806Y-114131728D02*
X113292893Y-118020815D01*
X122131728Y-101403806D02*
X126020815Y-105292893D01*
X123545942Y-99989592D02*
X122131728Y-101403806D01*
X118596194Y-97868272D02*
X120010408Y-96454058D01*
X126020815Y-106707107D02*
X114707107Y-118020815D01*
X114707107Y-93979185D02*
X118596194Y-97868272D01*
X101979185Y-105292893D02*
X113292893Y-93979185D01*
X124960155Y-106353553D02*
X114353553Y-116960155D01*
X114353553Y-95039845D02*
X124960155Y-105646447D01*
X103039845Y-105646447D02*
X113646447Y-95039845D01*
X113646447Y-116960155D02*
X103039845Y-106353553D01*
X107989592Y-115545942D02*
G75*
G02*
X104454058Y-112010408I-1767767J1767767D01*
G01*
X120010408Y-96454058D02*
G75*
G02*
X123545942Y-99989592I1767767J-1767767D01*
G01*
X114707107Y-118020815D02*
G75*
G02*
X113292893Y-118020815I-707107J707107D01*
G01*
X114353553Y-116960155D02*
G75*
G02*
X113646447Y-116960155I-353553J353553D01*
G01*
X126020815Y-105292893D02*
G75*
G02*
X126020815Y-106707107I-707107J-707107D01*
G01*
X124960155Y-105646447D02*
G75*
G02*
X124960155Y-106353553I-353553J-353553D01*
G01*
X113292893Y-93979185D02*
G75*
G02*
X114707107Y-93979185I707107J-707107D01*
G01*
X113646447Y-95039845D02*
G75*
G02*
X114353553Y-95039845I353553J-353553D01*
G01*
X103039845Y-106353553D02*
G75*
G02*
X103039845Y-105646447I353553J353553D01*
G01*
X101979185Y-106707107D02*
G75*
G02*
X101979185Y-105292893I707107J707107D01*
G01*
%TO.C,TP5*%
D11*
X114488095Y-100142380D02*
X115059523Y-100142380D01*
X114773809Y-101142380D02*
X114773809Y-100142380D01*
X115392857Y-101142380D02*
X115392857Y-100142380D01*
X115773809Y-100142380D01*
X115869047Y-100190000D01*
X115916666Y-100237619D01*
X115964285Y-100332857D01*
X115964285Y-100475714D01*
X115916666Y-100570952D01*
X115869047Y-100618571D01*
X115773809Y-100666190D01*
X115392857Y-100666190D01*
X116869047Y-100142380D02*
X116392857Y-100142380D01*
X116345238Y-100618571D01*
X116392857Y-100570952D01*
X116488095Y-100523333D01*
X116726190Y-100523333D01*
X116821428Y-100570952D01*
X116869047Y-100618571D01*
X116916666Y-100713809D01*
X116916666Y-100951904D01*
X116869047Y-101047142D01*
X116821428Y-101094761D01*
X116726190Y-101142380D01*
X116488095Y-101142380D01*
X116392857Y-101094761D01*
X116345238Y-101047142D01*
%TO.C,TP4*%
X112488095Y-100142380D02*
X113059523Y-100142380D01*
X112773809Y-101142380D02*
X112773809Y-100142380D01*
X113392857Y-101142380D02*
X113392857Y-100142380D01*
X113773809Y-100142380D01*
X113869047Y-100190000D01*
X113916666Y-100237619D01*
X113964285Y-100332857D01*
X113964285Y-100475714D01*
X113916666Y-100570952D01*
X113869047Y-100618571D01*
X113773809Y-100666190D01*
X113392857Y-100666190D01*
X114821428Y-100475714D02*
X114821428Y-101142380D01*
X114583333Y-100094761D02*
X114345238Y-100809047D01*
X114964285Y-100809047D01*
%TO.C,TP3*%
X110488095Y-100142380D02*
X111059523Y-100142380D01*
X110773809Y-101142380D02*
X110773809Y-100142380D01*
X111392857Y-101142380D02*
X111392857Y-100142380D01*
X111773809Y-100142380D01*
X111869047Y-100190000D01*
X111916666Y-100237619D01*
X111964285Y-100332857D01*
X111964285Y-100475714D01*
X111916666Y-100570952D01*
X111869047Y-100618571D01*
X111773809Y-100666190D01*
X111392857Y-100666190D01*
X112297619Y-100142380D02*
X112916666Y-100142380D01*
X112583333Y-100523333D01*
X112726190Y-100523333D01*
X112821428Y-100570952D01*
X112869047Y-100618571D01*
X112916666Y-100713809D01*
X112916666Y-100951904D01*
X112869047Y-101047142D01*
X112821428Y-101094761D01*
X112726190Y-101142380D01*
X112440476Y-101142380D01*
X112345238Y-101094761D01*
X112297619Y-101047142D01*
%TO.C,TP2*%
X112488095Y-98142380D02*
X113059523Y-98142380D01*
X112773809Y-99142380D02*
X112773809Y-98142380D01*
X113392857Y-99142380D02*
X113392857Y-98142380D01*
X113773809Y-98142380D01*
X113869047Y-98190000D01*
X113916666Y-98237619D01*
X113964285Y-98332857D01*
X113964285Y-98475714D01*
X113916666Y-98570952D01*
X113869047Y-98618571D01*
X113773809Y-98666190D01*
X113392857Y-98666190D01*
X114345238Y-98237619D02*
X114392857Y-98190000D01*
X114488095Y-98142380D01*
X114726190Y-98142380D01*
X114821428Y-98190000D01*
X114869047Y-98237619D01*
X114916666Y-98332857D01*
X114916666Y-98428095D01*
X114869047Y-98570952D01*
X114297619Y-99142380D01*
X114916666Y-99142380D01*
%TO.C,TP1*%
X110488095Y-98142380D02*
X111059523Y-98142380D01*
X110773809Y-99142380D02*
X110773809Y-98142380D01*
X111392857Y-99142380D02*
X111392857Y-98142380D01*
X111773809Y-98142380D01*
X111869047Y-98190000D01*
X111916666Y-98237619D01*
X111964285Y-98332857D01*
X111964285Y-98475714D01*
X111916666Y-98570952D01*
X111869047Y-98618571D01*
X111773809Y-98666190D01*
X111392857Y-98666190D01*
X112916666Y-99142380D02*
X112345238Y-99142380D01*
X112630952Y-99142380D02*
X112630952Y-98142380D01*
X112535714Y-98285238D01*
X112440476Y-98380476D01*
X112345238Y-98428095D01*
%TO.C,J1*%
X101266666Y-110557380D02*
X101266666Y-111271666D01*
X101219047Y-111414523D01*
X101123809Y-111509761D01*
X100980952Y-111557380D01*
X100885714Y-111557380D01*
X102266666Y-111557380D02*
X101695238Y-111557380D01*
X101980952Y-111557380D02*
X101980952Y-110557380D01*
X101885714Y-110700238D01*
X101790476Y-110795476D01*
X101695238Y-110843095D01*
%TO.C,R8*%
X116234952Y-119029345D02*
X116335967Y-118456925D01*
X115830891Y-118625284D02*
X116537997Y-117918177D01*
X116807372Y-118187551D01*
X116841043Y-118288566D01*
X116841043Y-118355910D01*
X116807372Y-118456925D01*
X116706356Y-118557940D01*
X116605341Y-118591612D01*
X116537997Y-118591612D01*
X116436982Y-118557940D01*
X116167608Y-118288566D01*
X117043074Y-119029345D02*
X117009402Y-118928330D01*
X117009402Y-118860986D01*
X117043074Y-118759971D01*
X117076746Y-118726299D01*
X117177761Y-118692627D01*
X117245104Y-118692627D01*
X117346120Y-118726299D01*
X117480807Y-118860986D01*
X117514478Y-118962002D01*
X117514478Y-119029345D01*
X117480807Y-119130360D01*
X117447135Y-119164032D01*
X117346120Y-119197704D01*
X117278776Y-119197704D01*
X117177761Y-119164032D01*
X117043074Y-119029345D01*
X116942059Y-118995673D01*
X116874715Y-118995673D01*
X116773700Y-119029345D01*
X116639013Y-119164032D01*
X116605341Y-119265047D01*
X116605341Y-119332391D01*
X116639013Y-119433406D01*
X116773700Y-119568093D01*
X116874715Y-119601765D01*
X116942059Y-119601765D01*
X117043074Y-119568093D01*
X117177761Y-119433406D01*
X117211433Y-119332391D01*
X117211433Y-119265047D01*
X117177761Y-119164032D01*
%TO.C,R7*%
X126232529Y-108874715D02*
X126333544Y-108302295D01*
X125828468Y-108470654D02*
X126535574Y-107763547D01*
X126804949Y-108032921D01*
X126838620Y-108133936D01*
X126838620Y-108201280D01*
X126804949Y-108302295D01*
X126703933Y-108403310D01*
X126602918Y-108436982D01*
X126535574Y-108436982D01*
X126434559Y-108403310D01*
X126165185Y-108133936D01*
X127175338Y-108403310D02*
X127646742Y-108874715D01*
X126636590Y-109278776D01*
%TO.C,D8*%
X119824932Y-115631243D02*
X120532038Y-114924136D01*
X120700397Y-115092495D01*
X120767741Y-115227182D01*
X120767741Y-115361869D01*
X120734069Y-115462884D01*
X120633054Y-115631243D01*
X120532038Y-115732258D01*
X120363680Y-115833274D01*
X120262664Y-115866945D01*
X120127977Y-115866945D01*
X119993290Y-115799602D01*
X119824932Y-115631243D01*
X121037115Y-116035304D02*
X121003443Y-115934289D01*
X121003443Y-115866945D01*
X121037115Y-115765930D01*
X121070787Y-115732258D01*
X121171802Y-115698586D01*
X121239145Y-115698586D01*
X121340161Y-115732258D01*
X121474848Y-115866945D01*
X121508519Y-115967961D01*
X121508519Y-116035304D01*
X121474848Y-116136319D01*
X121441176Y-116169991D01*
X121340161Y-116203663D01*
X121272817Y-116203663D01*
X121171802Y-116169991D01*
X121037115Y-116035304D01*
X120936100Y-116001632D01*
X120868756Y-116001632D01*
X120767741Y-116035304D01*
X120633054Y-116169991D01*
X120599382Y-116271006D01*
X120599382Y-116338350D01*
X120633054Y-116439365D01*
X120767741Y-116574052D01*
X120868756Y-116607724D01*
X120936100Y-116607724D01*
X121037115Y-116574052D01*
X121171802Y-116439365D01*
X121205474Y-116338350D01*
X121205474Y-116271006D01*
X121171802Y-116169991D01*
%TO.C,D7*%
X125324932Y-110131243D02*
X126032038Y-109424136D01*
X126200397Y-109592495D01*
X126267741Y-109727182D01*
X126267741Y-109861869D01*
X126234069Y-109962884D01*
X126133054Y-110131243D01*
X126032038Y-110232258D01*
X125863680Y-110333274D01*
X125762664Y-110366945D01*
X125627977Y-110366945D01*
X125493290Y-110299602D01*
X125324932Y-110131243D01*
X126671802Y-110063899D02*
X127143206Y-110535304D01*
X126133054Y-110939365D01*
%TO.C,D6*%
X123631243Y-100675067D02*
X122924136Y-99967961D01*
X123092495Y-99799602D01*
X123227182Y-99732258D01*
X123361869Y-99732258D01*
X123462884Y-99765930D01*
X123631243Y-99866945D01*
X123732258Y-99967961D01*
X123833274Y-100136319D01*
X123866945Y-100237335D01*
X123866945Y-100372022D01*
X123799602Y-100506709D01*
X123631243Y-100675067D01*
X123934289Y-98957808D02*
X123799602Y-99092495D01*
X123765930Y-99193510D01*
X123765930Y-99260854D01*
X123799602Y-99429212D01*
X123900617Y-99597571D01*
X124169991Y-99866945D01*
X124271006Y-99900617D01*
X124338350Y-99900617D01*
X124439365Y-99866945D01*
X124574052Y-99732258D01*
X124607724Y-99631243D01*
X124607724Y-99563899D01*
X124574052Y-99462884D01*
X124405693Y-99294525D01*
X124304678Y-99260854D01*
X124237335Y-99260854D01*
X124136319Y-99294525D01*
X124001632Y-99429212D01*
X123967961Y-99530228D01*
X123967961Y-99597571D01*
X124001632Y-99698586D01*
%TO.C,D5*%
X117631243Y-94675067D02*
X116924136Y-93967961D01*
X117092495Y-93799602D01*
X117227182Y-93732258D01*
X117361869Y-93732258D01*
X117462884Y-93765930D01*
X117631243Y-93866945D01*
X117732258Y-93967961D01*
X117833274Y-94136319D01*
X117866945Y-94237335D01*
X117866945Y-94372022D01*
X117799602Y-94506709D01*
X117631243Y-94675067D01*
X117967961Y-92924136D02*
X117631243Y-93260854D01*
X117934289Y-93631243D01*
X117934289Y-93563899D01*
X117967961Y-93462884D01*
X118136319Y-93294525D01*
X118237335Y-93260854D01*
X118304678Y-93260854D01*
X118405693Y-93294525D01*
X118574052Y-93462884D01*
X118607724Y-93563899D01*
X118607724Y-93631243D01*
X118574052Y-93732258D01*
X118405693Y-93900617D01*
X118304678Y-93934289D01*
X118237335Y-93934289D01*
%TO.C,D4*%
X110324932Y-115631243D02*
X111032038Y-114924136D01*
X111200397Y-115092495D01*
X111267741Y-115227182D01*
X111267741Y-115361869D01*
X111234069Y-115462884D01*
X111133054Y-115631243D01*
X111032038Y-115732258D01*
X110863680Y-115833274D01*
X110762664Y-115866945D01*
X110627977Y-115866945D01*
X110493290Y-115799602D01*
X110324932Y-115631243D01*
X111806489Y-116169991D02*
X111335084Y-116641396D01*
X111907504Y-115732258D02*
X111234069Y-116068976D01*
X111671802Y-116506709D01*
%TO.C,D3*%
X100991480Y-110964695D02*
X101698586Y-110257588D01*
X101866945Y-110425947D01*
X101934289Y-110560634D01*
X101934289Y-110695321D01*
X101900617Y-110796336D01*
X101799602Y-110964695D01*
X101698586Y-111065710D01*
X101530228Y-111166726D01*
X101429212Y-111200397D01*
X101294525Y-111200397D01*
X101159838Y-111133054D01*
X100991480Y-110964695D01*
X102338350Y-110897351D02*
X102776083Y-111335084D01*
X102271006Y-111368756D01*
X102372022Y-111469771D01*
X102405693Y-111570787D01*
X102405693Y-111638130D01*
X102372022Y-111739145D01*
X102203663Y-111907504D01*
X102102648Y-111941176D01*
X102035304Y-111941176D01*
X101934289Y-111907504D01*
X101732258Y-111705474D01*
X101698586Y-111604458D01*
X101698586Y-111537115D01*
%TO.C,D2*%
X100991480Y-101464695D02*
X101698586Y-100757588D01*
X101866945Y-100925947D01*
X101934289Y-101060634D01*
X101934289Y-101195321D01*
X101900617Y-101296336D01*
X101799602Y-101464695D01*
X101698586Y-101565710D01*
X101530228Y-101666726D01*
X101429212Y-101700397D01*
X101294525Y-101700397D01*
X101159838Y-101633054D01*
X100991480Y-101464695D01*
X102304678Y-101498367D02*
X102372022Y-101498367D01*
X102473037Y-101532038D01*
X102641396Y-101700397D01*
X102675067Y-101801413D01*
X102675067Y-101868756D01*
X102641396Y-101969771D01*
X102574052Y-102037115D01*
X102439365Y-102104458D01*
X101631243Y-102104458D01*
X102068976Y-102542191D01*
%TO.C,H4*%
X125238095Y-115252380D02*
X125238095Y-114252380D01*
X125238095Y-114728571D02*
X125809523Y-114728571D01*
X125809523Y-115252380D02*
X125809523Y-114252380D01*
X126714285Y-114585714D02*
X126714285Y-115252380D01*
X126476190Y-114204761D02*
X126238095Y-114919047D01*
X126857142Y-114919047D01*
%TO.C,H3*%
X101238095Y-115252380D02*
X101238095Y-114252380D01*
X101238095Y-114728571D02*
X101809523Y-114728571D01*
X101809523Y-115252380D02*
X101809523Y-114252380D01*
X102190476Y-114252380D02*
X102809523Y-114252380D01*
X102476190Y-114633333D01*
X102619047Y-114633333D01*
X102714285Y-114680952D01*
X102761904Y-114728571D01*
X102809523Y-114823809D01*
X102809523Y-115061904D01*
X102761904Y-115157142D01*
X102714285Y-115204761D01*
X102619047Y-115252380D01*
X102333333Y-115252380D01*
X102238095Y-115204761D01*
X102190476Y-115157142D01*
%TO.C,H2*%
X125238095Y-91252380D02*
X125238095Y-90252380D01*
X125238095Y-90728571D02*
X125809523Y-90728571D01*
X125809523Y-91252380D02*
X125809523Y-90252380D01*
X126238095Y-90347619D02*
X126285714Y-90300000D01*
X126380952Y-90252380D01*
X126619047Y-90252380D01*
X126714285Y-90300000D01*
X126761904Y-90347619D01*
X126809523Y-90442857D01*
X126809523Y-90538095D01*
X126761904Y-90680952D01*
X126190476Y-91252380D01*
X126809523Y-91252380D01*
%TO.C,H1*%
X101238095Y-91252380D02*
X101238095Y-90252380D01*
X101238095Y-90728571D02*
X101809523Y-90728571D01*
X101809523Y-91252380D02*
X101809523Y-90252380D01*
X102809523Y-91252380D02*
X102238095Y-91252380D01*
X102523809Y-91252380D02*
X102523809Y-90252380D01*
X102428571Y-90395238D01*
X102333333Y-90490476D01*
X102238095Y-90538095D01*
%TO.C,D1*%
X106491480Y-95964695D02*
X107198586Y-95257588D01*
X107366945Y-95425947D01*
X107434289Y-95560634D01*
X107434289Y-95695321D01*
X107400617Y-95796336D01*
X107299602Y-95964695D01*
X107198586Y-96065710D01*
X107030228Y-96166726D01*
X106929212Y-96200397D01*
X106794525Y-96200397D01*
X106659838Y-96133054D01*
X106491480Y-95964695D01*
X107568976Y-97042191D02*
X107164915Y-96638130D01*
X107366945Y-96840161D02*
X108074052Y-96133054D01*
X107905693Y-96166726D01*
X107771006Y-96166726D01*
X107669991Y-96133054D01*
%TO.C,U1*%
X120852201Y-113929697D02*
X121424621Y-114502117D01*
X121525636Y-114535789D01*
X121592980Y-114535789D01*
X121693995Y-114502117D01*
X121828682Y-114367430D01*
X121862354Y-114266415D01*
X121862354Y-114199071D01*
X121828682Y-114098056D01*
X121256262Y-113525636D01*
X122670476Y-113525636D02*
X122266415Y-113929697D01*
X122468445Y-113727667D02*
X121761339Y-113020560D01*
X121795010Y-113188919D01*
X121795010Y-113323606D01*
X121761339Y-113424621D01*
%TO.C,R6*%
X127029345Y-104265047D02*
X126456925Y-104164032D01*
X126625284Y-104669108D02*
X125918177Y-103962002D01*
X126187551Y-103692627D01*
X126288566Y-103658956D01*
X126355910Y-103658956D01*
X126456925Y-103692627D01*
X126557940Y-103793643D01*
X126591612Y-103894658D01*
X126591612Y-103962002D01*
X126557940Y-104063017D01*
X126288566Y-104332391D01*
X126928330Y-102951849D02*
X126793643Y-103086536D01*
X126759971Y-103187551D01*
X126759971Y-103254895D01*
X126793643Y-103423253D01*
X126894658Y-103591612D01*
X127164032Y-103860986D01*
X127265047Y-103894658D01*
X127332391Y-103894658D01*
X127433406Y-103860986D01*
X127568093Y-103726299D01*
X127601765Y-103625284D01*
X127601765Y-103557940D01*
X127568093Y-103456925D01*
X127399734Y-103288566D01*
X127298719Y-103254895D01*
X127231376Y-103254895D01*
X127130360Y-103288566D01*
X126995673Y-103423253D01*
X126962002Y-103524269D01*
X126962002Y-103591612D01*
X126995673Y-103692627D01*
%TO.C,R5*%
X118029345Y-95422100D02*
X117456925Y-95321085D01*
X117625284Y-95826161D02*
X116918177Y-95119055D01*
X117187551Y-94849680D01*
X117288566Y-94816009D01*
X117355910Y-94816009D01*
X117456925Y-94849680D01*
X117557940Y-94950696D01*
X117591612Y-95051711D01*
X117591612Y-95119055D01*
X117557940Y-95220070D01*
X117288566Y-95489444D01*
X117962002Y-94075230D02*
X117625284Y-94411948D01*
X117928330Y-94782337D01*
X117928330Y-94714993D01*
X117962002Y-94613978D01*
X118130360Y-94445619D01*
X118231376Y-94411948D01*
X118298719Y-94411948D01*
X118399734Y-94445619D01*
X118568093Y-94613978D01*
X118601765Y-94714993D01*
X118601765Y-94782337D01*
X118568093Y-94883352D01*
X118399734Y-95051711D01*
X118298719Y-95085383D01*
X118231376Y-95085383D01*
%TO.C,R4*%
X112889582Y-117874715D02*
X112990597Y-117302295D01*
X112485521Y-117470654D02*
X113192627Y-116763547D01*
X113462002Y-117032921D01*
X113495673Y-117133936D01*
X113495673Y-117201280D01*
X113462002Y-117302295D01*
X113360986Y-117403310D01*
X113259971Y-117436982D01*
X113192627Y-117436982D01*
X113091612Y-117403310D01*
X112822238Y-117133936D01*
X113967078Y-118009402D02*
X113495673Y-118480807D01*
X114068093Y-117571669D02*
X113394658Y-117908387D01*
X113832391Y-118346120D01*
%TO.C,R3*%
X100234952Y-108529345D02*
X100335967Y-107956925D01*
X99830891Y-108125284D02*
X100537997Y-107418177D01*
X100807372Y-107687551D01*
X100841043Y-107788566D01*
X100841043Y-107855910D01*
X100807372Y-107956925D01*
X100706356Y-108057940D01*
X100605341Y-108091612D01*
X100537997Y-108091612D01*
X100436982Y-108057940D01*
X100167608Y-107788566D01*
X101177761Y-108057940D02*
X101615494Y-108495673D01*
X101110417Y-108529345D01*
X101211433Y-108630360D01*
X101245104Y-108731376D01*
X101245104Y-108798719D01*
X101211433Y-108899734D01*
X101043074Y-109068093D01*
X100942059Y-109101765D01*
X100874715Y-109101765D01*
X100773700Y-109068093D01*
X100571669Y-108866063D01*
X100537997Y-108765047D01*
X100537997Y-108697704D01*
%TO.C,R2*%
X100734952Y-103529345D02*
X100835967Y-102956925D01*
X100330891Y-103125284D02*
X101037997Y-102418177D01*
X101307372Y-102687551D01*
X101341043Y-102788566D01*
X101341043Y-102855910D01*
X101307372Y-102956925D01*
X101206356Y-103057940D01*
X101105341Y-103091612D01*
X101037997Y-103091612D01*
X100936982Y-103057940D01*
X100667608Y-102788566D01*
X101644089Y-103158956D02*
X101711433Y-103158956D01*
X101812448Y-103192627D01*
X101980807Y-103360986D01*
X102014478Y-103462002D01*
X102014478Y-103529345D01*
X101980807Y-103630360D01*
X101913463Y-103697704D01*
X101778776Y-103765047D01*
X100970654Y-103765047D01*
X101408387Y-104202780D01*
%TO.C,R1*%
X109734952Y-94529345D02*
X109835967Y-93956925D01*
X109330891Y-94125284D02*
X110037997Y-93418177D01*
X110307372Y-93687551D01*
X110341043Y-93788566D01*
X110341043Y-93855910D01*
X110307372Y-93956925D01*
X110206356Y-94057940D01*
X110105341Y-94091612D01*
X110037997Y-94091612D01*
X109936982Y-94057940D01*
X109667608Y-93788566D01*
X110408387Y-95202780D02*
X110004326Y-94798719D01*
X110206356Y-95000750D02*
X110913463Y-94293643D01*
X110745104Y-94327315D01*
X110610417Y-94327315D01*
X110509402Y-94293643D01*
%TD*%
M02*
