%TF.GenerationSoftware,KiCad,Pcbnew,(5.1.6)-1*%
%TF.CreationDate,2021-01-25T18:01:45+00:00*%
%TF.ProjectId,Illum,496c6c75-6d2e-46b6-9963-61645f706362,rev?*%
%TF.SameCoordinates,Original*%
%TF.FileFunction,Paste,Top*%
%TF.FilePolarity,Positive*%
%FSLAX46Y46*%
G04 Gerber Fmt 4.6, Leading zero omitted, Abs format (unit mm)*
G04 Created by KiCad (PCBNEW (5.1.6)-1) date 2021-01-25 18:01:45*
%MOMM*%
%LPD*%
G01*
G04 APERTURE LIST*
G04 APERTURE END LIST*
%TO.C,R8*%
G36*
G01*
X117487625Y-117743674D02*
X117243673Y-117987625D01*
G75*
G02*
X117035077Y-117987625I-104298J104298D01*
G01*
X116826481Y-117779029D01*
G75*
G02*
X116826481Y-117570433I104298J104298D01*
G01*
X117070433Y-117326481D01*
G75*
G02*
X117279029Y-117326481I104298J-104298D01*
G01*
X117487625Y-117535077D01*
G75*
G02*
X117487625Y-117743673I-104298J-104298D01*
G01*
G37*
G36*
G01*
X118173519Y-118429568D02*
X117929567Y-118673519D01*
G75*
G02*
X117720971Y-118673519I-104298J104298D01*
G01*
X117512375Y-118464923D01*
G75*
G02*
X117512375Y-118256327I104298J104298D01*
G01*
X117756327Y-118012375D01*
G75*
G02*
X117964923Y-118012375I104298J-104298D01*
G01*
X118173519Y-118220971D01*
G75*
G02*
X118173519Y-118429567I-104298J-104298D01*
G01*
G37*
%TD*%
%TO.C,R7*%
G36*
G01*
X125855322Y-109756326D02*
X126099274Y-109512375D01*
G75*
G02*
X126307870Y-109512375I104298J-104298D01*
G01*
X126516466Y-109720971D01*
G75*
G02*
X126516466Y-109929567I-104298J-104298D01*
G01*
X126272514Y-110173519D01*
G75*
G02*
X126063918Y-110173519I-104298J104298D01*
G01*
X125855322Y-109964923D01*
G75*
G02*
X125855322Y-109756327I104298J104298D01*
G01*
G37*
G36*
G01*
X125169428Y-109070432D02*
X125413380Y-108826481D01*
G75*
G02*
X125621976Y-108826481I104298J-104298D01*
G01*
X125830572Y-109035077D01*
G75*
G02*
X125830572Y-109243673I-104298J-104298D01*
G01*
X125586620Y-109487625D01*
G75*
G02*
X125378024Y-109487625I-104298J104298D01*
G01*
X125169428Y-109279029D01*
G75*
G02*
X125169428Y-109070433I104298J104298D01*
G01*
G37*
%TD*%
%TO.C,D8*%
G36*
G01*
X119495581Y-117640816D02*
X120140816Y-116995581D01*
G75*
G02*
X120485530Y-116995581I172357J-172357D01*
G01*
X120830245Y-117340296D01*
G75*
G02*
X120830245Y-117685010I-172357J-172357D01*
G01*
X120185010Y-118330245D01*
G75*
G02*
X119840296Y-118330245I-172357J172357D01*
G01*
X119495581Y-117985530D01*
G75*
G02*
X119495581Y-117640816I172357J172357D01*
G01*
G37*
G36*
G01*
X118169755Y-116314990D02*
X118814990Y-115669755D01*
G75*
G02*
X119159704Y-115669755I172357J-172357D01*
G01*
X119504419Y-116014470D01*
G75*
G02*
X119504419Y-116359184I-172357J-172357D01*
G01*
X118859184Y-117004419D01*
G75*
G02*
X118514470Y-117004419I-172357J172357D01*
G01*
X118169755Y-116659704D01*
G75*
G02*
X118169755Y-116314990I172357J172357D01*
G01*
G37*
%TD*%
%TO.C,D7*%
G36*
G01*
X124995581Y-112140816D02*
X125640816Y-111495581D01*
G75*
G02*
X125985530Y-111495581I172357J-172357D01*
G01*
X126330245Y-111840296D01*
G75*
G02*
X126330245Y-112185010I-172357J-172357D01*
G01*
X125685010Y-112830245D01*
G75*
G02*
X125340296Y-112830245I-172357J172357D01*
G01*
X124995581Y-112485530D01*
G75*
G02*
X124995581Y-112140816I172357J172357D01*
G01*
G37*
G36*
G01*
X123669755Y-110814990D02*
X124314990Y-110169755D01*
G75*
G02*
X124659704Y-110169755I172357J-172357D01*
G01*
X125004419Y-110514470D01*
G75*
G02*
X125004419Y-110859184I-172357J-172357D01*
G01*
X124359184Y-111504419D01*
G75*
G02*
X124014470Y-111504419I-172357J172357D01*
G01*
X123669755Y-111159704D01*
G75*
G02*
X123669755Y-110814990I172357J172357D01*
G01*
G37*
%TD*%
%TO.C,D6*%
G36*
G01*
X125640816Y-101004419D02*
X124995581Y-100359184D01*
G75*
G02*
X124995581Y-100014470I172357J172357D01*
G01*
X125340296Y-99669755D01*
G75*
G02*
X125685010Y-99669755I172357J-172357D01*
G01*
X126330245Y-100314990D01*
G75*
G02*
X126330245Y-100659704I-172357J-172357D01*
G01*
X125985530Y-101004419D01*
G75*
G02*
X125640816Y-101004419I-172357J172357D01*
G01*
G37*
G36*
G01*
X124314990Y-102330245D02*
X123669755Y-101685010D01*
G75*
G02*
X123669755Y-101340296I172357J172357D01*
G01*
X124014470Y-100995581D01*
G75*
G02*
X124359184Y-100995581I172357J-172357D01*
G01*
X125004419Y-101640816D01*
G75*
G02*
X125004419Y-101985530I-172357J-172357D01*
G01*
X124659704Y-102330245D01*
G75*
G02*
X124314990Y-102330245I-172357J172357D01*
G01*
G37*
%TD*%
%TO.C,D5*%
G36*
G01*
X119640816Y-95004419D02*
X118995581Y-94359184D01*
G75*
G02*
X118995581Y-94014470I172357J172357D01*
G01*
X119340296Y-93669755D01*
G75*
G02*
X119685010Y-93669755I172357J-172357D01*
G01*
X120330245Y-94314990D01*
G75*
G02*
X120330245Y-94659704I-172357J-172357D01*
G01*
X119985530Y-95004419D01*
G75*
G02*
X119640816Y-95004419I-172357J172357D01*
G01*
G37*
G36*
G01*
X118314990Y-96330245D02*
X117669755Y-95685010D01*
G75*
G02*
X117669755Y-95340296I172357J172357D01*
G01*
X118014470Y-94995581D01*
G75*
G02*
X118359184Y-94995581I172357J-172357D01*
G01*
X119004419Y-95640816D01*
G75*
G02*
X119004419Y-95985530I-172357J-172357D01*
G01*
X118659704Y-96330245D01*
G75*
G02*
X118314990Y-96330245I-172357J172357D01*
G01*
G37*
%TD*%
%TO.C,D4*%
G36*
G01*
X109995581Y-117640816D02*
X110640816Y-116995581D01*
G75*
G02*
X110985530Y-116995581I172357J-172357D01*
G01*
X111330245Y-117340296D01*
G75*
G02*
X111330245Y-117685010I-172357J-172357D01*
G01*
X110685010Y-118330245D01*
G75*
G02*
X110340296Y-118330245I-172357J172357D01*
G01*
X109995581Y-117985530D01*
G75*
G02*
X109995581Y-117640816I172357J172357D01*
G01*
G37*
G36*
G01*
X108669755Y-116314990D02*
X109314990Y-115669755D01*
G75*
G02*
X109659704Y-115669755I172357J-172357D01*
G01*
X110004419Y-116014470D01*
G75*
G02*
X110004419Y-116359184I-172357J-172357D01*
G01*
X109359184Y-117004419D01*
G75*
G02*
X109014470Y-117004419I-172357J172357D01*
G01*
X108669755Y-116659704D01*
G75*
G02*
X108669755Y-116314990I172357J172357D01*
G01*
G37*
%TD*%
%TO.C,D3*%
G36*
G01*
X103004419Y-109359184D02*
X102359184Y-110004419D01*
G75*
G02*
X102014470Y-110004419I-172357J172357D01*
G01*
X101669755Y-109659704D01*
G75*
G02*
X101669755Y-109314990I172357J172357D01*
G01*
X102314990Y-108669755D01*
G75*
G02*
X102659704Y-108669755I172357J-172357D01*
G01*
X103004419Y-109014470D01*
G75*
G02*
X103004419Y-109359184I-172357J-172357D01*
G01*
G37*
G36*
G01*
X104330245Y-110685010D02*
X103685010Y-111330245D01*
G75*
G02*
X103340296Y-111330245I-172357J172357D01*
G01*
X102995581Y-110985530D01*
G75*
G02*
X102995581Y-110640816I172357J172357D01*
G01*
X103640816Y-109995581D01*
G75*
G02*
X103985530Y-109995581I172357J-172357D01*
G01*
X104330245Y-110340296D01*
G75*
G02*
X104330245Y-110685010I-172357J-172357D01*
G01*
G37*
%TD*%
%TO.C,D2*%
G36*
G01*
X103004419Y-99859184D02*
X102359184Y-100504419D01*
G75*
G02*
X102014470Y-100504419I-172357J172357D01*
G01*
X101669755Y-100159704D01*
G75*
G02*
X101669755Y-99814990I172357J172357D01*
G01*
X102314990Y-99169755D01*
G75*
G02*
X102659704Y-99169755I172357J-172357D01*
G01*
X103004419Y-99514470D01*
G75*
G02*
X103004419Y-99859184I-172357J-172357D01*
G01*
G37*
G36*
G01*
X104330245Y-101185010D02*
X103685010Y-101830245D01*
G75*
G02*
X103340296Y-101830245I-172357J172357D01*
G01*
X102995581Y-101485530D01*
G75*
G02*
X102995581Y-101140816I172357J172357D01*
G01*
X103640816Y-100495581D01*
G75*
G02*
X103985530Y-100495581I172357J-172357D01*
G01*
X104330245Y-100840296D01*
G75*
G02*
X104330245Y-101185010I-172357J-172357D01*
G01*
G37*
%TD*%
%TO.C,D1*%
G36*
G01*
X108504419Y-94359184D02*
X107859184Y-95004419D01*
G75*
G02*
X107514470Y-95004419I-172357J172357D01*
G01*
X107169755Y-94659704D01*
G75*
G02*
X107169755Y-94314990I172357J172357D01*
G01*
X107814990Y-93669755D01*
G75*
G02*
X108159704Y-93669755I172357J-172357D01*
G01*
X108504419Y-94014470D01*
G75*
G02*
X108504419Y-94359184I-172357J-172357D01*
G01*
G37*
G36*
G01*
X109830245Y-95685010D02*
X109185010Y-96330245D01*
G75*
G02*
X108840296Y-96330245I-172357J172357D01*
G01*
X108495581Y-95985530D01*
G75*
G02*
X108495581Y-95640816I172357J172357D01*
G01*
X109140816Y-94995581D01*
G75*
G02*
X109485530Y-94995581I172357J-172357D01*
G01*
X109830245Y-95340296D01*
G75*
G02*
X109830245Y-95685010I-172357J-172357D01*
G01*
G37*
%TD*%
%TO.C,R6*%
G36*
G01*
X125743674Y-103012375D02*
X125987625Y-103256327D01*
G75*
G02*
X125987625Y-103464923I-104298J-104298D01*
G01*
X125779029Y-103673519D01*
G75*
G02*
X125570433Y-103673519I-104298J104298D01*
G01*
X125326481Y-103429567D01*
G75*
G02*
X125326481Y-103220971I104298J104298D01*
G01*
X125535077Y-103012375D01*
G75*
G02*
X125743673Y-103012375I104298J-104298D01*
G01*
G37*
G36*
G01*
X126429568Y-102326481D02*
X126673519Y-102570433D01*
G75*
G02*
X126673519Y-102779029I-104298J-104298D01*
G01*
X126464923Y-102987625D01*
G75*
G02*
X126256327Y-102987625I-104298J104298D01*
G01*
X126012375Y-102743673D01*
G75*
G02*
X126012375Y-102535077I104298J104298D01*
G01*
X126220971Y-102326481D01*
G75*
G02*
X126429567Y-102326481I104298J-104298D01*
G01*
G37*
%TD*%
%TO.C,R5*%
G36*
G01*
X116743674Y-94169428D02*
X116987625Y-94413380D01*
G75*
G02*
X116987625Y-94621976I-104298J-104298D01*
G01*
X116779029Y-94830572D01*
G75*
G02*
X116570433Y-94830572I-104298J104298D01*
G01*
X116326481Y-94586620D01*
G75*
G02*
X116326481Y-94378024I104298J104298D01*
G01*
X116535077Y-94169428D01*
G75*
G02*
X116743673Y-94169428I104298J-104298D01*
G01*
G37*
G36*
G01*
X117429568Y-93483534D02*
X117673519Y-93727486D01*
G75*
G02*
X117673519Y-93936082I-104298J-104298D01*
G01*
X117464923Y-94144678D01*
G75*
G02*
X117256327Y-94144678I-104298J104298D01*
G01*
X117012375Y-93900726D01*
G75*
G02*
X117012375Y-93692130I104298J104298D01*
G01*
X117220971Y-93483534D01*
G75*
G02*
X117429567Y-93483534I104298J-104298D01*
G01*
G37*
%TD*%
%TO.C,R4*%
G36*
G01*
X112512375Y-118756326D02*
X112756327Y-118512375D01*
G75*
G02*
X112964923Y-118512375I104298J-104298D01*
G01*
X113173519Y-118720971D01*
G75*
G02*
X113173519Y-118929567I-104298J-104298D01*
G01*
X112929567Y-119173519D01*
G75*
G02*
X112720971Y-119173519I-104298J104298D01*
G01*
X112512375Y-118964923D01*
G75*
G02*
X112512375Y-118756327I104298J104298D01*
G01*
G37*
G36*
G01*
X111826481Y-118070432D02*
X112070433Y-117826481D01*
G75*
G02*
X112279029Y-117826481I104298J-104298D01*
G01*
X112487625Y-118035077D01*
G75*
G02*
X112487625Y-118243673I-104298J-104298D01*
G01*
X112243673Y-118487625D01*
G75*
G02*
X112035077Y-118487625I-104298J104298D01*
G01*
X111826481Y-118279029D01*
G75*
G02*
X111826481Y-118070433I104298J104298D01*
G01*
G37*
%TD*%
%TO.C,R3*%
G36*
G01*
X101487625Y-107243674D02*
X101243673Y-107487625D01*
G75*
G02*
X101035077Y-107487625I-104298J104298D01*
G01*
X100826481Y-107279029D01*
G75*
G02*
X100826481Y-107070433I104298J104298D01*
G01*
X101070433Y-106826481D01*
G75*
G02*
X101279029Y-106826481I104298J-104298D01*
G01*
X101487625Y-107035077D01*
G75*
G02*
X101487625Y-107243673I-104298J-104298D01*
G01*
G37*
G36*
G01*
X102173519Y-107929568D02*
X101929567Y-108173519D01*
G75*
G02*
X101720971Y-108173519I-104298J104298D01*
G01*
X101512375Y-107964923D01*
G75*
G02*
X101512375Y-107756327I104298J104298D01*
G01*
X101756327Y-107512375D01*
G75*
G02*
X101964923Y-107512375I104298J-104298D01*
G01*
X102173519Y-107720971D01*
G75*
G02*
X102173519Y-107929567I-104298J-104298D01*
G01*
G37*
%TD*%
%TO.C,R2*%
G36*
G01*
X101987625Y-102243674D02*
X101743673Y-102487625D01*
G75*
G02*
X101535077Y-102487625I-104298J104298D01*
G01*
X101326481Y-102279029D01*
G75*
G02*
X101326481Y-102070433I104298J104298D01*
G01*
X101570433Y-101826481D01*
G75*
G02*
X101779029Y-101826481I104298J-104298D01*
G01*
X101987625Y-102035077D01*
G75*
G02*
X101987625Y-102243673I-104298J-104298D01*
G01*
G37*
G36*
G01*
X102673519Y-102929568D02*
X102429567Y-103173519D01*
G75*
G02*
X102220971Y-103173519I-104298J104298D01*
G01*
X102012375Y-102964923D01*
G75*
G02*
X102012375Y-102756327I104298J104298D01*
G01*
X102256327Y-102512375D01*
G75*
G02*
X102464923Y-102512375I104298J-104298D01*
G01*
X102673519Y-102720971D01*
G75*
G02*
X102673519Y-102929567I-104298J-104298D01*
G01*
G37*
%TD*%
%TO.C,R1*%
G36*
G01*
X110987625Y-93243674D02*
X110743673Y-93487625D01*
G75*
G02*
X110535077Y-93487625I-104298J104298D01*
G01*
X110326481Y-93279029D01*
G75*
G02*
X110326481Y-93070433I104298J104298D01*
G01*
X110570433Y-92826481D01*
G75*
G02*
X110779029Y-92826481I104298J-104298D01*
G01*
X110987625Y-93035077D01*
G75*
G02*
X110987625Y-93243673I-104298J-104298D01*
G01*
G37*
G36*
G01*
X111673519Y-93929568D02*
X111429567Y-94173519D01*
G75*
G02*
X111220971Y-94173519I-104298J104298D01*
G01*
X111012375Y-93964923D01*
G75*
G02*
X111012375Y-93756327I104298J104298D01*
G01*
X111256327Y-93512375D01*
G75*
G02*
X111464923Y-93512375I104298J-104298D01*
G01*
X111673519Y-93720971D01*
G75*
G02*
X111673519Y-93929567I-104298J-104298D01*
G01*
G37*
%TD*%
M02*
