%TF.GenerationSoftware,KiCad,Pcbnew,(5.1.6)-1*%
%TF.CreationDate,2021-01-25T15:06:37+00:00*%
%TF.ProjectId,OpenPnPVis,4f70656e-506e-4505-9669-732e6b696361,003*%
%TF.SameCoordinates,Original*%
%TF.FileFunction,Soldermask,Bot*%
%TF.FilePolarity,Negative*%
%FSLAX46Y46*%
G04 Gerber Fmt 4.6, Leading zero omitted, Abs format (unit mm)*
G04 Created by KiCad (PCBNEW (5.1.6)-1) date 2021-01-25 15:06:37*
%MOMM*%
%LPD*%
G01*
G04 APERTURE LIST*
%ADD10R,0.350000X0.850000*%
%ADD11C,2.600000*%
%ADD12R,1.600000X1.000000*%
%ADD13O,1.100000X1.100000*%
%ADD14R,1.100000X1.100000*%
%ADD15R,0.400000X1.550000*%
%ADD16C,0.750000*%
%ADD17O,1.100000X2.200000*%
%ADD18O,1.100000X1.700000*%
%ADD19C,0.800000*%
%ADD20C,4.500000*%
%ADD21R,1.300000X1.500000*%
%ADD22R,1.160000X0.750000*%
%ADD23R,3.900000X3.900000*%
%ADD24R,1.600000X2.100000*%
%ADD25R,3.900000X2.100000*%
%ADD26R,0.400000X0.900000*%
G04 APERTURE END LIST*
D10*
%TO.C,U8*%
X76750000Y-102850000D03*
X77250000Y-102850000D03*
X77750000Y-102850000D03*
X78250000Y-102850000D03*
X78250000Y-99750000D03*
X77750000Y-99750000D03*
X77250000Y-99750000D03*
X76750000Y-99750000D03*
%TD*%
D11*
%TO.C,LENSMOUNT1*%
X96778175Y-93021825D03*
X81221825Y-108578175D03*
%TD*%
D12*
%TO.C,U4*%
X97000000Y-98300000D03*
G36*
G01*
X96162500Y-98900000D02*
X96337500Y-98900000D01*
G75*
G02*
X96425000Y-98987500I0J-87500D01*
G01*
X96425000Y-99612500D01*
G75*
G02*
X96337500Y-99700000I-87500J0D01*
G01*
X96162500Y-99700000D01*
G75*
G02*
X96075000Y-99612500I0J87500D01*
G01*
X96075000Y-98987500D01*
G75*
G02*
X96162500Y-98900000I87500J0D01*
G01*
G37*
G36*
G01*
X96662500Y-98900000D02*
X96837500Y-98900000D01*
G75*
G02*
X96925000Y-98987500I0J-87500D01*
G01*
X96925000Y-99612500D01*
G75*
G02*
X96837500Y-99700000I-87500J0D01*
G01*
X96662500Y-99700000D01*
G75*
G02*
X96575000Y-99612500I0J87500D01*
G01*
X96575000Y-98987500D01*
G75*
G02*
X96662500Y-98900000I87500J0D01*
G01*
G37*
G36*
G01*
X97162500Y-98900000D02*
X97337500Y-98900000D01*
G75*
G02*
X97425000Y-98987500I0J-87500D01*
G01*
X97425000Y-99612500D01*
G75*
G02*
X97337500Y-99700000I-87500J0D01*
G01*
X97162500Y-99700000D01*
G75*
G02*
X97075000Y-99612500I0J87500D01*
G01*
X97075000Y-98987500D01*
G75*
G02*
X97162500Y-98900000I87500J0D01*
G01*
G37*
G36*
G01*
X97662500Y-98900000D02*
X97837500Y-98900000D01*
G75*
G02*
X97925000Y-98987500I0J-87500D01*
G01*
X97925000Y-99612500D01*
G75*
G02*
X97837500Y-99700000I-87500J0D01*
G01*
X97662500Y-99700000D01*
G75*
G02*
X97575000Y-99612500I0J87500D01*
G01*
X97575000Y-98987500D01*
G75*
G02*
X97662500Y-98900000I87500J0D01*
G01*
G37*
G36*
G01*
X97662500Y-96900000D02*
X97837500Y-96900000D01*
G75*
G02*
X97925000Y-96987500I0J-87500D01*
G01*
X97925000Y-97612500D01*
G75*
G02*
X97837500Y-97700000I-87500J0D01*
G01*
X97662500Y-97700000D01*
G75*
G02*
X97575000Y-97612500I0J87500D01*
G01*
X97575000Y-96987500D01*
G75*
G02*
X97662500Y-96900000I87500J0D01*
G01*
G37*
G36*
G01*
X97162500Y-96900000D02*
X97337500Y-96900000D01*
G75*
G02*
X97425000Y-96987500I0J-87500D01*
G01*
X97425000Y-97612500D01*
G75*
G02*
X97337500Y-97700000I-87500J0D01*
G01*
X97162500Y-97700000D01*
G75*
G02*
X97075000Y-97612500I0J87500D01*
G01*
X97075000Y-96987500D01*
G75*
G02*
X97162500Y-96900000I87500J0D01*
G01*
G37*
G36*
G01*
X96662500Y-96900000D02*
X96837500Y-96900000D01*
G75*
G02*
X96925000Y-96987500I0J-87500D01*
G01*
X96925000Y-97612500D01*
G75*
G02*
X96837500Y-97700000I-87500J0D01*
G01*
X96662500Y-97700000D01*
G75*
G02*
X96575000Y-97612500I0J87500D01*
G01*
X96575000Y-96987500D01*
G75*
G02*
X96662500Y-96900000I87500J0D01*
G01*
G37*
G36*
G01*
X96162500Y-96900000D02*
X96337500Y-96900000D01*
G75*
G02*
X96425000Y-96987500I0J-87500D01*
G01*
X96425000Y-97612500D01*
G75*
G02*
X96337500Y-97700000I-87500J0D01*
G01*
X96162500Y-97700000D01*
G75*
G02*
X96075000Y-97612500I0J87500D01*
G01*
X96075000Y-96987500D01*
G75*
G02*
X96162500Y-96900000I87500J0D01*
G01*
G37*
%TD*%
D13*
%TO.C,J3*%
X96470000Y-88000000D03*
D14*
X95200000Y-88000000D03*
%TD*%
D13*
%TO.C,J2*%
X76600000Y-108870000D03*
D14*
X76600000Y-107600000D03*
%TD*%
%TO.C,R1*%
G36*
G01*
X96860000Y-100402500D02*
X96860000Y-100797500D01*
G75*
G02*
X96687500Y-100970000I-172500J0D01*
G01*
X96342500Y-100970000D01*
G75*
G02*
X96170000Y-100797500I0J172500D01*
G01*
X96170000Y-100402500D01*
G75*
G02*
X96342500Y-100230000I172500J0D01*
G01*
X96687500Y-100230000D01*
G75*
G02*
X96860000Y-100402500I0J-172500D01*
G01*
G37*
G36*
G01*
X97830000Y-100402500D02*
X97830000Y-100797500D01*
G75*
G02*
X97657500Y-100970000I-172500J0D01*
G01*
X97312500Y-100970000D01*
G75*
G02*
X97140000Y-100797500I0J172500D01*
G01*
X97140000Y-100402500D01*
G75*
G02*
X97312500Y-100230000I172500J0D01*
G01*
X97657500Y-100230000D01*
G75*
G02*
X97830000Y-100402500I0J-172500D01*
G01*
G37*
%TD*%
D15*
%TO.C,J4*%
X85600000Y-105605000D03*
X85900000Y-105605000D03*
X86400000Y-105605000D03*
X86700000Y-105605000D03*
X91300000Y-105605000D03*
X91600000Y-105605000D03*
X92400000Y-105605000D03*
X92100000Y-105605000D03*
X90750000Y-105605000D03*
X87250000Y-105605000D03*
X90250000Y-105605000D03*
X87750000Y-105605000D03*
X89750000Y-105605000D03*
X88250000Y-105605000D03*
X88750000Y-105605000D03*
X89250000Y-105605000D03*
D16*
X86110000Y-107050000D03*
X91890000Y-107050000D03*
D17*
X93320000Y-106520000D03*
X84680000Y-106520000D03*
D18*
X93320000Y-110700000D03*
X84680000Y-110700000D03*
%TD*%
%TO.C,C7*%
G36*
G01*
X81100000Y-104821738D02*
X81100000Y-105778262D01*
G75*
G02*
X80828262Y-106050000I-271738J0D01*
G01*
X80121738Y-106050000D01*
G75*
G02*
X79850000Y-105778262I0J271738D01*
G01*
X79850000Y-104821738D01*
G75*
G02*
X80121738Y-104550000I271738J0D01*
G01*
X80828262Y-104550000D01*
G75*
G02*
X81100000Y-104821738I0J-271738D01*
G01*
G37*
G36*
G01*
X83150000Y-104821738D02*
X83150000Y-105778262D01*
G75*
G02*
X82878262Y-106050000I-271738J0D01*
G01*
X82171738Y-106050000D01*
G75*
G02*
X81900000Y-105778262I0J271738D01*
G01*
X81900000Y-104821738D01*
G75*
G02*
X82171738Y-104550000I271738J0D01*
G01*
X82878262Y-104550000D01*
G75*
G02*
X83150000Y-104821738I0J-271738D01*
G01*
G37*
%TD*%
D19*
%TO.C,H2*%
X78166726Y-111633274D03*
X77000000Y-111150000D03*
X75833274Y-111633274D03*
X75350000Y-112800000D03*
X75833274Y-113966726D03*
X77000000Y-114450000D03*
X78166726Y-113966726D03*
X78650000Y-112800000D03*
D20*
X77000000Y-112800000D03*
%TD*%
D19*
%TO.C,H1*%
X102166726Y-87633274D03*
X101000000Y-87150000D03*
X99833274Y-87633274D03*
X99350000Y-88800000D03*
X99833274Y-89966726D03*
X101000000Y-90450000D03*
X102166726Y-89966726D03*
X102650000Y-88800000D03*
D20*
X101000000Y-88800000D03*
%TD*%
D21*
%TO.C,Y1*%
X92850000Y-91400000D03*
X92850000Y-89200000D03*
X91150000Y-89200000D03*
X91150000Y-91400000D03*
%TD*%
D22*
%TO.C,U10*%
X99900000Y-99850000D03*
X99900000Y-101750000D03*
X102100000Y-101750000D03*
X102100000Y-100800000D03*
X102100000Y-99850000D03*
%TD*%
%TO.C,U9*%
X99900000Y-95850000D03*
X99900000Y-97750000D03*
X102100000Y-97750000D03*
X102100000Y-96800000D03*
X102100000Y-95850000D03*
%TD*%
%TO.C,U7*%
X99900000Y-91850000D03*
X99900000Y-93750000D03*
X102100000Y-93750000D03*
X102100000Y-92800000D03*
X102100000Y-91850000D03*
%TD*%
D23*
%TO.C,U3*%
X81000000Y-92800000D03*
G36*
G01*
X76175000Y-89050000D02*
X76950000Y-89050000D01*
G75*
G02*
X77025000Y-89125000I0J-75000D01*
G01*
X77025000Y-89275000D01*
G75*
G02*
X76950000Y-89350000I-75000J0D01*
G01*
X76175000Y-89350000D01*
G75*
G02*
X76100000Y-89275000I0J75000D01*
G01*
X76100000Y-89125000D01*
G75*
G02*
X76175000Y-89050000I75000J0D01*
G01*
G37*
G36*
G01*
X76175000Y-89450000D02*
X76950000Y-89450000D01*
G75*
G02*
X77025000Y-89525000I0J-75000D01*
G01*
X77025000Y-89675000D01*
G75*
G02*
X76950000Y-89750000I-75000J0D01*
G01*
X76175000Y-89750000D01*
G75*
G02*
X76100000Y-89675000I0J75000D01*
G01*
X76100000Y-89525000D01*
G75*
G02*
X76175000Y-89450000I75000J0D01*
G01*
G37*
G36*
G01*
X76175000Y-89850000D02*
X76950000Y-89850000D01*
G75*
G02*
X77025000Y-89925000I0J-75000D01*
G01*
X77025000Y-90075000D01*
G75*
G02*
X76950000Y-90150000I-75000J0D01*
G01*
X76175000Y-90150000D01*
G75*
G02*
X76100000Y-90075000I0J75000D01*
G01*
X76100000Y-89925000D01*
G75*
G02*
X76175000Y-89850000I75000J0D01*
G01*
G37*
G36*
G01*
X76175000Y-90250000D02*
X76950000Y-90250000D01*
G75*
G02*
X77025000Y-90325000I0J-75000D01*
G01*
X77025000Y-90475000D01*
G75*
G02*
X76950000Y-90550000I-75000J0D01*
G01*
X76175000Y-90550000D01*
G75*
G02*
X76100000Y-90475000I0J75000D01*
G01*
X76100000Y-90325000D01*
G75*
G02*
X76175000Y-90250000I75000J0D01*
G01*
G37*
G36*
G01*
X76175000Y-90650000D02*
X76950000Y-90650000D01*
G75*
G02*
X77025000Y-90725000I0J-75000D01*
G01*
X77025000Y-90875000D01*
G75*
G02*
X76950000Y-90950000I-75000J0D01*
G01*
X76175000Y-90950000D01*
G75*
G02*
X76100000Y-90875000I0J75000D01*
G01*
X76100000Y-90725000D01*
G75*
G02*
X76175000Y-90650000I75000J0D01*
G01*
G37*
G36*
G01*
X76175000Y-91050000D02*
X76950000Y-91050000D01*
G75*
G02*
X77025000Y-91125000I0J-75000D01*
G01*
X77025000Y-91275000D01*
G75*
G02*
X76950000Y-91350000I-75000J0D01*
G01*
X76175000Y-91350000D01*
G75*
G02*
X76100000Y-91275000I0J75000D01*
G01*
X76100000Y-91125000D01*
G75*
G02*
X76175000Y-91050000I75000J0D01*
G01*
G37*
G36*
G01*
X76175000Y-91450000D02*
X76950000Y-91450000D01*
G75*
G02*
X77025000Y-91525000I0J-75000D01*
G01*
X77025000Y-91675000D01*
G75*
G02*
X76950000Y-91750000I-75000J0D01*
G01*
X76175000Y-91750000D01*
G75*
G02*
X76100000Y-91675000I0J75000D01*
G01*
X76100000Y-91525000D01*
G75*
G02*
X76175000Y-91450000I75000J0D01*
G01*
G37*
G36*
G01*
X76175000Y-91850000D02*
X76950000Y-91850000D01*
G75*
G02*
X77025000Y-91925000I0J-75000D01*
G01*
X77025000Y-92075000D01*
G75*
G02*
X76950000Y-92150000I-75000J0D01*
G01*
X76175000Y-92150000D01*
G75*
G02*
X76100000Y-92075000I0J75000D01*
G01*
X76100000Y-91925000D01*
G75*
G02*
X76175000Y-91850000I75000J0D01*
G01*
G37*
G36*
G01*
X76175000Y-92250000D02*
X76950000Y-92250000D01*
G75*
G02*
X77025000Y-92325000I0J-75000D01*
G01*
X77025000Y-92475000D01*
G75*
G02*
X76950000Y-92550000I-75000J0D01*
G01*
X76175000Y-92550000D01*
G75*
G02*
X76100000Y-92475000I0J75000D01*
G01*
X76100000Y-92325000D01*
G75*
G02*
X76175000Y-92250000I75000J0D01*
G01*
G37*
G36*
G01*
X76175000Y-92650000D02*
X76950000Y-92650000D01*
G75*
G02*
X77025000Y-92725000I0J-75000D01*
G01*
X77025000Y-92875000D01*
G75*
G02*
X76950000Y-92950000I-75000J0D01*
G01*
X76175000Y-92950000D01*
G75*
G02*
X76100000Y-92875000I0J75000D01*
G01*
X76100000Y-92725000D01*
G75*
G02*
X76175000Y-92650000I75000J0D01*
G01*
G37*
G36*
G01*
X76175000Y-93050000D02*
X76950000Y-93050000D01*
G75*
G02*
X77025000Y-93125000I0J-75000D01*
G01*
X77025000Y-93275000D01*
G75*
G02*
X76950000Y-93350000I-75000J0D01*
G01*
X76175000Y-93350000D01*
G75*
G02*
X76100000Y-93275000I0J75000D01*
G01*
X76100000Y-93125000D01*
G75*
G02*
X76175000Y-93050000I75000J0D01*
G01*
G37*
G36*
G01*
X76175000Y-93450000D02*
X76950000Y-93450000D01*
G75*
G02*
X77025000Y-93525000I0J-75000D01*
G01*
X77025000Y-93675000D01*
G75*
G02*
X76950000Y-93750000I-75000J0D01*
G01*
X76175000Y-93750000D01*
G75*
G02*
X76100000Y-93675000I0J75000D01*
G01*
X76100000Y-93525000D01*
G75*
G02*
X76175000Y-93450000I75000J0D01*
G01*
G37*
G36*
G01*
X76175000Y-93850000D02*
X76950000Y-93850000D01*
G75*
G02*
X77025000Y-93925000I0J-75000D01*
G01*
X77025000Y-94075000D01*
G75*
G02*
X76950000Y-94150000I-75000J0D01*
G01*
X76175000Y-94150000D01*
G75*
G02*
X76100000Y-94075000I0J75000D01*
G01*
X76100000Y-93925000D01*
G75*
G02*
X76175000Y-93850000I75000J0D01*
G01*
G37*
G36*
G01*
X76175000Y-94250000D02*
X76950000Y-94250000D01*
G75*
G02*
X77025000Y-94325000I0J-75000D01*
G01*
X77025000Y-94475000D01*
G75*
G02*
X76950000Y-94550000I-75000J0D01*
G01*
X76175000Y-94550000D01*
G75*
G02*
X76100000Y-94475000I0J75000D01*
G01*
X76100000Y-94325000D01*
G75*
G02*
X76175000Y-94250000I75000J0D01*
G01*
G37*
G36*
G01*
X76175000Y-94650000D02*
X76950000Y-94650000D01*
G75*
G02*
X77025000Y-94725000I0J-75000D01*
G01*
X77025000Y-94875000D01*
G75*
G02*
X76950000Y-94950000I-75000J0D01*
G01*
X76175000Y-94950000D01*
G75*
G02*
X76100000Y-94875000I0J75000D01*
G01*
X76100000Y-94725000D01*
G75*
G02*
X76175000Y-94650000I75000J0D01*
G01*
G37*
G36*
G01*
X76175000Y-95050000D02*
X76950000Y-95050000D01*
G75*
G02*
X77025000Y-95125000I0J-75000D01*
G01*
X77025000Y-95275000D01*
G75*
G02*
X76950000Y-95350000I-75000J0D01*
G01*
X76175000Y-95350000D01*
G75*
G02*
X76100000Y-95275000I0J75000D01*
G01*
X76100000Y-95125000D01*
G75*
G02*
X76175000Y-95050000I75000J0D01*
G01*
G37*
G36*
G01*
X76175000Y-95450000D02*
X76950000Y-95450000D01*
G75*
G02*
X77025000Y-95525000I0J-75000D01*
G01*
X77025000Y-95675000D01*
G75*
G02*
X76950000Y-95750000I-75000J0D01*
G01*
X76175000Y-95750000D01*
G75*
G02*
X76100000Y-95675000I0J75000D01*
G01*
X76100000Y-95525000D01*
G75*
G02*
X76175000Y-95450000I75000J0D01*
G01*
G37*
G36*
G01*
X76175000Y-95850000D02*
X76950000Y-95850000D01*
G75*
G02*
X77025000Y-95925000I0J-75000D01*
G01*
X77025000Y-96075000D01*
G75*
G02*
X76950000Y-96150000I-75000J0D01*
G01*
X76175000Y-96150000D01*
G75*
G02*
X76100000Y-96075000I0J75000D01*
G01*
X76100000Y-95925000D01*
G75*
G02*
X76175000Y-95850000I75000J0D01*
G01*
G37*
G36*
G01*
X76175000Y-96250000D02*
X76950000Y-96250000D01*
G75*
G02*
X77025000Y-96325000I0J-75000D01*
G01*
X77025000Y-96475000D01*
G75*
G02*
X76950000Y-96550000I-75000J0D01*
G01*
X76175000Y-96550000D01*
G75*
G02*
X76100000Y-96475000I0J75000D01*
G01*
X76100000Y-96325000D01*
G75*
G02*
X76175000Y-96250000I75000J0D01*
G01*
G37*
G36*
G01*
X77325000Y-96775000D02*
X77475000Y-96775000D01*
G75*
G02*
X77550000Y-96850000I0J-75000D01*
G01*
X77550000Y-97625000D01*
G75*
G02*
X77475000Y-97700000I-75000J0D01*
G01*
X77325000Y-97700000D01*
G75*
G02*
X77250000Y-97625000I0J75000D01*
G01*
X77250000Y-96850000D01*
G75*
G02*
X77325000Y-96775000I75000J0D01*
G01*
G37*
G36*
G01*
X77725000Y-96775000D02*
X77875000Y-96775000D01*
G75*
G02*
X77950000Y-96850000I0J-75000D01*
G01*
X77950000Y-97625000D01*
G75*
G02*
X77875000Y-97700000I-75000J0D01*
G01*
X77725000Y-97700000D01*
G75*
G02*
X77650000Y-97625000I0J75000D01*
G01*
X77650000Y-96850000D01*
G75*
G02*
X77725000Y-96775000I75000J0D01*
G01*
G37*
G36*
G01*
X78125000Y-96775000D02*
X78275000Y-96775000D01*
G75*
G02*
X78350000Y-96850000I0J-75000D01*
G01*
X78350000Y-97625000D01*
G75*
G02*
X78275000Y-97700000I-75000J0D01*
G01*
X78125000Y-97700000D01*
G75*
G02*
X78050000Y-97625000I0J75000D01*
G01*
X78050000Y-96850000D01*
G75*
G02*
X78125000Y-96775000I75000J0D01*
G01*
G37*
G36*
G01*
X78525000Y-96775000D02*
X78675000Y-96775000D01*
G75*
G02*
X78750000Y-96850000I0J-75000D01*
G01*
X78750000Y-97625000D01*
G75*
G02*
X78675000Y-97700000I-75000J0D01*
G01*
X78525000Y-97700000D01*
G75*
G02*
X78450000Y-97625000I0J75000D01*
G01*
X78450000Y-96850000D01*
G75*
G02*
X78525000Y-96775000I75000J0D01*
G01*
G37*
G36*
G01*
X78925000Y-96775000D02*
X79075000Y-96775000D01*
G75*
G02*
X79150000Y-96850000I0J-75000D01*
G01*
X79150000Y-97625000D01*
G75*
G02*
X79075000Y-97700000I-75000J0D01*
G01*
X78925000Y-97700000D01*
G75*
G02*
X78850000Y-97625000I0J75000D01*
G01*
X78850000Y-96850000D01*
G75*
G02*
X78925000Y-96775000I75000J0D01*
G01*
G37*
G36*
G01*
X79325000Y-96775000D02*
X79475000Y-96775000D01*
G75*
G02*
X79550000Y-96850000I0J-75000D01*
G01*
X79550000Y-97625000D01*
G75*
G02*
X79475000Y-97700000I-75000J0D01*
G01*
X79325000Y-97700000D01*
G75*
G02*
X79250000Y-97625000I0J75000D01*
G01*
X79250000Y-96850000D01*
G75*
G02*
X79325000Y-96775000I75000J0D01*
G01*
G37*
G36*
G01*
X79725000Y-96775000D02*
X79875000Y-96775000D01*
G75*
G02*
X79950000Y-96850000I0J-75000D01*
G01*
X79950000Y-97625000D01*
G75*
G02*
X79875000Y-97700000I-75000J0D01*
G01*
X79725000Y-97700000D01*
G75*
G02*
X79650000Y-97625000I0J75000D01*
G01*
X79650000Y-96850000D01*
G75*
G02*
X79725000Y-96775000I75000J0D01*
G01*
G37*
G36*
G01*
X80125000Y-96775000D02*
X80275000Y-96775000D01*
G75*
G02*
X80350000Y-96850000I0J-75000D01*
G01*
X80350000Y-97625000D01*
G75*
G02*
X80275000Y-97700000I-75000J0D01*
G01*
X80125000Y-97700000D01*
G75*
G02*
X80050000Y-97625000I0J75000D01*
G01*
X80050000Y-96850000D01*
G75*
G02*
X80125000Y-96775000I75000J0D01*
G01*
G37*
G36*
G01*
X80525000Y-96775000D02*
X80675000Y-96775000D01*
G75*
G02*
X80750000Y-96850000I0J-75000D01*
G01*
X80750000Y-97625000D01*
G75*
G02*
X80675000Y-97700000I-75000J0D01*
G01*
X80525000Y-97700000D01*
G75*
G02*
X80450000Y-97625000I0J75000D01*
G01*
X80450000Y-96850000D01*
G75*
G02*
X80525000Y-96775000I75000J0D01*
G01*
G37*
G36*
G01*
X80925000Y-96775000D02*
X81075000Y-96775000D01*
G75*
G02*
X81150000Y-96850000I0J-75000D01*
G01*
X81150000Y-97625000D01*
G75*
G02*
X81075000Y-97700000I-75000J0D01*
G01*
X80925000Y-97700000D01*
G75*
G02*
X80850000Y-97625000I0J75000D01*
G01*
X80850000Y-96850000D01*
G75*
G02*
X80925000Y-96775000I75000J0D01*
G01*
G37*
G36*
G01*
X81325000Y-96775000D02*
X81475000Y-96775000D01*
G75*
G02*
X81550000Y-96850000I0J-75000D01*
G01*
X81550000Y-97625000D01*
G75*
G02*
X81475000Y-97700000I-75000J0D01*
G01*
X81325000Y-97700000D01*
G75*
G02*
X81250000Y-97625000I0J75000D01*
G01*
X81250000Y-96850000D01*
G75*
G02*
X81325000Y-96775000I75000J0D01*
G01*
G37*
G36*
G01*
X81725000Y-96775000D02*
X81875000Y-96775000D01*
G75*
G02*
X81950000Y-96850000I0J-75000D01*
G01*
X81950000Y-97625000D01*
G75*
G02*
X81875000Y-97700000I-75000J0D01*
G01*
X81725000Y-97700000D01*
G75*
G02*
X81650000Y-97625000I0J75000D01*
G01*
X81650000Y-96850000D01*
G75*
G02*
X81725000Y-96775000I75000J0D01*
G01*
G37*
G36*
G01*
X82125000Y-96775000D02*
X82275000Y-96775000D01*
G75*
G02*
X82350000Y-96850000I0J-75000D01*
G01*
X82350000Y-97625000D01*
G75*
G02*
X82275000Y-97700000I-75000J0D01*
G01*
X82125000Y-97700000D01*
G75*
G02*
X82050000Y-97625000I0J75000D01*
G01*
X82050000Y-96850000D01*
G75*
G02*
X82125000Y-96775000I75000J0D01*
G01*
G37*
G36*
G01*
X82525000Y-96775000D02*
X82675000Y-96775000D01*
G75*
G02*
X82750000Y-96850000I0J-75000D01*
G01*
X82750000Y-97625000D01*
G75*
G02*
X82675000Y-97700000I-75000J0D01*
G01*
X82525000Y-97700000D01*
G75*
G02*
X82450000Y-97625000I0J75000D01*
G01*
X82450000Y-96850000D01*
G75*
G02*
X82525000Y-96775000I75000J0D01*
G01*
G37*
G36*
G01*
X82925000Y-96775000D02*
X83075000Y-96775000D01*
G75*
G02*
X83150000Y-96850000I0J-75000D01*
G01*
X83150000Y-97625000D01*
G75*
G02*
X83075000Y-97700000I-75000J0D01*
G01*
X82925000Y-97700000D01*
G75*
G02*
X82850000Y-97625000I0J75000D01*
G01*
X82850000Y-96850000D01*
G75*
G02*
X82925000Y-96775000I75000J0D01*
G01*
G37*
G36*
G01*
X83325000Y-96775000D02*
X83475000Y-96775000D01*
G75*
G02*
X83550000Y-96850000I0J-75000D01*
G01*
X83550000Y-97625000D01*
G75*
G02*
X83475000Y-97700000I-75000J0D01*
G01*
X83325000Y-97700000D01*
G75*
G02*
X83250000Y-97625000I0J75000D01*
G01*
X83250000Y-96850000D01*
G75*
G02*
X83325000Y-96775000I75000J0D01*
G01*
G37*
G36*
G01*
X83725000Y-96775000D02*
X83875000Y-96775000D01*
G75*
G02*
X83950000Y-96850000I0J-75000D01*
G01*
X83950000Y-97625000D01*
G75*
G02*
X83875000Y-97700000I-75000J0D01*
G01*
X83725000Y-97700000D01*
G75*
G02*
X83650000Y-97625000I0J75000D01*
G01*
X83650000Y-96850000D01*
G75*
G02*
X83725000Y-96775000I75000J0D01*
G01*
G37*
G36*
G01*
X84125000Y-96775000D02*
X84275000Y-96775000D01*
G75*
G02*
X84350000Y-96850000I0J-75000D01*
G01*
X84350000Y-97625000D01*
G75*
G02*
X84275000Y-97700000I-75000J0D01*
G01*
X84125000Y-97700000D01*
G75*
G02*
X84050000Y-97625000I0J75000D01*
G01*
X84050000Y-96850000D01*
G75*
G02*
X84125000Y-96775000I75000J0D01*
G01*
G37*
G36*
G01*
X84525000Y-96775000D02*
X84675000Y-96775000D01*
G75*
G02*
X84750000Y-96850000I0J-75000D01*
G01*
X84750000Y-97625000D01*
G75*
G02*
X84675000Y-97700000I-75000J0D01*
G01*
X84525000Y-97700000D01*
G75*
G02*
X84450000Y-97625000I0J75000D01*
G01*
X84450000Y-96850000D01*
G75*
G02*
X84525000Y-96775000I75000J0D01*
G01*
G37*
G36*
G01*
X85050000Y-96250000D02*
X85825000Y-96250000D01*
G75*
G02*
X85900000Y-96325000I0J-75000D01*
G01*
X85900000Y-96475000D01*
G75*
G02*
X85825000Y-96550000I-75000J0D01*
G01*
X85050000Y-96550000D01*
G75*
G02*
X84975000Y-96475000I0J75000D01*
G01*
X84975000Y-96325000D01*
G75*
G02*
X85050000Y-96250000I75000J0D01*
G01*
G37*
G36*
G01*
X85050000Y-95850000D02*
X85825000Y-95850000D01*
G75*
G02*
X85900000Y-95925000I0J-75000D01*
G01*
X85900000Y-96075000D01*
G75*
G02*
X85825000Y-96150000I-75000J0D01*
G01*
X85050000Y-96150000D01*
G75*
G02*
X84975000Y-96075000I0J75000D01*
G01*
X84975000Y-95925000D01*
G75*
G02*
X85050000Y-95850000I75000J0D01*
G01*
G37*
G36*
G01*
X85050000Y-95450000D02*
X85825000Y-95450000D01*
G75*
G02*
X85900000Y-95525000I0J-75000D01*
G01*
X85900000Y-95675000D01*
G75*
G02*
X85825000Y-95750000I-75000J0D01*
G01*
X85050000Y-95750000D01*
G75*
G02*
X84975000Y-95675000I0J75000D01*
G01*
X84975000Y-95525000D01*
G75*
G02*
X85050000Y-95450000I75000J0D01*
G01*
G37*
G36*
G01*
X85050000Y-95050000D02*
X85825000Y-95050000D01*
G75*
G02*
X85900000Y-95125000I0J-75000D01*
G01*
X85900000Y-95275000D01*
G75*
G02*
X85825000Y-95350000I-75000J0D01*
G01*
X85050000Y-95350000D01*
G75*
G02*
X84975000Y-95275000I0J75000D01*
G01*
X84975000Y-95125000D01*
G75*
G02*
X85050000Y-95050000I75000J0D01*
G01*
G37*
G36*
G01*
X85050000Y-94650000D02*
X85825000Y-94650000D01*
G75*
G02*
X85900000Y-94725000I0J-75000D01*
G01*
X85900000Y-94875000D01*
G75*
G02*
X85825000Y-94950000I-75000J0D01*
G01*
X85050000Y-94950000D01*
G75*
G02*
X84975000Y-94875000I0J75000D01*
G01*
X84975000Y-94725000D01*
G75*
G02*
X85050000Y-94650000I75000J0D01*
G01*
G37*
G36*
G01*
X85050000Y-94250000D02*
X85825000Y-94250000D01*
G75*
G02*
X85900000Y-94325000I0J-75000D01*
G01*
X85900000Y-94475000D01*
G75*
G02*
X85825000Y-94550000I-75000J0D01*
G01*
X85050000Y-94550000D01*
G75*
G02*
X84975000Y-94475000I0J75000D01*
G01*
X84975000Y-94325000D01*
G75*
G02*
X85050000Y-94250000I75000J0D01*
G01*
G37*
G36*
G01*
X85050000Y-93850000D02*
X85825000Y-93850000D01*
G75*
G02*
X85900000Y-93925000I0J-75000D01*
G01*
X85900000Y-94075000D01*
G75*
G02*
X85825000Y-94150000I-75000J0D01*
G01*
X85050000Y-94150000D01*
G75*
G02*
X84975000Y-94075000I0J75000D01*
G01*
X84975000Y-93925000D01*
G75*
G02*
X85050000Y-93850000I75000J0D01*
G01*
G37*
G36*
G01*
X85050000Y-93450000D02*
X85825000Y-93450000D01*
G75*
G02*
X85900000Y-93525000I0J-75000D01*
G01*
X85900000Y-93675000D01*
G75*
G02*
X85825000Y-93750000I-75000J0D01*
G01*
X85050000Y-93750000D01*
G75*
G02*
X84975000Y-93675000I0J75000D01*
G01*
X84975000Y-93525000D01*
G75*
G02*
X85050000Y-93450000I75000J0D01*
G01*
G37*
G36*
G01*
X85050000Y-93050000D02*
X85825000Y-93050000D01*
G75*
G02*
X85900000Y-93125000I0J-75000D01*
G01*
X85900000Y-93275000D01*
G75*
G02*
X85825000Y-93350000I-75000J0D01*
G01*
X85050000Y-93350000D01*
G75*
G02*
X84975000Y-93275000I0J75000D01*
G01*
X84975000Y-93125000D01*
G75*
G02*
X85050000Y-93050000I75000J0D01*
G01*
G37*
G36*
G01*
X85050000Y-92650000D02*
X85825000Y-92650000D01*
G75*
G02*
X85900000Y-92725000I0J-75000D01*
G01*
X85900000Y-92875000D01*
G75*
G02*
X85825000Y-92950000I-75000J0D01*
G01*
X85050000Y-92950000D01*
G75*
G02*
X84975000Y-92875000I0J75000D01*
G01*
X84975000Y-92725000D01*
G75*
G02*
X85050000Y-92650000I75000J0D01*
G01*
G37*
G36*
G01*
X85050000Y-92250000D02*
X85825000Y-92250000D01*
G75*
G02*
X85900000Y-92325000I0J-75000D01*
G01*
X85900000Y-92475000D01*
G75*
G02*
X85825000Y-92550000I-75000J0D01*
G01*
X85050000Y-92550000D01*
G75*
G02*
X84975000Y-92475000I0J75000D01*
G01*
X84975000Y-92325000D01*
G75*
G02*
X85050000Y-92250000I75000J0D01*
G01*
G37*
G36*
G01*
X85050000Y-91850000D02*
X85825000Y-91850000D01*
G75*
G02*
X85900000Y-91925000I0J-75000D01*
G01*
X85900000Y-92075000D01*
G75*
G02*
X85825000Y-92150000I-75000J0D01*
G01*
X85050000Y-92150000D01*
G75*
G02*
X84975000Y-92075000I0J75000D01*
G01*
X84975000Y-91925000D01*
G75*
G02*
X85050000Y-91850000I75000J0D01*
G01*
G37*
G36*
G01*
X85050000Y-91450000D02*
X85825000Y-91450000D01*
G75*
G02*
X85900000Y-91525000I0J-75000D01*
G01*
X85900000Y-91675000D01*
G75*
G02*
X85825000Y-91750000I-75000J0D01*
G01*
X85050000Y-91750000D01*
G75*
G02*
X84975000Y-91675000I0J75000D01*
G01*
X84975000Y-91525000D01*
G75*
G02*
X85050000Y-91450000I75000J0D01*
G01*
G37*
G36*
G01*
X85050000Y-91050000D02*
X85825000Y-91050000D01*
G75*
G02*
X85900000Y-91125000I0J-75000D01*
G01*
X85900000Y-91275000D01*
G75*
G02*
X85825000Y-91350000I-75000J0D01*
G01*
X85050000Y-91350000D01*
G75*
G02*
X84975000Y-91275000I0J75000D01*
G01*
X84975000Y-91125000D01*
G75*
G02*
X85050000Y-91050000I75000J0D01*
G01*
G37*
G36*
G01*
X85050000Y-90650000D02*
X85825000Y-90650000D01*
G75*
G02*
X85900000Y-90725000I0J-75000D01*
G01*
X85900000Y-90875000D01*
G75*
G02*
X85825000Y-90950000I-75000J0D01*
G01*
X85050000Y-90950000D01*
G75*
G02*
X84975000Y-90875000I0J75000D01*
G01*
X84975000Y-90725000D01*
G75*
G02*
X85050000Y-90650000I75000J0D01*
G01*
G37*
G36*
G01*
X85050000Y-90250000D02*
X85825000Y-90250000D01*
G75*
G02*
X85900000Y-90325000I0J-75000D01*
G01*
X85900000Y-90475000D01*
G75*
G02*
X85825000Y-90550000I-75000J0D01*
G01*
X85050000Y-90550000D01*
G75*
G02*
X84975000Y-90475000I0J75000D01*
G01*
X84975000Y-90325000D01*
G75*
G02*
X85050000Y-90250000I75000J0D01*
G01*
G37*
G36*
G01*
X85050000Y-89850000D02*
X85825000Y-89850000D01*
G75*
G02*
X85900000Y-89925000I0J-75000D01*
G01*
X85900000Y-90075000D01*
G75*
G02*
X85825000Y-90150000I-75000J0D01*
G01*
X85050000Y-90150000D01*
G75*
G02*
X84975000Y-90075000I0J75000D01*
G01*
X84975000Y-89925000D01*
G75*
G02*
X85050000Y-89850000I75000J0D01*
G01*
G37*
G36*
G01*
X85050000Y-89450000D02*
X85825000Y-89450000D01*
G75*
G02*
X85900000Y-89525000I0J-75000D01*
G01*
X85900000Y-89675000D01*
G75*
G02*
X85825000Y-89750000I-75000J0D01*
G01*
X85050000Y-89750000D01*
G75*
G02*
X84975000Y-89675000I0J75000D01*
G01*
X84975000Y-89525000D01*
G75*
G02*
X85050000Y-89450000I75000J0D01*
G01*
G37*
G36*
G01*
X85050000Y-89050000D02*
X85825000Y-89050000D01*
G75*
G02*
X85900000Y-89125000I0J-75000D01*
G01*
X85900000Y-89275000D01*
G75*
G02*
X85825000Y-89350000I-75000J0D01*
G01*
X85050000Y-89350000D01*
G75*
G02*
X84975000Y-89275000I0J75000D01*
G01*
X84975000Y-89125000D01*
G75*
G02*
X85050000Y-89050000I75000J0D01*
G01*
G37*
G36*
G01*
X84525000Y-87900000D02*
X84675000Y-87900000D01*
G75*
G02*
X84750000Y-87975000I0J-75000D01*
G01*
X84750000Y-88750000D01*
G75*
G02*
X84675000Y-88825000I-75000J0D01*
G01*
X84525000Y-88825000D01*
G75*
G02*
X84450000Y-88750000I0J75000D01*
G01*
X84450000Y-87975000D01*
G75*
G02*
X84525000Y-87900000I75000J0D01*
G01*
G37*
G36*
G01*
X84125000Y-87900000D02*
X84275000Y-87900000D01*
G75*
G02*
X84350000Y-87975000I0J-75000D01*
G01*
X84350000Y-88750000D01*
G75*
G02*
X84275000Y-88825000I-75000J0D01*
G01*
X84125000Y-88825000D01*
G75*
G02*
X84050000Y-88750000I0J75000D01*
G01*
X84050000Y-87975000D01*
G75*
G02*
X84125000Y-87900000I75000J0D01*
G01*
G37*
G36*
G01*
X83725000Y-87900000D02*
X83875000Y-87900000D01*
G75*
G02*
X83950000Y-87975000I0J-75000D01*
G01*
X83950000Y-88750000D01*
G75*
G02*
X83875000Y-88825000I-75000J0D01*
G01*
X83725000Y-88825000D01*
G75*
G02*
X83650000Y-88750000I0J75000D01*
G01*
X83650000Y-87975000D01*
G75*
G02*
X83725000Y-87900000I75000J0D01*
G01*
G37*
G36*
G01*
X83325000Y-87900000D02*
X83475000Y-87900000D01*
G75*
G02*
X83550000Y-87975000I0J-75000D01*
G01*
X83550000Y-88750000D01*
G75*
G02*
X83475000Y-88825000I-75000J0D01*
G01*
X83325000Y-88825000D01*
G75*
G02*
X83250000Y-88750000I0J75000D01*
G01*
X83250000Y-87975000D01*
G75*
G02*
X83325000Y-87900000I75000J0D01*
G01*
G37*
G36*
G01*
X82925000Y-87900000D02*
X83075000Y-87900000D01*
G75*
G02*
X83150000Y-87975000I0J-75000D01*
G01*
X83150000Y-88750000D01*
G75*
G02*
X83075000Y-88825000I-75000J0D01*
G01*
X82925000Y-88825000D01*
G75*
G02*
X82850000Y-88750000I0J75000D01*
G01*
X82850000Y-87975000D01*
G75*
G02*
X82925000Y-87900000I75000J0D01*
G01*
G37*
G36*
G01*
X82525000Y-87900000D02*
X82675000Y-87900000D01*
G75*
G02*
X82750000Y-87975000I0J-75000D01*
G01*
X82750000Y-88750000D01*
G75*
G02*
X82675000Y-88825000I-75000J0D01*
G01*
X82525000Y-88825000D01*
G75*
G02*
X82450000Y-88750000I0J75000D01*
G01*
X82450000Y-87975000D01*
G75*
G02*
X82525000Y-87900000I75000J0D01*
G01*
G37*
G36*
G01*
X82125000Y-87900000D02*
X82275000Y-87900000D01*
G75*
G02*
X82350000Y-87975000I0J-75000D01*
G01*
X82350000Y-88750000D01*
G75*
G02*
X82275000Y-88825000I-75000J0D01*
G01*
X82125000Y-88825000D01*
G75*
G02*
X82050000Y-88750000I0J75000D01*
G01*
X82050000Y-87975000D01*
G75*
G02*
X82125000Y-87900000I75000J0D01*
G01*
G37*
G36*
G01*
X81725000Y-87900000D02*
X81875000Y-87900000D01*
G75*
G02*
X81950000Y-87975000I0J-75000D01*
G01*
X81950000Y-88750000D01*
G75*
G02*
X81875000Y-88825000I-75000J0D01*
G01*
X81725000Y-88825000D01*
G75*
G02*
X81650000Y-88750000I0J75000D01*
G01*
X81650000Y-87975000D01*
G75*
G02*
X81725000Y-87900000I75000J0D01*
G01*
G37*
G36*
G01*
X81325000Y-87900000D02*
X81475000Y-87900000D01*
G75*
G02*
X81550000Y-87975000I0J-75000D01*
G01*
X81550000Y-88750000D01*
G75*
G02*
X81475000Y-88825000I-75000J0D01*
G01*
X81325000Y-88825000D01*
G75*
G02*
X81250000Y-88750000I0J75000D01*
G01*
X81250000Y-87975000D01*
G75*
G02*
X81325000Y-87900000I75000J0D01*
G01*
G37*
G36*
G01*
X80925000Y-87900000D02*
X81075000Y-87900000D01*
G75*
G02*
X81150000Y-87975000I0J-75000D01*
G01*
X81150000Y-88750000D01*
G75*
G02*
X81075000Y-88825000I-75000J0D01*
G01*
X80925000Y-88825000D01*
G75*
G02*
X80850000Y-88750000I0J75000D01*
G01*
X80850000Y-87975000D01*
G75*
G02*
X80925000Y-87900000I75000J0D01*
G01*
G37*
G36*
G01*
X80525000Y-87900000D02*
X80675000Y-87900000D01*
G75*
G02*
X80750000Y-87975000I0J-75000D01*
G01*
X80750000Y-88750000D01*
G75*
G02*
X80675000Y-88825000I-75000J0D01*
G01*
X80525000Y-88825000D01*
G75*
G02*
X80450000Y-88750000I0J75000D01*
G01*
X80450000Y-87975000D01*
G75*
G02*
X80525000Y-87900000I75000J0D01*
G01*
G37*
G36*
G01*
X80125000Y-87900000D02*
X80275000Y-87900000D01*
G75*
G02*
X80350000Y-87975000I0J-75000D01*
G01*
X80350000Y-88750000D01*
G75*
G02*
X80275000Y-88825000I-75000J0D01*
G01*
X80125000Y-88825000D01*
G75*
G02*
X80050000Y-88750000I0J75000D01*
G01*
X80050000Y-87975000D01*
G75*
G02*
X80125000Y-87900000I75000J0D01*
G01*
G37*
G36*
G01*
X79725000Y-87900000D02*
X79875000Y-87900000D01*
G75*
G02*
X79950000Y-87975000I0J-75000D01*
G01*
X79950000Y-88750000D01*
G75*
G02*
X79875000Y-88825000I-75000J0D01*
G01*
X79725000Y-88825000D01*
G75*
G02*
X79650000Y-88750000I0J75000D01*
G01*
X79650000Y-87975000D01*
G75*
G02*
X79725000Y-87900000I75000J0D01*
G01*
G37*
G36*
G01*
X79325000Y-87900000D02*
X79475000Y-87900000D01*
G75*
G02*
X79550000Y-87975000I0J-75000D01*
G01*
X79550000Y-88750000D01*
G75*
G02*
X79475000Y-88825000I-75000J0D01*
G01*
X79325000Y-88825000D01*
G75*
G02*
X79250000Y-88750000I0J75000D01*
G01*
X79250000Y-87975000D01*
G75*
G02*
X79325000Y-87900000I75000J0D01*
G01*
G37*
G36*
G01*
X78925000Y-87900000D02*
X79075000Y-87900000D01*
G75*
G02*
X79150000Y-87975000I0J-75000D01*
G01*
X79150000Y-88750000D01*
G75*
G02*
X79075000Y-88825000I-75000J0D01*
G01*
X78925000Y-88825000D01*
G75*
G02*
X78850000Y-88750000I0J75000D01*
G01*
X78850000Y-87975000D01*
G75*
G02*
X78925000Y-87900000I75000J0D01*
G01*
G37*
G36*
G01*
X78525000Y-87900000D02*
X78675000Y-87900000D01*
G75*
G02*
X78750000Y-87975000I0J-75000D01*
G01*
X78750000Y-88750000D01*
G75*
G02*
X78675000Y-88825000I-75000J0D01*
G01*
X78525000Y-88825000D01*
G75*
G02*
X78450000Y-88750000I0J75000D01*
G01*
X78450000Y-87975000D01*
G75*
G02*
X78525000Y-87900000I75000J0D01*
G01*
G37*
G36*
G01*
X78125000Y-87900000D02*
X78275000Y-87900000D01*
G75*
G02*
X78350000Y-87975000I0J-75000D01*
G01*
X78350000Y-88750000D01*
G75*
G02*
X78275000Y-88825000I-75000J0D01*
G01*
X78125000Y-88825000D01*
G75*
G02*
X78050000Y-88750000I0J75000D01*
G01*
X78050000Y-87975000D01*
G75*
G02*
X78125000Y-87900000I75000J0D01*
G01*
G37*
G36*
G01*
X77725000Y-87900000D02*
X77875000Y-87900000D01*
G75*
G02*
X77950000Y-87975000I0J-75000D01*
G01*
X77950000Y-88750000D01*
G75*
G02*
X77875000Y-88825000I-75000J0D01*
G01*
X77725000Y-88825000D01*
G75*
G02*
X77650000Y-88750000I0J75000D01*
G01*
X77650000Y-87975000D01*
G75*
G02*
X77725000Y-87900000I75000J0D01*
G01*
G37*
G36*
G01*
X77325000Y-87900000D02*
X77475000Y-87900000D01*
G75*
G02*
X77550000Y-87975000I0J-75000D01*
G01*
X77550000Y-88750000D01*
G75*
G02*
X77475000Y-88825000I-75000J0D01*
G01*
X77325000Y-88825000D01*
G75*
G02*
X77250000Y-88750000I0J75000D01*
G01*
X77250000Y-87975000D01*
G75*
G02*
X77325000Y-87900000I75000J0D01*
G01*
G37*
%TD*%
D24*
%TO.C,U1*%
X96200000Y-106650000D03*
X100800000Y-106650000D03*
X98500000Y-106650000D03*
D25*
X98500000Y-112950000D03*
%TD*%
D26*
%TO.C,RN1*%
X81500000Y-98900000D03*
X82500000Y-98900000D03*
X82000000Y-98900000D03*
X83000000Y-98900000D03*
X83500000Y-98900000D03*
X84000000Y-98900000D03*
X81500000Y-100700000D03*
X82000000Y-100700000D03*
X82500000Y-100700000D03*
X83000000Y-100700000D03*
X83500000Y-100700000D03*
X84000000Y-100700000D03*
X81000000Y-98900000D03*
X81000000Y-100700000D03*
X84500000Y-98900000D03*
X84500000Y-100700000D03*
%TD*%
%TO.C,D2*%
G36*
G01*
X98475000Y-103568750D02*
X98475000Y-104531250D01*
G75*
G02*
X98206250Y-104800000I-268750J0D01*
G01*
X97668750Y-104800000D01*
G75*
G02*
X97400000Y-104531250I0J268750D01*
G01*
X97400000Y-103568750D01*
G75*
G02*
X97668750Y-103300000I268750J0D01*
G01*
X98206250Y-103300000D01*
G75*
G02*
X98475000Y-103568750I0J-268750D01*
G01*
G37*
G36*
G01*
X96600000Y-103568750D02*
X96600000Y-104531250D01*
G75*
G02*
X96331250Y-104800000I-268750J0D01*
G01*
X95793750Y-104800000D01*
G75*
G02*
X95525000Y-104531250I0J268750D01*
G01*
X95525000Y-103568750D01*
G75*
G02*
X95793750Y-103300000I268750J0D01*
G01*
X96331250Y-103300000D01*
G75*
G02*
X96600000Y-103568750I0J-268750D01*
G01*
G37*
%TD*%
%TO.C,D1*%
G36*
G01*
X82150000Y-113281250D02*
X82150000Y-112318750D01*
G75*
G02*
X82418750Y-112050000I268750J0D01*
G01*
X82956250Y-112050000D01*
G75*
G02*
X83225000Y-112318750I0J-268750D01*
G01*
X83225000Y-113281250D01*
G75*
G02*
X82956250Y-113550000I-268750J0D01*
G01*
X82418750Y-113550000D01*
G75*
G02*
X82150000Y-113281250I0J268750D01*
G01*
G37*
G36*
G01*
X80275000Y-113281250D02*
X80275000Y-112318750D01*
G75*
G02*
X80543750Y-112050000I268750J0D01*
G01*
X81081250Y-112050000D01*
G75*
G02*
X81350000Y-112318750I0J-268750D01*
G01*
X81350000Y-113281250D01*
G75*
G02*
X81081250Y-113550000I-268750J0D01*
G01*
X80543750Y-113550000D01*
G75*
G02*
X80275000Y-113281250I0J268750D01*
G01*
G37*
%TD*%
%TO.C,C23*%
G36*
G01*
X89140000Y-96497500D02*
X89140000Y-96102500D01*
G75*
G02*
X89312500Y-95930000I172500J0D01*
G01*
X89657500Y-95930000D01*
G75*
G02*
X89830000Y-96102500I0J-172500D01*
G01*
X89830000Y-96497500D01*
G75*
G02*
X89657500Y-96670000I-172500J0D01*
G01*
X89312500Y-96670000D01*
G75*
G02*
X89140000Y-96497500I0J172500D01*
G01*
G37*
G36*
G01*
X88170000Y-96497500D02*
X88170000Y-96102500D01*
G75*
G02*
X88342500Y-95930000I172500J0D01*
G01*
X88687500Y-95930000D01*
G75*
G02*
X88860000Y-96102500I0J-172500D01*
G01*
X88860000Y-96497500D01*
G75*
G02*
X88687500Y-96670000I-172500J0D01*
G01*
X88342500Y-96670000D01*
G75*
G02*
X88170000Y-96497500I0J172500D01*
G01*
G37*
%TD*%
%TO.C,C22*%
G36*
G01*
X88997500Y-98860000D02*
X88602500Y-98860000D01*
G75*
G02*
X88430000Y-98687500I0J172500D01*
G01*
X88430000Y-98342500D01*
G75*
G02*
X88602500Y-98170000I172500J0D01*
G01*
X88997500Y-98170000D01*
G75*
G02*
X89170000Y-98342500I0J-172500D01*
G01*
X89170000Y-98687500D01*
G75*
G02*
X88997500Y-98860000I-172500J0D01*
G01*
G37*
G36*
G01*
X88997500Y-99830000D02*
X88602500Y-99830000D01*
G75*
G02*
X88430000Y-99657500I0J172500D01*
G01*
X88430000Y-99312500D01*
G75*
G02*
X88602500Y-99140000I172500J0D01*
G01*
X88997500Y-99140000D01*
G75*
G02*
X89170000Y-99312500I0J-172500D01*
G01*
X89170000Y-99657500D01*
G75*
G02*
X88997500Y-99830000I-172500J0D01*
G01*
G37*
%TD*%
%TO.C,C18*%
G36*
G01*
X100600000Y-103321738D02*
X100600000Y-104278262D01*
G75*
G02*
X100328262Y-104550000I-271738J0D01*
G01*
X99621738Y-104550000D01*
G75*
G02*
X99350000Y-104278262I0J271738D01*
G01*
X99350000Y-103321738D01*
G75*
G02*
X99621738Y-103050000I271738J0D01*
G01*
X100328262Y-103050000D01*
G75*
G02*
X100600000Y-103321738I0J-271738D01*
G01*
G37*
G36*
G01*
X102650000Y-103321738D02*
X102650000Y-104278262D01*
G75*
G02*
X102378262Y-104550000I-271738J0D01*
G01*
X101671738Y-104550000D01*
G75*
G02*
X101400000Y-104278262I0J271738D01*
G01*
X101400000Y-103321738D01*
G75*
G02*
X101671738Y-103050000I271738J0D01*
G01*
X102378262Y-103050000D01*
G75*
G02*
X102650000Y-103321738I0J-271738D01*
G01*
G37*
%TD*%
%TO.C,C14*%
G36*
G01*
X91521738Y-102950000D02*
X92478262Y-102950000D01*
G75*
G02*
X92750000Y-103221738I0J-271738D01*
G01*
X92750000Y-103928262D01*
G75*
G02*
X92478262Y-104200000I-271738J0D01*
G01*
X91521738Y-104200000D01*
G75*
G02*
X91250000Y-103928262I0J271738D01*
G01*
X91250000Y-103221738D01*
G75*
G02*
X91521738Y-102950000I271738J0D01*
G01*
G37*
G36*
G01*
X91521738Y-100900000D02*
X92478262Y-100900000D01*
G75*
G02*
X92750000Y-101171738I0J-271738D01*
G01*
X92750000Y-101878262D01*
G75*
G02*
X92478262Y-102150000I-271738J0D01*
G01*
X91521738Y-102150000D01*
G75*
G02*
X91250000Y-101878262I0J271738D01*
G01*
X91250000Y-101171738D01*
G75*
G02*
X91521738Y-100900000I271738J0D01*
G01*
G37*
%TD*%
%TO.C,C13*%
G36*
G01*
X89060000Y-102602500D02*
X89060000Y-102997500D01*
G75*
G02*
X88887500Y-103170000I-172500J0D01*
G01*
X88542500Y-103170000D01*
G75*
G02*
X88370000Y-102997500I0J172500D01*
G01*
X88370000Y-102602500D01*
G75*
G02*
X88542500Y-102430000I172500J0D01*
G01*
X88887500Y-102430000D01*
G75*
G02*
X89060000Y-102602500I0J-172500D01*
G01*
G37*
G36*
G01*
X90030000Y-102602500D02*
X90030000Y-102997500D01*
G75*
G02*
X89857500Y-103170000I-172500J0D01*
G01*
X89512500Y-103170000D01*
G75*
G02*
X89340000Y-102997500I0J172500D01*
G01*
X89340000Y-102602500D01*
G75*
G02*
X89512500Y-102430000I172500J0D01*
G01*
X89857500Y-102430000D01*
G75*
G02*
X90030000Y-102602500I0J-172500D01*
G01*
G37*
%TD*%
%TO.C,C12*%
G36*
G01*
X94478262Y-104200000D02*
X93521738Y-104200000D01*
G75*
G02*
X93250000Y-103928262I0J271738D01*
G01*
X93250000Y-103221738D01*
G75*
G02*
X93521738Y-102950000I271738J0D01*
G01*
X94478262Y-102950000D01*
G75*
G02*
X94750000Y-103221738I0J-271738D01*
G01*
X94750000Y-103928262D01*
G75*
G02*
X94478262Y-104200000I-271738J0D01*
G01*
G37*
G36*
G01*
X94478262Y-102150000D02*
X93521738Y-102150000D01*
G75*
G02*
X93250000Y-101878262I0J271738D01*
G01*
X93250000Y-101171738D01*
G75*
G02*
X93521738Y-100900000I271738J0D01*
G01*
X94478262Y-100900000D01*
G75*
G02*
X94750000Y-101171738I0J-271738D01*
G01*
X94750000Y-101878262D01*
G75*
G02*
X94478262Y-102150000I-271738J0D01*
G01*
G37*
%TD*%
%TO.C,C11*%
G36*
G01*
X87197500Y-102260000D02*
X86802500Y-102260000D01*
G75*
G02*
X86630000Y-102087500I0J172500D01*
G01*
X86630000Y-101742500D01*
G75*
G02*
X86802500Y-101570000I172500J0D01*
G01*
X87197500Y-101570000D01*
G75*
G02*
X87370000Y-101742500I0J-172500D01*
G01*
X87370000Y-102087500D01*
G75*
G02*
X87197500Y-102260000I-172500J0D01*
G01*
G37*
G36*
G01*
X87197500Y-103230000D02*
X86802500Y-103230000D01*
G75*
G02*
X86630000Y-103057500I0J172500D01*
G01*
X86630000Y-102712500D01*
G75*
G02*
X86802500Y-102540000I172500J0D01*
G01*
X87197500Y-102540000D01*
G75*
G02*
X87370000Y-102712500I0J-172500D01*
G01*
X87370000Y-103057500D01*
G75*
G02*
X87197500Y-103230000I-172500J0D01*
G01*
G37*
%TD*%
%TO.C,C10*%
G36*
G01*
X94478262Y-95900000D02*
X93521738Y-95900000D01*
G75*
G02*
X93250000Y-95628262I0J271738D01*
G01*
X93250000Y-94921738D01*
G75*
G02*
X93521738Y-94650000I271738J0D01*
G01*
X94478262Y-94650000D01*
G75*
G02*
X94750000Y-94921738I0J-271738D01*
G01*
X94750000Y-95628262D01*
G75*
G02*
X94478262Y-95900000I-271738J0D01*
G01*
G37*
G36*
G01*
X94478262Y-97950000D02*
X93521738Y-97950000D01*
G75*
G02*
X93250000Y-97678262I0J271738D01*
G01*
X93250000Y-96971738D01*
G75*
G02*
X93521738Y-96700000I271738J0D01*
G01*
X94478262Y-96700000D01*
G75*
G02*
X94750000Y-96971738I0J-271738D01*
G01*
X94750000Y-97678262D01*
G75*
G02*
X94478262Y-97950000I-271738J0D01*
G01*
G37*
%TD*%
%TO.C,C9*%
G36*
G01*
X91197500Y-98060000D02*
X90802500Y-98060000D01*
G75*
G02*
X90630000Y-97887500I0J172500D01*
G01*
X90630000Y-97542500D01*
G75*
G02*
X90802500Y-97370000I172500J0D01*
G01*
X91197500Y-97370000D01*
G75*
G02*
X91370000Y-97542500I0J-172500D01*
G01*
X91370000Y-97887500D01*
G75*
G02*
X91197500Y-98060000I-172500J0D01*
G01*
G37*
G36*
G01*
X91197500Y-99030000D02*
X90802500Y-99030000D01*
G75*
G02*
X90630000Y-98857500I0J172500D01*
G01*
X90630000Y-98512500D01*
G75*
G02*
X90802500Y-98340000I172500J0D01*
G01*
X91197500Y-98340000D01*
G75*
G02*
X91370000Y-98512500I0J-172500D01*
G01*
X91370000Y-98857500D01*
G75*
G02*
X91197500Y-99030000I-172500J0D01*
G01*
G37*
%TD*%
%TO.C,C2*%
G36*
G01*
X89302500Y-91440000D02*
X89697500Y-91440000D01*
G75*
G02*
X89870000Y-91612500I0J-172500D01*
G01*
X89870000Y-91957500D01*
G75*
G02*
X89697500Y-92130000I-172500J0D01*
G01*
X89302500Y-92130000D01*
G75*
G02*
X89130000Y-91957500I0J172500D01*
G01*
X89130000Y-91612500D01*
G75*
G02*
X89302500Y-91440000I172500J0D01*
G01*
G37*
G36*
G01*
X89302500Y-90470000D02*
X89697500Y-90470000D01*
G75*
G02*
X89870000Y-90642500I0J-172500D01*
G01*
X89870000Y-90987500D01*
G75*
G02*
X89697500Y-91160000I-172500J0D01*
G01*
X89302500Y-91160000D01*
G75*
G02*
X89130000Y-90987500I0J172500D01*
G01*
X89130000Y-90642500D01*
G75*
G02*
X89302500Y-90470000I172500J0D01*
G01*
G37*
%TD*%
%TO.C,C1*%
G36*
G01*
X89697500Y-88160000D02*
X89302500Y-88160000D01*
G75*
G02*
X89130000Y-87987500I0J172500D01*
G01*
X89130000Y-87642500D01*
G75*
G02*
X89302500Y-87470000I172500J0D01*
G01*
X89697500Y-87470000D01*
G75*
G02*
X89870000Y-87642500I0J-172500D01*
G01*
X89870000Y-87987500D01*
G75*
G02*
X89697500Y-88160000I-172500J0D01*
G01*
G37*
G36*
G01*
X89697500Y-89130000D02*
X89302500Y-89130000D01*
G75*
G02*
X89130000Y-88957500I0J172500D01*
G01*
X89130000Y-88612500D01*
G75*
G02*
X89302500Y-88440000I172500J0D01*
G01*
X89697500Y-88440000D01*
G75*
G02*
X89870000Y-88612500I0J-172500D01*
G01*
X89870000Y-88957500D01*
G75*
G02*
X89697500Y-89130000I-172500J0D01*
G01*
G37*
%TD*%
M02*
