M48
; DRILL file {KiCad (5.1.6)-1} date 01/25/21 15:05:58
; FORMAT={-:-/ absolute / inch / decimal}
; #@! TF.CreationDate,2021-01-25T15:05:58+00:00
; #@! TF.GenerationSoftware,Kicad,Pcbnew,(5.1.6)-1
; #@! TF.FileFunction,Plated,1,4,PTH
FMAT,2
INCH
T1C0.0079
T2C0.0157
T3C0.0197
T4C0.0236
T5C0.0256
T6C0.0866
%
G90
G05
T1
X2.9823Y-3.624
X3.0684Y-3.4788
X3.0945Y-3.5118
X3.1102Y-4.0
X3.126Y-3.4803
X3.1299Y-3.5157
X3.1299Y-3.5945
X3.1299Y-3.7126
X3.1496Y-3.937
X3.1575Y-3.4567
X3.1693Y-3.5157
X3.189Y-3.6535
X3.189Y-4.0079
X3.2047Y-3.4626
X3.2087Y-3.5157
X3.2087Y-4.0079
X3.2283Y-4.0079
X3.248Y-3.5157
X3.248Y-3.5945
X3.248Y-4.0079
X3.2677Y-4.0079
X3.2677Y-4.4331
X3.2874Y-3.5157
X3.2874Y-4.0079
X3.3071Y-3.7421
X3.3071Y-4.0079
X3.315Y-3.5354
X3.3228Y-3.5906
X3.3228Y-3.6535
X3.3241Y-3.5144
X3.3268Y-4.0079
X3.3307Y-3.7795
X3.3543Y-3.8976
X3.3937Y-3.6063
X3.4142Y-3.9035
X3.4142Y-3.9555
X3.4142Y-3.9815
X3.4173Y-3.685
X3.4331Y-4.0551
X3.4331Y-4.1654
X3.4366Y-3.8776
X3.4366Y-3.9295
X3.4366Y-3.9815
X3.4591Y-3.9035
X3.4591Y-3.9815
X3.4591Y-4.0075
X3.4724Y-3.6063
X3.4803Y-3.7008
X3.4815Y-3.9815
X3.4815Y-4.0075
X3.4963Y-3.9477
X3.5039Y-4.225
X3.5039Y-3.9815
X3.5039Y-4.0075
X3.5042Y-4.2024
X3.5138Y-4.1555
X3.5197Y-4.0866
X3.5264Y-3.9295
X3.5264Y-3.9815
X3.5358Y-4.0456
X3.5433Y-4.2717
X3.5488Y-3.9295
X3.5524Y-4.1654
X3.5591Y-4.1102
X3.5594Y-4.0045
X3.5713Y-3.9555
X3.5748Y-3.6142
X3.5748Y-4.0551
X3.5827Y-3.9134
X3.6122Y-3.939
X3.6516Y-3.9587
X3.685Y-3.9449
X3.685Y-4.0709
X3.7008Y-3.748
X3.7165Y-3.874
X3.7165Y-3.9213
X3.7795Y-4.0472
X3.815Y-4.3425
X3.8327Y-3.937
X3.8504Y-4.1969
X3.8583Y-3.937
X3.9016Y-4.3524
X3.9764Y-4.1457
X3.9862Y-4.3543
X4.0177Y-3.8504
X4.0177Y-4.0059
X4.0357Y-3.7546
T2
X2.9665Y-4.4409
X2.9856Y-4.395
X2.9856Y-4.4869
X3.0315Y-4.376
X3.0315Y-4.5059
X3.0774Y-4.395
X3.0774Y-4.4869
X3.0965Y-4.4409
X3.9114Y-3.4961
X3.9304Y-3.4501
X3.9304Y-3.542
X3.9764Y-3.4311
X3.9764Y-3.561
X4.0223Y-3.4501
X4.0223Y-3.542
X4.0413Y-3.4961
T3
X2.9921Y-4.1339
X3.0394Y-4.0157
X3.376Y-3.4469
X3.435Y-3.4764
X3.5827Y-3.7953
X3.6772Y-3.8976
X3.7402Y-3.5433
X3.7402Y-3.9528
X3.8268Y-3.7953
X3.8425Y-3.5276
X3.8661Y-4.0157
X3.8829Y-3.8809
X3.937Y-3.7323
X3.9449Y-3.7717
X4.0157Y-3.811
X4.0157Y-3.8996
X4.0157Y-3.9685
X4.0256Y-3.6043
T5
X3.0157Y-4.2362
X3.0157Y-4.2862
X3.748Y-3.4646
X3.798Y-3.4646
T6
X3.0315Y-4.4409
X3.9764Y-3.4961
T4
G00X3.3339Y-4.2154
M15
G01X3.3339Y-4.172
M16
G05
G00X3.3339Y-4.3701
M15
G01X3.3339Y-4.3465
M16
G05
G00X3.674Y-4.2154
M15
G01X3.674Y-4.172
M16
G05
G00X3.674Y-4.3701
M15
G01X3.674Y-4.3465
M16
G05
T0
M30
